<svg width="50" height="50" viewBox="0 0 50 50" fill="none" xmlns="http://www.w3.org/2000/svg">
<rect x="6.6875" y="6.6875" width="34.6875" height="33.75" fill="#222222"/>
<path fill-rule="evenodd" clip-rule="evenodd" d="M7.625 7.625L7.625 4.8125H38.5625V7.625L41.375 7.625V35.75H38.5625V10.4375H35.75V7.625H7.625ZM7.625 7.625V35.75H4.8125V7.625H7.625Z" fill="#434343"/>
<path fill-rule="evenodd" clip-rule="evenodd" d="M38.5625 4.8125H41.375V7.625H38.5625V4.8125ZM41.375 41.375H44.1875V7.625H41.375V38.5625H38.5625V41.375H7.625V38.5625H4.8125V41.375H7.625V44.1875H41.375V41.375Z" fill="#282828"/>
<path fill-rule="evenodd" clip-rule="evenodd" d="M4.8125 35.75H7.625V38.5625H4.8125V35.75ZM35.75 38.5625H7.625V41.375H38.5625V38.5625H41.375V35.75H35.75V38.5625Z" fill="#3A3A3A"/>
<path fill-rule="evenodd" clip-rule="evenodd" d="M41.375 2H7.625V4.8125H4.8125V7.625H2V41.375H4.8125V44.1875H7.625V47H41.375V44.1875H44.1875V41.375H47V7.625H44.1875V4.8125H41.375V2ZM41.375 4.8125V7.625H44.1875V41.375H41.375V44.1875H7.625V41.375H4.8125V7.625H7.625V4.8125H41.375Z" fill="black"/>
<path d="M20.6301 24.9692C20.7101 23.5316 21.4091 22.2651 22.4638 21.3672C23.4981 20.4854 24.8901 19.9464 26.4091 19.9464C27.9265 19.9464 29.3186 20.4854 30.3536 21.3672C31.4075 22.265 32.1066 23.5316 32.1874 24.9676C32.2674 26.4447 31.6778 27.8169 30.6435 28.8341C29.5889 29.8687 28.0888 30.5179 26.4091 30.5179C24.7294 30.5179 23.2263 29.8687 22.1724 28.8341C21.1374 27.8168 20.5492 26.4447 20.6301 24.9692Z" fill="black"/>
<path d="M23.4446 25.0975C23.4856 24.3599 23.8443 23.7099 24.3854 23.2493C24.9162 22.7969 25.6304 22.5203 26.4098 22.5203C27.1884 22.5203 27.9027 22.7969 28.4338 23.2493C28.9745 23.7099 29.3332 24.3599 29.3746 25.0968C29.4157 25.8546 29.1133 26.5587 28.5825 27.0806C28.0414 27.6114 27.2717 27.9446 26.4098 27.9446C25.548 27.9446 24.7767 27.6114 24.2359 27.0806C23.7049 26.5587 23.4031 25.8546 23.4446 25.0975Z" fill="black"/>
<path d="M18.7368 26.6129C18.742 26.9021 18.8336 27.4643 18.971 27.9032C19.2598 28.8324 19.7497 29.6921 20.4314 30.4496C21.1309 31.2283 21.9923 31.8538 22.9873 32.2978C24.0331 32.7642 25.1662 33.0019 26.3431 32.9999C27.5182 32.9983 28.6514 32.756 29.6971 32.2861C30.6921 31.8377 31.5527 31.2095 32.2511 30.4305C32.9323 29.6697 33.4214 28.8086 33.7111 27.8794C33.8566 27.4099 33.9486 26.9334 33.9855 26.4553C34.0216 25.9836 34.0064 25.5094 33.9401 25.041C33.8104 24.1224 33.4948 23.2605 33.0088 22.4748C32.5643 21.7527 31.9914 21.1207 31.31 20.5886L31.3116 20.5875L24.4364 15.2715C24.4302 15.2668 24.4251 15.2618 24.4185 15.2574C23.9675 14.9087 23.2088 14.9099 22.7128 15.2593C22.2112 15.6127 22.1538 16.1972 22.6002 16.5657L22.5983 16.5677L25.4659 18.9159L16.7257 18.9253H16.714C15.9916 18.9261 15.2972 19.4034 15.1597 20.0066C15.0184 20.6211 15.5091 21.1308 16.2603 21.1336L16.2591 21.1362L20.6892 21.1276L12.7839 27.238C12.7738 27.2454 12.7629 27.2532 12.7536 27.2607C12.0079 27.8357 11.7669 28.7919 12.2365 29.397C12.7132 30.0123 13.7268 30.0134 14.4803 29.4005L18.7947 25.8449C18.7947 25.8449 18.7318 26.3248 18.7368 26.6129ZM29.8233 28.2203C28.9344 29.1323 27.6898 29.6494 26.3432 29.6522C24.9946 29.6545 23.75 29.142 22.8611 28.2316C22.4267 27.7879 22.1076 27.2774 21.9108 26.7336C21.7173 26.1985 21.6428 25.6271 21.6926 25.0598C21.7396 24.5004 21.905 23.9668 22.1689 23.484C22.4282 23.0095 22.7853 22.5806 23.2264 22.2179C24.0904 21.5089 25.1906 21.1249 26.3411 21.1233C27.493 21.1218 28.5923 21.5022 29.4573 22.209C29.8974 22.5701 30.2542 22.9974 30.5135 23.4712C30.7809 23.9566 30.9439 24.4932 30.9918 25.0461C31.0409 25.6131 30.9661 26.184 30.7728 26.7187C30.5756 27.2641 30.2577 27.7747 29.8233 28.2203Z" fill="black"/>
<path d="M19.6294 23.969C19.7095 22.5313 20.4085 21.2648 21.4632 20.367C22.4975 19.4852 23.8895 18.9462 25.4085 18.9462C26.9259 18.9462 28.318 19.4852 29.353 20.367C30.4069 21.2648 31.106 22.5313 31.1868 23.9674C31.2667 25.4445 30.6772 26.8167 29.6429 27.8338C28.5883 28.8685 27.0882 29.5177 25.4085 29.5177C23.7287 29.5177 22.2257 28.8685 21.1718 27.8338C20.1368 26.8166 19.5486 25.4444 19.6294 23.969Z" fill="white"/>
<path d="M22.4441 24.0971C22.4851 23.3595 22.8439 22.7096 23.385 22.2489C23.9157 21.7965 24.6299 21.5199 25.4093 21.5199C26.1879 21.5199 26.9022 21.7965 27.4333 22.2489C27.974 22.7096 28.3327 23.3595 28.3742 24.0964C28.4153 24.8543 28.1128 25.5584 27.582 26.0802C27.0409 26.6111 26.2712 26.9442 25.4093 26.9442C24.5475 26.9442 23.7762 26.6111 23.2355 26.0802C22.7044 25.5584 22.4026 24.8543 22.4441 24.0971Z" fill="#265787"/>
<path d="M17.7365 25.6126C17.7416 25.9017 17.8332 26.4639 17.9707 26.9029C18.2594 27.832 18.7493 28.6917 19.431 29.4492C20.1305 30.2279 20.9919 30.8534 21.9869 31.2975C23.0327 31.7638 24.1658 32.0015 25.3427 31.9996C26.5178 31.9979 27.651 31.7556 28.6968 31.2857C29.6917 30.8373 30.5523 30.2092 31.2507 29.4301C31.932 28.6694 32.4211 27.8082 32.7107 26.8791C32.8562 26.4096 32.9482 25.9331 32.9851 25.4549C33.0212 24.9832 33.006 24.509 32.9397 24.0407C32.8101 23.122 32.4944 22.2601 32.0084 21.4744C31.5639 20.7524 30.991 20.1203 30.3097 19.5882L30.3112 19.5871L23.4361 14.2711C23.4298 14.2664 23.4247 14.2614 23.4181 14.2571C22.9671 13.9083 22.2085 13.9096 21.7124 14.259C21.2109 14.6124 21.1534 15.1968 21.5998 15.5654L21.5979 15.5673L24.4655 17.9155L15.7253 17.9249H15.7137C14.9912 17.9258 14.2968 18.403 14.1593 19.0062C14.018 19.6207 14.5088 20.1304 15.2599 20.1332L15.2587 20.1359L19.6888 20.1272L11.7835 26.2376C11.7735 26.2451 11.7626 26.2529 11.7533 26.2603C11.0076 26.8353 10.7665 27.7915 11.2362 28.3966C11.7129 29.0119 12.7265 29.0131 13.4799 28.4001L17.7943 24.8445C17.7943 24.8445 17.7314 25.3245 17.7365 25.6126ZM28.823 27.2199C27.934 28.1319 26.6894 28.649 25.3428 28.6518C23.9942 28.6541 22.7497 28.1416 21.8607 27.2312C21.4263 26.7875 21.1073 26.277 20.9104 25.7333C20.7169 25.1981 20.6424 24.6267 20.6923 24.0595C20.7392 23.5 20.9046 22.9665 21.1686 22.4837C21.4279 22.0091 21.785 21.5803 22.226 21.2175C23.09 20.5085 24.1902 20.1245 25.3408 20.123C26.4926 20.1214 27.5919 20.5018 28.4569 21.2086C28.8971 21.5697 29.2539 21.997 29.5131 22.4708C29.7806 22.9562 29.9435 23.4928 29.9914 24.0458C30.0405 24.6127 29.9658 25.1836 29.7724 25.7184C29.5752 26.2638 29.2573 26.7743 28.823 27.2199Z" fill="#EA7600"/>
</svg>
