<svg width="50" height="50" viewBox="0 0 50 50" fill="none" xmlns="http://www.w3.org/2000/svg">
<rect x="6" y="5" width="34" height="37" fill="#7911F7"/>
<rect x="16" y="16" width="14" height="15" fill="white"/>
<path fill-rule="evenodd" clip-rule="evenodd" d="M7.625 7.625L7.625 4.8125H38.5625V7.625L41.375 7.625V35.75H38.5625V10.4375H35.75V7.625H7.625ZM7.625 7.625V35.75H4.8125V7.625H7.625Z" fill="#8F00FF"/>
<path fill-rule="evenodd" clip-rule="evenodd" d="M38.5625 4.8125H41.375V7.625H38.5625V4.8125ZM41.375 41.375H44.1875V7.625H41.375V38.5625H38.5625V41.375H7.625V38.5625H4.8125V41.375H7.625V44.1875H41.375V41.375Z" fill="#4A0084"/>
<path fill-rule="evenodd" clip-rule="evenodd" d="M4.8125 35.75H7.625V38.5625H4.8125V35.75ZM35.75 38.5625H7.625V41.375H38.5625V38.5625H41.375V35.75H35.75V38.5625Z" fill="#6600B7"/>
<path fill-rule="evenodd" clip-rule="evenodd" d="M41.375 2H7.625V4.8125H4.8125V7.625H2L2 22H0V25V28H2L2 41.375H4.8125V44.1875H7.625V47H41.375V44.1875H44.1875V41.375H47V28H49V25V22H47V7.625H44.1875V4.8125H41.375V2ZM41.375 4.8125V7.625H44.1875V41.375H41.375V44.1875H7.625V41.375H4.8125V7.625H7.625V4.8125H41.375Z" fill="black"/>
<path d="M29.6667 13H16.3344C15.4507 13.0026 14.6039 13.3549 13.9792 13.9799C13.3544 14.6049 13.0023 15.4518 13 16.3356V29.6667C13.0032 30.5499 13.3556 31.3961 13.9803 32.0205C14.6049 32.645 15.4512 32.9971 16.3344 33H29.6667C30.5497 32.9968 31.3957 32.6446 32.0201 32.0201C32.6446 31.3957 32.9968 30.5497 33 29.6667V16.3356C32.9974 15.4521 32.6454 14.6056 32.0209 13.9807C31.3964 13.3558 30.5501 13.0032 29.6667 13ZM27.8451 27.0475C27.6762 27.4474 27.413 27.8028 27.0753 28.0772C26.676 28.3873 26.2214 28.6187 25.7358 28.7592C25.1915 28.9269 24.5428 29.0135 23.792 29.0135H18.4326V17.3452H24.1007C25.1482 17.3452 25.989 17.5818 26.6188 18.0628C27.2508 18.547 27.5674 19.2646 27.5674 20.2376C27.5674 20.8241 27.423 21.3294 27.1353 21.7449C26.8476 22.1592 26.4355 22.4824 25.9013 22.709V22.7468C26.6144 22.8967 27.1642 23.2333 27.5274 23.7597C27.8906 24.2851 28.075 24.9471 28.075 25.7469C28.075 26.1967 27.9883 26.6221 27.8251 27.0209L27.8473 27.0442V27.0475H27.8451ZM25.5303 24.1718C25.187 23.8586 24.7094 23.7064 24.0896 23.7064H20.4864V27.3452H24.0996C24.715 27.3452 25.2004 27.1853 25.5414 26.862C25.8835 26.541 26.0568 26.0834 26.0568 25.4969C26.0512 24.9216 25.8835 24.4762 25.5414 24.1718H25.5258H25.5303ZM25.0293 21.8182C25.3614 21.5394 25.5225 21.1373 25.5225 20.6141C25.5225 20.0299 25.377 19.6122 25.0815 19.3745C24.7883 19.1368 24.364 19.0124 23.8086 19.0124H20.4753V22.2314H23.8086C24.2929 22.2325 24.7083 22.0903 25.0293 21.8182Z" fill="#7911F7"/>
</svg>
