<svg width="50" height="50" viewBox="0 0 50 50" fill="none" xmlns="http://www.w3.org/2000/svg">
<rect x="6.6875" y="6.6875" width="34.6875" height="33.75" fill="#7911F7"/>
<path fill-rule="evenodd" clip-rule="evenodd" d="M7.625 7.625L7.625 4.8125H38.5625V7.625L41.375 7.625V35.75H38.5625V10.4375H35.75V7.625H7.625ZM7.625 7.625V35.75H4.8125V7.625H7.625Z" fill="#8F00FF"/>
<path fill-rule="evenodd" clip-rule="evenodd" d="M38.5625 4.8125H41.375V7.625H38.5625V4.8125ZM41.375 41.375H44.1875V7.625H41.375V38.5625H38.5625V41.375H7.625V38.5625H4.8125V41.375H7.625V44.1875H41.375V41.375Z" fill="#4A0084"/>
<path fill-rule="evenodd" clip-rule="evenodd" d="M4.8125 35.75H7.625V38.5625H4.8125V35.75ZM35.75 38.5625H7.625V41.375H38.5625V38.5625H41.375V35.75H35.75V38.5625Z" fill="#6600B7"/>
<path fill-rule="evenodd" clip-rule="evenodd" d="M41.375 2H7.625V4.8125H4.8125V7.625H2L2 22H0V25V28H2L2 41.375H4.8125V44.1875H7.625V47H41.375V44.1875H44.1875V41.375H47V28H49V25V22H47V7.625H44.1875V4.8125H41.375V2ZM41.375 4.8125V7.625H44.1875V41.375H41.375V44.1875H7.625V41.375H4.8125V7.625H7.625V4.8125H41.375Z" fill="black"/>
<path d="M18 28.375V17H27.75V18.625H29.375V21.875H27.75V23.5H29.375V26.75H27.75V28.375H18ZM21.25 21.875H26.125V18.625H21.25V21.875ZM21.25 26.75H26.125V23.5H21.25V26.75Z" fill="white"/>
<path d="M18 28.375H15V31.375H18V28.375ZM18 17V14H15V17H18ZM27.75 17H30.75V14H27.75V17ZM27.75 18.625H24.75V21.625H27.75V18.625ZM29.375 18.625H32.375V15.625H29.375V18.625ZM29.375 21.875V24.875H32.375V21.875H29.375ZM27.75 21.875V18.875H24.75V21.875H27.75ZM27.75 23.5H24.75V26.5H27.75V23.5ZM29.375 23.5H32.375V20.5H29.375V23.5ZM29.375 26.75V29.75H32.375V26.75H29.375ZM27.75 26.75V23.75H24.75V26.75H27.75ZM27.75 28.375V31.375H30.75V28.375H27.75ZM21.25 21.875H18.25V24.875H21.25V21.875ZM26.125 21.875V24.875H29.125V21.875H26.125ZM26.125 18.625H29.125V15.625H26.125V18.625ZM21.25 18.625V15.625H18.25V18.625H21.25ZM21.25 26.75H18.25V29.75H21.25V26.75ZM26.125 26.75V29.75H29.125V26.75H26.125ZM26.125 23.5H29.125V20.5H26.125V23.5ZM21.25 23.5V20.5H18.25V23.5H21.25ZM21 28.375V17H15V28.375H21ZM18 20H27.75V14H18V20ZM24.75 17V18.625H30.75V17H24.75ZM27.75 21.625H29.375V15.625H27.75V21.625ZM26.375 18.625V21.875H32.375V18.625H26.375ZM29.375 18.875H27.75V24.875H29.375V18.875ZM24.75 21.875V23.5H30.75V21.875H24.75ZM27.75 26.5H29.375V20.5H27.75V26.5ZM26.375 23.5V26.75H32.375V23.5H26.375ZM29.375 23.75H27.75V29.75H29.375V23.75ZM24.75 26.75V28.375H30.75V26.75H24.75ZM27.75 25.375H18V31.375H27.75V25.375ZM21.25 24.875H26.125V18.875H21.25V24.875ZM29.125 21.875V18.625H23.125V21.875H29.125ZM26.125 15.625H21.25V21.625H26.125V15.625ZM18.25 18.625V21.875H24.25V18.625H18.25ZM21.25 29.75H26.125V23.75H21.25V29.75ZM29.125 26.75V23.5H23.125V26.75H29.125ZM26.125 20.5H21.25V26.5H26.125V20.5ZM18.25 23.5V26.75H24.25V23.5H18.25Z" fill="black"/>
</svg>
