<svg width="50" height="50" viewBox="0 0 50 50" fill="none" xmlns="http://www.w3.org/2000/svg">
<rect x="6" y="6" width="34" height="35" fill="#7911F7"/>
<rect x="13" y="13" width="20" height="21" fill="white"/>
<rect x="13" y="13" width="20" height="21" fill="white"/>
<path d="M31.6667 10H14.3348C13.1859 10.0034 12.0851 10.4614 11.2729 11.2739C10.4607 12.0864 10.003 13.1874 10 14.3362V31.6667C10.0042 32.8149 10.4623 33.9149 11.2743 34.7267C12.0864 35.5385 13.1865 35.9962 14.3348 36H31.6667C32.8147 35.9958 33.9144 35.5379 34.7262 34.7262C35.5379 33.9144 35.9958 32.8147 36 31.6667V14.3362C35.9966 13.1877 35.539 12.0872 34.7272 11.2749C33.9154 10.4625 32.8151 10.0042 31.6667 10ZM29.2986 28.2618C29.0791 28.7816 28.7369 29.2437 28.2979 29.6004C27.7788 30.0035 27.1879 30.3044 26.5565 30.4869C25.8489 30.705 25.0057 30.8176 24.0295 30.8176H17.0624V15.6488H24.431C25.7926 15.6488 26.8857 15.9563 27.7044 16.5816C28.526 17.2112 28.9376 18.144 28.9376 19.4089C28.9376 20.1713 28.7499 20.8283 28.3759 21.3683C28.0019 21.9069 27.4662 22.3271 26.7716 22.6217V22.6708C27.6987 22.8657 28.4134 23.3032 28.8856 23.9877C29.3578 24.6707 29.5975 25.5313 29.5975 26.5709C29.5975 27.1557 29.4848 27.7088 29.2726 28.2271L29.3015 28.2575V28.2618H29.2986ZM26.2893 24.5234C25.8432 24.1162 25.2223 23.9184 24.4165 23.9184H19.7323V28.6488H24.4295C25.2295 28.6488 25.8605 28.4409 26.3038 28.0207C26.7485 27.6034 26.9738 27.0084 26.9738 26.246C26.9666 25.4981 26.7485 24.919 26.3038 24.5234H26.2836H26.2893ZM25.6381 21.4636C26.0699 21.1012 26.2792 20.5785 26.2792 19.8984C26.2792 19.1388 26.0901 18.5959 25.706 18.2869C25.3248 17.9779 24.7732 17.8162 24.0512 17.8162H19.7179V22.0008H24.0512C24.6808 22.0022 25.2208 21.8174 25.6381 21.4636Z" fill="#7911F7"/>
<path fill-rule="evenodd" clip-rule="evenodd" d="M7.625 7.625L7.625 4.8125H38.5625V7.625L41.375 7.625V35.75H38.5625V10.4375H35.75V7.625H7.625ZM7.625 7.625V35.75H4.8125V7.625H7.625Z" fill="#8F00FF"/>
<path fill-rule="evenodd" clip-rule="evenodd" d="M38.5625 4.8125H41.375V7.625H38.5625V4.8125ZM41.375 41.375H44.1875V7.625H41.375V38.5625H38.5625V41.375H7.625V38.5625H4.8125V41.375H7.625V44.1875H41.375V41.375Z" fill="#4A0084"/>
<path fill-rule="evenodd" clip-rule="evenodd" d="M4.8125 35.75H7.625V38.5625H4.8125V35.75ZM35.75 38.5625H7.625V41.375H38.5625V38.5625H41.375V35.75H35.75V38.5625Z" fill="#6600B7"/>
<path fill-rule="evenodd" clip-rule="evenodd" d="M41.375 2H7.625V4.8125H4.8125V7.625H2L2 22H0V25V28H2L2 41.375H4.8125V44.1875H7.625V47H41.375V44.1875H44.1875V41.375H47V28H49V25V22H47V7.625H44.1875V4.8125H41.375V2ZM41.375 4.8125V7.625H44.1875V41.375H41.375V44.1875H7.625V41.375H4.8125V7.625H7.625V4.8125H41.375Z" fill="black"/>
</svg>
