<svg width="50" height="50" viewBox="0 0 50 50" fill="none" xmlns="http://www.w3.org/2000/svg">
<rect x="6" y="7" width="18" height="33" fill="#1572B6"/>
<rect x="24" y="7" width="18" height="33" fill="#33A9DC"/>
<path fill-rule="evenodd" clip-rule="evenodd" d="M7.625 7.625L7.625 4.8125H38.5625V7.625L41.375 7.625V35.75H38.5625V10.4375H35.75V7.625H7.625ZM7.625 7.625V35.75H4.8125V7.625H7.625Z" fill="#0879CC"/>
<path fill-rule="evenodd" clip-rule="evenodd" d="M38.5625 4.8125H41.375V7.625H38.5625V4.8125ZM41.375 41.375H44.1875V7.625H41.375V38.5625H38.5625V41.375H7.625V38.5625H4.8125V41.375H7.625V44.1875H41.375V41.375Z" fill="#004374"/>
<path fill-rule="evenodd" clip-rule="evenodd" d="M4.8125 35.75H7.625V38.5625H4.8125V35.75ZM35.75 38.5625H7.625V41.375H38.5625V38.5625H41.375V35.75H35.75V38.5625Z" fill="#006AB7"/>
<path fill-rule="evenodd" clip-rule="evenodd" d="M41.375 2H7.625V4.8125H4.8125V7.625H2V41.375H4.8125V44.1875H7.625V47H41.375V44.1875H44.1875V41.375H47V7.625H44.1875V4.8125H41.375V2ZM41.375 4.8125V7.625H44.1875V41.375H41.375V44.1875H7.625V41.375H4.8125V7.625H7.625V4.8125H41.375Z" fill="black"/>
<path d="M24 31.1035L26.5 31.1083L19.4117 29.9829L19.1196 27H15L15.5749 32.8726L23.9801 35L24 34.9952V31.1035Z" fill="#EBEBEB"/>
<path d="M28.9669 24L28.4831 29.4954L24 30.7301V35L32.2405 32.6686L32.3016 31.9755L33 24H28.9669Z" fill="white"/>
<path d="M24 13V16.9683H14.3577L14.2777 16.0761L14.0956 14.0643L14 13H24ZM25.0142 21.0317L24.5 25H19.596L19.5159 24.1077L19.3351 22.096L19.2396 21.0317H25.0142Z" fill="#EBEBEB"/>
<path d="M24 21.0317H29.2774L29.6413 16.9683H24V13H34L33.9045 14.0643L32.9252 25H24V21.0317Z" fill="white"/>
</svg>
