<svg width="50" height="50" viewBox="0 0 50 50" fill="none" xmlns="http://www.w3.org/2000/svg">
<rect x="6.6875" y="6.6875" width="34.6875" height="33.75" fill="#F47437"/>
<path fill-rule="evenodd" clip-rule="evenodd" d="M7.625 7.625L7.625 4.8125H38.5625V7.625L41.375 7.625V35.75H38.5625V10.4375H35.75V7.625H7.625ZM7.625 7.625V35.75H4.8125V7.625H7.625Z" fill="#FE5C0F"/>
<path fill-rule="evenodd" clip-rule="evenodd" d="M38.5625 4.8125H41.375V7.625H38.5625V4.8125ZM41.375 41.375H44.1875V7.625H41.375V38.5625H38.5625V41.375H7.625V38.5625H4.8125V41.375H7.625V44.1875H41.375V41.375Z" fill="#942F00"/>
<path fill-rule="evenodd" clip-rule="evenodd" d="M4.8125 35.75H7.625V38.5625H4.8125V35.75ZM35.75 38.5625H7.625V41.375H38.5625V38.5625H41.375V35.75H35.75V38.5625Z" fill="#D94500"/>
<path fill-rule="evenodd" clip-rule="evenodd" d="M41.375 2H7.625V4.8125H4.8125V7.625H2V41.375H4.8125V44.1875H7.625V47H41.375V44.1875H44.1875V41.375H47V7.625H44.1875V4.8125H41.375V2ZM41.375 4.8125V7.625H44.1875V41.375H41.375V44.1875H7.625V41.375H4.8125V7.625H7.625V4.8125H41.375Z" fill="black"/>
<path d="M16 27V20H23V21H18V23H22V24H18V26H23V27H16ZM25 27V26H24V25H26V26H29V24H25V23H24V21H25V20H30V21H31V22H29V21H26V23H30V24H31V26H30V27H25ZM33 27V26H32V22H33V21H34V20H38V21H35V22H34V23H38V24H39V26H38V27H33ZM34 26H37V24H34V26Z" fill="white"/>
<path d="M16 27H13V30H16V27ZM16 20V17H13V20H16ZM23 20H26V17H23V20ZM23 21V24H26V21H23ZM18 21V18H15V21H18ZM18 23H15V26H18V23ZM22 23H25V20H22V23ZM22 24V27H25V24H22ZM18 24V21H15V24H18ZM18 26H15V29H18V26ZM23 26H26V23H23V26ZM23 27V30H26V27H23ZM19 27V20H13V27H19ZM16 23H23V17H16V23ZM20 20V21H26V20H20ZM23 18H18V24H23V18ZM15 21V23H21V21H15ZM18 26H22V20H18V26ZM19 23V24H25V23H19ZM22 21H18V27H22V21ZM15 24V26H21V24H15ZM18 29H23V23H18V29ZM20 26V27H26V26H20ZM23 24H16V30H23V24ZM25 27H22V30H25V27ZM25 26H28V23H25V26ZM24 26H21V29H24V26ZM24 25V22H21V25H24ZM26 25H29V22H26V25ZM26 26H23V29H26V26ZM29 26V29H32V26H29ZM29 24H32V21H29V24ZM25 24H22V27H25V24ZM25 23H28V20H25V23ZM24 23H21V26H24V23ZM24 21V18H21V21H24ZM25 21V24H28V21H25ZM25 20V17H22V20H25ZM30 20H33V17H30V20ZM30 21H27V24H30V21ZM31 21H34V18H31V21ZM31 22V25H34V22H31ZM29 22H26V25H29V22ZM29 21H32V18H29V21ZM26 21V18H23V21H26ZM26 23H23V26H26V23ZM30 23H33V20H30V23ZM30 24H27V27H30V24ZM31 24H34V21H31V24ZM31 26V29H34V26H31ZM30 26V23H27V26H30ZM30 27V30H33V27H30ZM28 27V26H22V27H28ZM25 23H24V29H25V23ZM27 26V25H21V26H27ZM24 28H26V22H24V28ZM23 25V26H29V25H23ZM26 29H29V23H26V29ZM32 26V24H26V26H32ZM29 21H25V27H29V21ZM28 24V23H22V24H28ZM25 20H24V26H25V20ZM27 23V21H21V23H27ZM24 24H25V18H24V24ZM28 21V20H22V21H28ZM25 23H30V17H25V23ZM27 20V21H33V20H27ZM30 24H31V18H30V24ZM28 21V22H34V21H28ZM31 19H29V25H31V19ZM32 22V21H26V22H32ZM29 18H26V24H29V18ZM23 21V23H29V21H23ZM26 26H30V20H26V26ZM27 23V24H33V23H27ZM30 27H31V21H30V27ZM28 24V26H34V24H28ZM31 23H30V29H31V23ZM27 26V27H33V26H27ZM30 24H25V30H30V24ZM33 27H30V30H33V27ZM33 26H36V23H33V26ZM32 26H29V29H32V26ZM32 22V19H29V22H32ZM33 22V25H36V22H33ZM33 21V18H30V21H33ZM34 21V24H37V21H34ZM34 20V17H31V20H34ZM38 20H41V17H38V20ZM38 21V24H41V21H38ZM35 21V18H32V21H35ZM35 22V25H38V22H35ZM34 22V19H31V22H34ZM34 23H31V26H34V23ZM38 23H41V20H38V23ZM38 24H35V27H38V24ZM39 24H42V21H39V24ZM39 26V29H42V26H39ZM38 26V23H35V26H38ZM38 27V30H41V27H38ZM34 26H31V29H34V26ZM37 26V29H40V26H37ZM37 24H40V21H37V24ZM34 24V21H31V24H34ZM36 27V26H30V27H36ZM33 23H32V29H33V23ZM35 26V22H29V26H35ZM32 25H33V19H32V25ZM36 22V21H30V22H36ZM33 24H34V18H33V24ZM37 21V20H31V21H37ZM34 23H38V17H34V23ZM35 20V21H41V20H35ZM38 18H35V24H38V18ZM32 21V22H38V21H32ZM35 19H34V25H35V19ZM31 22V23H37V22H31ZM34 26H38V20H34V26ZM35 23V24H41V23H35ZM38 27H39V21H38V27ZM36 24V26H42V24H36ZM39 23H38V29H39V23ZM35 26V27H41V26H35ZM38 24H33V30H38V24ZM34 29H37V23H34V29ZM40 26V24H34V26H40ZM37 21H34V27H37V21ZM31 24V26H37V24H31Z" fill="black"/>
</svg>
