<svg width="50" height="50" viewBox="0 0 50 50" fill="none" xmlns="http://www.w3.org/2000/svg">
<rect x="6.6875" y="6.6875" width="34.6875" height="33.75" fill="#222222"/>
<path fill-rule="evenodd" clip-rule="evenodd" d="M7.625 7.625L7.625 4.8125H38.5625V7.625L41.375 7.625V35.75H38.5625V10.4375H35.75V7.625H7.625ZM7.625 7.625V35.75H4.8125V7.625H7.625Z" fill="#434343"/>
<path fill-rule="evenodd" clip-rule="evenodd" d="M38.5625 4.8125H41.375V7.625H38.5625V4.8125ZM41.375 41.375H44.1875V7.625H41.375V38.5625H38.5625V41.375H7.625V38.5625H4.8125V41.375H7.625V44.1875H41.375V41.375Z" fill="#282828"/>
<path fill-rule="evenodd" clip-rule="evenodd" d="M4.8125 35.75H7.625V38.5625H4.8125V35.75ZM35.75 38.5625H7.625V41.375H38.5625V38.5625H41.375V35.75H35.75V38.5625Z" fill="#3A3A3A"/>
<path fill-rule="evenodd" clip-rule="evenodd" d="M41.375 2H7.625V4.8125H4.8125V7.625H2V41.375H4.8125V44.1875H7.625V47H41.375V44.1875H44.1875V41.375H47V7.625H44.1875V4.8125H41.375V2ZM41.375 4.8125V7.625H44.1875V41.375H41.375V44.1875H7.625V41.375H4.8125V7.625H7.625V4.8125H41.375Z" fill="black"/>
<path d="M20.2624 36.9363C22.5448 36.9363 24.3972 35.0839 24.3972 32.8015V28.6667H20.2624C17.9801 28.6667 16.1277 30.5191 16.1277 32.8015C16.1277 35.0839 17.9801 36.9363 20.2624 36.9363Z" fill="black"/>
<path d="M16.1277 24.5319C16.1277 22.2495 17.9801 20.3971 20.2624 20.3971H24.3972V28.6666H20.2624C17.9801 28.6666 16.1277 26.8142 16.1277 24.5319Z" fill="black"/>
<path d="M16.1277 16.2624C16.1277 13.9801 17.9801 12.1277 20.2624 12.1277H24.3972V20.3972H20.2624C17.9801 20.3972 16.1277 18.5448 16.1277 16.2624Z" fill="black"/>
<path d="M24.3972 12.1277H28.532C30.8144 12.1277 32.6667 13.9801 32.6667 16.2624C32.6667 18.5448 30.8144 20.3972 28.532 20.3972H24.3972V12.1277Z" fill="black"/>
<path d="M32.6667 24.5319C32.6667 26.8142 30.8144 28.6666 28.532 28.6666C26.2496 28.6666 24.3972 26.8142 24.3972 24.5319C24.3972 22.2495 26.2496 20.3971 28.532 20.3971C30.8144 20.3971 32.6667 22.2495 32.6667 24.5319Z" fill="black"/>
<path d="M19.1348 35.8086C21.4171 35.8086 23.2695 33.9562 23.2695 31.6738V27.5391H19.1348C16.8524 27.5391 15 29.3914 15 31.6738C15 33.9562 16.8524 35.8086 19.1348 35.8086Z" fill="#0ACF83"/>
<path d="M15 23.4043C15 21.1219 16.8524 19.2695 19.1348 19.2695H23.2695V27.539H19.1348C16.8524 27.539 15 25.6867 15 23.4043Z" fill="#A259FF"/>
<path d="M15 15.1348C15 12.8524 16.8524 11 19.1348 11H23.2695V19.2695H19.1348C16.8524 19.2695 15 17.4171 15 15.1348Z" fill="#F24E1E"/>
<path d="M23.2694 11H27.4042C29.6866 11 31.5389 12.8524 31.5389 15.1348C31.5389 17.4171 29.6866 19.2695 27.4042 19.2695H23.2694V11Z" fill="#FF7262"/>
<path d="M31.5389 23.4043C31.5389 25.6867 29.6866 27.539 27.4042 27.539C25.1218 27.539 23.2694 25.6867 23.2694 23.4043C23.2694 21.1219 25.1218 19.2695 27.4042 19.2695C29.6866 19.2695 31.5389 21.1219 31.5389 23.4043Z" fill="#1ABCFE"/>
</svg>
