<svg width="50" height="50" viewBox="0 0 50 50" fill="none" xmlns="http://www.w3.org/2000/svg">
<g clip-path="url(#clip0_232_4)">
<rect x="24.9916" y="5.62451" width="25.834" height="25.1357" transform="rotate(45 24.9916 5.62451)" fill="white"/>
<path d="M9.22776 20.232L18.6351 10.8084L21.3857 13.5753C20.9951 14.9587 21.6298 16.4723 22.8993 17.2047V26.2215C21.9228 26.7748 21.2718 27.8327 21.2718 29.0371C21.2718 29.9005 21.6147 30.7284 22.2252 31.3389C22.8356 31.9493 23.6636 32.2923 24.5269 32.2923C25.3902 32.2923 26.2182 31.9493 26.8286 31.3389C27.4391 30.7284 27.782 29.9005 27.782 29.0371C27.782 27.8327 27.131 26.7748 26.1544 26.2215V18.3115L29.5235 21.7131C29.4096 21.9572 29.4096 22.2339 29.4096 22.5269C29.4096 23.3902 29.7525 24.2182 30.363 24.8286C30.9734 25.4391 31.8014 25.782 32.6647 25.782C33.528 25.782 34.356 25.4391 34.9664 24.8286C35.5769 24.2182 35.9198 23.3902 35.9198 22.5269C35.9198 21.6636 35.5769 20.8356 34.9664 20.2252C34.356 19.6147 33.528 19.2718 32.6647 19.2718C32.3718 19.2718 32.0951 19.2717 31.8509 19.3857L27.6681 15.2028C27.8702 14.449 27.7918 13.6474 27.4476 12.947C27.1034 12.2466 26.5166 11.6949 25.7964 11.3943C25.0965 11.1339 24.3641 11.0688 23.7131 11.2478L20.9462 8.49726L22.232 7.22776C23.5015 5.94198 25.5522 5.94198 26.8218 7.22776L39.826 20.232C41.1118 21.5015 41.1118 23.5522 39.826 24.8218L26.8218 37.826C25.5522 39.1118 23.5015 39.1118 22.232 37.826L9.22776 24.8218C7.94198 23.5522 7.94198 21.5015 9.22776 20.232Z" fill="#F05033"/>
<path fill-rule="evenodd" clip-rule="evenodd" d="M24.9915 6.61188L26.4727 5.13074L42.7652 21.4233L41.284 22.9044L24.9915 6.61188ZM24.9915 6.61199L23.5104 5.13085L8.699 19.9422L10.1801 21.4234L24.9915 6.61199ZM42.7652 24.3856L41.284 22.9045L39.8029 21.4234L38.3217 22.9045L39.8029 24.3856L26.4726 37.7159L27.9538 39.197L42.7652 24.3856Z" fill="#FF5C00"/>
<path fill-rule="evenodd" clip-rule="evenodd" d="M42.7652 21.4233L44.2463 22.9044L42.7653 24.3855L44.2463 25.8666L26.4727 43.6402L24.9916 42.1592L24.9916 42.1592L24.9915 42.1592L23.5105 43.6402L5.73681 25.8666L7.21788 24.3855L5.73681 22.9044L7.21794 21.4233L8.69908 22.9044L7.218 24.3855L23.5105 40.678L24.9916 39.1969L26.4727 40.678L42.7652 24.3855L41.2841 22.9044L42.7652 21.4233Z" fill="#AF3800"/>
<path fill-rule="evenodd" clip-rule="evenodd" d="M24.9915 36.2347L27.9538 39.197L26.4727 40.6781L24.9915 39.197L23.5104 40.6781L7.21789 24.3856L8.69902 22.9045L23.5104 37.7158L24.9915 36.2347ZM8.69897 19.9421L10.1801 21.4233L8.69897 22.9044L7.21783 21.4233L8.69897 19.9421Z" fill="#D24300"/>
<path fill-rule="evenodd" clip-rule="evenodd" d="M45.7275 21.4233L27.9539 3.64965L26.4727 5.13079L24.9916 3.64965L23.5104 5.13079L22.0293 3.64963L4.25567 21.4233L5.73681 22.9044L4.25567 24.3856L5.73681 25.8667L4.25567 27.3478L22.0293 45.1215L23.5104 43.6403L24.9916 45.1215L26.4727 43.6403L24.9916 42.1592L23.5104 43.6403L5.73681 25.8667L7.21795 24.3856L5.73681 22.9044L23.5104 5.13079L24.9916 6.61193L26.4727 5.13079L44.2463 22.9044L42.7652 24.3856L44.2463 25.8666L26.4727 43.6402L27.9539 45.1213L45.7275 27.3477L44.2464 25.8666L45.7275 24.3856L44.2464 22.9044L45.7275 21.4233Z" fill="black"/>
</g>
<defs>
<clipPath id="clip0_232_4">
<rect width="50" height="50" fill="white"/>
</clipPath>
</defs>
</svg>
