<svg width="50" height="50" viewBox="0 0 50 50" fill="none" xmlns="http://www.w3.org/2000/svg">
<rect x="6.6875" y="6.6875" width="34.6875" height="33.75" fill="#222222"/>
<path d="M18.6093 18.5023C19.4228 18.7779 20.1968 19.1589 20.9114 19.6355C21.9206 19.3776 22.9583 19.248 24 19.2498C25.0757 19.2498 26.1135 19.3842 27.0864 19.6344C27.8007 19.1583 28.5743 18.7777 29.3874 18.5023C30.1425 18.2456 31.2182 17.8296 31.8574 18.537C32.2907 19.018 32.399 19.824 32.476 20.4393C32.5626 21.1262 32.5832 22.021 32.3557 22.9093C33.2256 24.0328 33.75 25.3728 33.75 26.8332C33.75 29.0453 32.5518 30.9661 30.7784 32.2964C29.9249 32.9286 28.9783 33.4242 27.9725 33.7654C28.2044 34.2963 28.3333 34.8834 28.3333 35.4998V38.7498C28.3333 39.0372 28.2192 39.3127 28.016 39.5159C27.8128 39.719 27.5373 39.8332 27.25 39.8332H20.75C20.4626 39.8332 20.1871 39.719 19.9839 39.5159C19.7808 39.3127 19.6666 39.0372 19.6666 38.7498V37.6763C18.632 37.803 17.7643 37.6903 17.0265 37.3773C16.2552 37.0501 15.7179 36.5431 15.3138 36.0578C14.9303 35.5984 14.5121 34.5628 13.9076 34.3613C13.7726 34.3163 13.6478 34.2452 13.5403 34.152C13.4327 34.0588 13.3446 33.9453 13.2809 33.8181C13.1523 33.5611 13.1311 33.2635 13.2219 32.9908C13.3127 32.7182 13.5081 32.4927 13.7651 32.3641C14.0221 32.2355 14.3196 32.2143 14.5923 32.3051C15.3138 32.5456 15.784 33.0656 16.1057 33.4838C16.6257 34.1554 17.0482 35.0329 17.8715 35.3828C18.2106 35.5269 18.7079 35.6212 19.4857 35.515L19.6666 35.4782C19.6687 34.8886 19.7915 34.3057 20.0274 33.7654C19.0216 33.4242 18.075 32.9286 17.2215 32.2964C15.4481 30.9661 14.25 29.0464 14.25 26.8332C14.25 25.375 14.7732 24.036 15.641 22.9137C15.4135 22.0253 15.433 21.1283 15.5196 20.4404L15.525 20.3993C15.6041 19.7688 15.6962 19.0267 16.1382 18.537C16.7774 17.8296 17.8542 18.2467 18.6082 18.5034L18.6093 18.5023Z" fill="white"/>
<path fill-rule="evenodd" clip-rule="evenodd" d="M7.625 7.625L7.625 4.8125H38.5625V7.625L41.375 7.625V35.75H38.5625V10.4375H35.75V7.625H7.625ZM7.625 7.625V35.75H4.8125V7.625H7.625Z" fill="#434343"/>
<path fill-rule="evenodd" clip-rule="evenodd" d="M38.5625 4.8125H41.375V7.625H38.5625V4.8125ZM41.375 41.375H44.1875V7.625H41.375V38.5625H38.5625V41.375H7.625V38.5625H4.8125V41.375H7.625V44.1875H41.375V41.375Z" fill="#282828"/>
<path fill-rule="evenodd" clip-rule="evenodd" d="M4.8125 35.75H7.625V38.5625H4.8125V35.75ZM35.75 38.5625H7.625V41.375H38.5625V38.5625H41.375V35.75H35.75V38.5625Z" fill="#3A3A3A"/>
<path fill-rule="evenodd" clip-rule="evenodd" d="M41.375 2H7.625V4.8125H4.8125V7.625H2V41.375H4.8125V44.1875H7.625V47H41.375V44.1875H44.1875V41.375H47V7.625H44.1875V4.8125H41.375V2ZM41.375 4.8125V7.625H44.1875V41.375H41.375V44.1875H7.625V41.375H4.8125V7.625H7.625V4.8125H41.375Z" fill="black"/>
</svg>
