<svg width="50" height="50" viewBox="0 0 50 50" fill="none" xmlns="http://www.w3.org/2000/svg">
<rect x="6" y="7" width="18" height="33" fill="#E44F26"/>
<rect x="24" y="7" width="18" height="33" fill="#F1662A"/>
<path fill-rule="evenodd" clip-rule="evenodd" d="M7.625 7.625L7.625 4.8125H38.5625V7.625L41.375 7.625V35.75H38.5625V10.4375H35.75V7.625H7.625ZM7.625 7.625V35.75H4.8125V7.625H7.625Z" fill="#D24300"/>
<path fill-rule="evenodd" clip-rule="evenodd" d="M38.5625 4.8125H41.375V7.625H38.5625V4.8125ZM41.375 41.375H44.1875V7.625H41.375V38.5625H38.5625V41.375H7.625V38.5625H4.8125V41.375H7.625V44.1875H41.375V41.375Z" fill="#A43501"/>
<path fill-rule="evenodd" clip-rule="evenodd" d="M4.8125 35.75H7.625V38.5625H4.8125V35.75ZM35.75 38.5625H7.625V41.375H38.5625V38.5625H41.375V35.75H35.75V38.5625Z" fill="#EB4B00"/>
<path fill-rule="evenodd" clip-rule="evenodd" d="M41.375 2H7.625V4.8125H4.8125V7.625H2V41.375H4.8125V44.1875H7.625V47H41.375V44.1875H44.1875V41.375H47V7.625H44.1875V4.8125H41.375V2ZM41.375 4.8125V7.625H44.1875V41.375H41.375V44.1875H7.625V41.375H4.8125V7.625H7.625V4.8125H41.375Z" fill="black"/>
<path d="M24 20.2208H18.1948L17.7946 16.0618H24V12H13L13.105 13.0907L14.1823 24.2825H24V20.2208ZM24 30.7687L23.9801 30.774L19.0947 29.5532L18.7825 26.3141H14.3782L14.9928 32.6899L23.9801 35L24 34.9947V30.7687Z" fill="#EBEBEB"/>
<path d="M24 20.2212V24.2832H28.9154L28.4531 29.5516L24 30.7737V35L32.1842 32.6911L32.2436 32.0051L33.1812 21.312L33.2793 20.2212H24ZM24 12V16.062H33.6423L33.7223 15.15L33.9044 13.0907L34 12H24Z" fill="white"/>
</svg>
