<svg width="50" height="50" viewBox="0 0 50 50" fill="none" xmlns="http://www.w3.org/2000/svg">
<rect x="6.6875" y="6.6875" width="34.6875" height="33.75" fill="#330000"/>
<path fill-rule="evenodd" clip-rule="evenodd" d="M7.625 7.625L7.625 4.8125H38.5625V7.625L41.375 7.625V35.75H38.5625V10.4375H35.75V7.625H7.625ZM7.625 7.625V35.75H4.8125V7.625H7.625Z" fill="#FF9A00"/>
<path fill-rule="evenodd" clip-rule="evenodd" d="M38.5625 4.8125H41.375V7.625H38.5625V4.8125ZM41.375 41.375H44.1875V7.625H41.375V38.5625H38.5625V41.375H7.625V38.5625H4.8125V41.375H7.625V44.1875H41.375V41.375Z" fill="#FF7A00"/>
<path fill-rule="evenodd" clip-rule="evenodd" d="M4.8125 35.75H7.625V38.5625H4.8125V35.75ZM35.75 38.5625H7.625V41.375H38.5625V38.5625H41.375V35.75H35.75V38.5625Z" fill="#FF8F28"/>
<path fill-rule="evenodd" clip-rule="evenodd" d="M41.375 2H7.625V4.8125H4.8125V7.625H2V41.375H4.8125V44.1875H7.625V47H41.375V44.1875H44.1875V41.375H47V7.625H44.1875V4.8125H41.375V2ZM41.375 4.8125V7.625H44.1875V41.375H41.375V44.1875H7.625V41.375H4.8125V7.625H7.625V4.8125H41.375Z" fill="black"/>
<path d="M23.542 28.4813H18.2268L17.1453 31.7944C17.1306 31.8549 17.0949 31.9083 17.0445 31.9456C16.9941 31.9829 16.9321 32.0017 16.8692 31.9987H14.177C14.0236 31.9987 13.9699 31.9155 14.016 31.749L18.6179 18.6782C18.6639 18.5421 18.71 18.3871 18.7559 18.213C18.8162 17.9102 18.847 17.6026 18.848 17.294C18.8448 17.2724 18.8468 17.2504 18.8538 17.2298C18.8608 17.2091 18.8726 17.1903 18.8882 17.1748C18.9038 17.1594 18.9229 17.1478 18.9438 17.1409C18.9648 17.134 18.9871 17.132 19.009 17.1351H22.6676C22.7748 17.1351 22.8361 17.173 22.8517 17.2487L28.0748 31.7717C28.1209 31.9231 28.0748 31.9989 27.9368 31.9987H24.9454C24.8941 32.0043 24.8424 31.9913 24.8001 31.9621C24.7577 31.9329 24.7276 31.8894 24.7154 31.8399L23.542 28.4813ZM19.0551 25.6221H22.6906L22.6388 25.4534L22.5556 25.1862L22.4962 24.9986L22.4015 24.7031L22.2001 24.0812L22.023 23.5297L21.563 22.0934C21.4485 21.7363 21.3387 21.3779 21.2334 21.0181L21.1493 20.726L21.0509 20.3808L20.9009 19.8456L20.8727 19.7448H20.8498C20.7347 20.2895 20.5945 20.8287 20.4296 21.3608L20.0883 22.4438L19.9004 23.0422L19.7108 23.6479C19.6765 23.7573 19.6425 23.8655 19.6083 23.9724L19.5065 24.2893L19.4052 24.5987L19.3044 24.9005L19.2042 25.1948C19.171 25.2917 19.1378 25.3872 19.1047 25.4815L19.0551 25.6221ZM31.1808 19.5405C30.9461 19.5498 30.7121 19.5101 30.494 19.4241C30.276 19.3381 30.0788 19.2076 29.9153 19.0413C29.7523 18.8677 29.6257 18.6641 29.5428 18.4421C29.4598 18.2201 29.4222 17.9842 29.432 17.7478C29.4237 17.5138 29.4655 17.2807 29.5547 17.0637C29.6439 16.8467 29.7785 16.6507 29.9497 16.4885C30.28 16.1758 30.7199 16.0008 31.1777 16L31.2268 16.0005C31.779 16.0005 32.2125 16.1631 32.5269 16.4884C32.6856 16.6574 32.809 16.8557 32.8899 17.0718C32.9709 17.2879 33.0078 17.5176 32.9986 17.7478C33.0082 17.9851 32.9694 18.2219 32.8844 18.4441C32.7994 18.6664 32.67 18.8695 32.5039 19.0414C32.3362 19.2045 32.137 19.3328 31.9182 19.4188C31.6995 19.5048 31.4654 19.5468 31.23 19.5422L31.1808 19.5405ZM29.5931 31.7717V20.9248C29.5931 20.7887 29.6542 20.7205 29.7772 20.7205H32.6075C32.7301 20.7205 32.7914 20.7885 32.7916 20.9248V31.7717C32.7916 31.9231 32.7302 31.9989 32.6075 31.9987H29.8002C29.6695 31.9987 29.6006 31.9308 29.5938 31.795L29.5931 31.7717Z" fill="black"/>
<path d="M22.542 26.4813H17.2268L16.1453 29.7944C16.1306 29.8549 16.0949 29.9083 16.0445 29.9456C15.9941 29.9829 15.9321 30.0017 15.8692 29.9987H13.177C13.0236 29.9987 12.9699 29.9155 13.016 29.749L17.6179 16.6782C17.6639 16.5421 17.71 16.3871 17.7559 16.213C17.8162 15.9102 17.847 15.6026 17.848 15.294C17.8448 15.2724 17.8468 15.2504 17.8538 15.2298C17.8608 15.2091 17.8726 15.1903 17.8882 15.1748C17.9038 15.1594 17.9229 15.1478 17.9438 15.1409C17.9648 15.134 17.9871 15.132 18.009 15.1351H21.6676C21.7748 15.1351 21.8361 15.173 21.8517 15.2487L27.0748 29.7717C27.1209 29.9231 27.0748 29.9989 26.9368 29.9987H23.9454C23.8941 30.0043 23.8424 29.9913 23.8001 29.9621C23.7577 29.9329 23.7276 29.8894 23.7154 29.8399L22.542 26.4813ZM18.0551 23.6221H21.6906L21.6388 23.4534L21.5556 23.1862L21.4962 22.9986L21.4015 22.7031L21.2001 22.0812L21.023 21.5297L20.563 20.0934C20.4485 19.7363 20.3387 19.3779 20.2334 19.0181L20.1493 18.726L20.0509 18.3808L19.9009 17.8456L19.8727 17.7448H19.8498C19.7347 18.2895 19.5945 18.8287 19.4296 19.3608L19.0883 20.4438L18.9004 21.0422L18.7108 21.6479C18.6765 21.7573 18.6425 21.8655 18.6083 21.9724L18.5065 22.2893L18.4052 22.5987L18.3044 22.9005L18.2042 23.1948C18.171 23.2917 18.1378 23.3872 18.1047 23.4815L18.0551 23.6221ZM30.1808 17.5405C29.9461 17.5498 29.7121 17.5101 29.494 17.4241C29.276 17.3381 29.0788 17.2076 28.9153 17.0413C28.7523 16.8677 28.6257 16.6641 28.5428 16.4421C28.4598 16.2201 28.4222 15.9842 28.432 15.7478C28.4237 15.5138 28.4655 15.2807 28.5547 15.0637C28.6439 14.8467 28.7785 14.6507 28.9497 14.4885C29.28 14.1758 29.7199 14.0008 30.1777 14L30.2268 14.0005C30.779 14.0005 31.2125 14.1631 31.5269 14.4884C31.6856 14.6574 31.809 14.8557 31.8899 15.0718C31.9709 15.2879 32.0078 15.5176 31.9986 15.7478C32.0082 15.9851 31.9694 16.2219 31.8844 16.4441C31.7994 16.6664 31.67 16.8695 31.5039 17.0414C31.3362 17.2045 31.137 17.3328 30.9182 17.4188C30.6995 17.5048 30.4654 17.5468 30.23 17.5422L30.1808 17.5405ZM28.5931 29.7717V18.9248C28.5931 18.7887 28.6542 18.7205 28.7772 18.7205H31.6075C31.7301 18.7205 31.7914 18.7885 31.7916 18.9248V29.7717C31.7916 29.9231 31.7302 29.9989 31.6075 29.9987H28.8002C28.6695 29.9987 28.6006 29.9308 28.5938 29.795L28.5931 29.7717Z" fill="#FF9A00"/>
</svg>
