<svg width="50" height="50" viewBox="0 0 50 50" fill="none" xmlns="http://www.w3.org/2000/svg">
<rect x="6.6875" y="6.6875" width="34.6875" height="33.75" fill="#F8E71B"/>
<path fill-rule="evenodd" clip-rule="evenodd" d="M7.625 7.625L7.625 4.8125H38.5625V7.625L41.375 7.625V35.75H38.5625V10.4375H35.75V7.625H7.625ZM7.625 7.625V35.75H4.8125V7.625H7.625Z" fill="#F8BE1B"/>
<path fill-rule="evenodd" clip-rule="evenodd" d="M38.5625 4.8125H41.375V7.625H38.5625V4.8125ZM41.375 41.375H44.1875V7.625H41.375V38.5625H38.5625V41.375H7.625V38.5625H4.8125V41.375H7.625V44.1875H41.375V41.375Z" fill="#E70000"/>
<path fill-rule="evenodd" clip-rule="evenodd" d="M4.8125 35.75H7.625V38.5625H4.8125V35.75ZM35.75 38.5625H7.625V41.375H38.5625V38.5625H41.375V35.75H35.75V38.5625Z" fill="#F9861D"/>
<path fill-rule="evenodd" clip-rule="evenodd" d="M41.375 2H7.625V4.8125H4.8125V7.625H2V41.375H4.8125V44.1875H7.625V47H41.375V44.1875H44.1875V41.375H47V7.625H44.1875V4.8125H41.375V2ZM41.375 4.8125V7.625H44.1875V41.375H41.375V44.1875H7.625V41.375H4.8125V7.625H7.625V4.8125H41.375Z" fill="black"/>
<path d="M16.0001 36.0616L18.617 34.4778C19.122 35.373 19.5812 36.1304 20.6829 36.1304C21.7388 36.1304 22.4048 35.7173 22.4048 34.1106V23.1838H25.6184V34.156C25.6184 37.4845 23.6672 38.9996 20.8206 38.9996C18.2498 38.9996 16.7575 37.6682 16 36.0613M27.3639 35.7172L29.9805 34.2022C30.6694 35.3271 31.5647 36.1535 33.1484 36.1535C34.4801 36.1535 35.3291 35.4877 35.3291 34.5695C35.3291 33.4677 34.4569 33.0773 32.9877 32.4348L32.1845 32.0902C29.8659 31.1034 28.3279 29.8637 28.3279 27.2469C28.3279 24.8365 30.1643 23 33.0338 23C35.0768 23 36.546 23.7117 37.6018 25.5711L35.0995 27.1781C34.5485 26.191 33.9519 25.8008 33.0337 25.8008C32.0924 25.8008 31.4956 26.3977 31.4956 27.1781C31.4956 28.1421 32.0924 28.5326 33.4697 29.1294L34.273 29.4737C37.0048 30.6445 38.5427 31.8381 38.5427 34.5236C38.5427 37.4162 36.2702 39 33.2172 39C30.2331 39 28.3048 37.5768 27.3637 35.7173" fill="black"/>
</svg>
