<svg width="50" height="50" viewBox="0 0 50 50" fill="none" xmlns="http://www.w3.org/2000/svg">
<rect x="6.6875" y="6.6875" width="34.6875" height="33.75" fill="#F8E71B"/>
<path fill-rule="evenodd" clip-rule="evenodd" d="M7.625 7.625L7.625 4.8125H38.5625V7.625L41.375 7.625V35.75H38.5625V10.4375H35.75V7.625H7.625ZM7.625 7.625V35.75H4.8125V7.625H7.625Z" fill="#F8BE1B"/>
<path fill-rule="evenodd" clip-rule="evenodd" d="M38.5625 4.8125H41.375V7.625H38.5625V4.8125ZM41.375 41.375H44.1875V7.625H41.375V38.5625H38.5625V41.375H7.625V38.5625H4.8125V41.375H7.625V44.1875H41.375V41.375Z" fill="#E70000"/>
<path fill-rule="evenodd" clip-rule="evenodd" d="M4.8125 35.75H7.625V38.5625H4.8125V35.75ZM35.75 38.5625H7.625V41.375H38.5625V38.5625H41.375V35.75H35.75V38.5625Z" fill="#F9861D"/>
<path fill-rule="evenodd" clip-rule="evenodd" d="M41.375 2H7.625V4.8125H4.8125V7.625H2V41.375H4.8125V44.1875H7.625V47H41.375V44.1875H44.1875V41.375H47V7.625H44.1875V4.8125H41.375V2ZM41.375 4.8125V7.625H44.1875V41.375H41.375V44.1875H7.625V41.375H4.8125V7.625H7.625V4.8125H41.375Z" fill="black"/>
<path d="M12.875 36.375V34.75H11.25V33.125H14.5V34.75H19.375V25H22.625V34.75H21V36.375H12.875ZM25.875 36.375V34.75H24.25V33.125H27.5V34.75H32.375V31.5H25.875V29.875H24.25V26.625H25.875V25H34V26.625H35.625V28.25H32.375V26.625H27.5V29.875H34V31.5H35.625V34.75H34V36.375H25.875Z" fill="white"/>
<path d="M12.875 36.375H9.875V39.375H12.875V36.375ZM12.875 34.75H15.875V31.75H12.875V34.75ZM11.25 34.75H8.25V37.75H11.25V34.75ZM11.25 33.125V30.125H8.25V33.125H11.25ZM14.5 33.125H17.5V30.125H14.5V33.125ZM14.5 34.75H11.5V37.75H14.5V34.75ZM19.375 34.75V37.75H22.375V34.75H19.375ZM19.375 25V22H16.375V25H19.375ZM22.625 25H25.625V22H22.625V25ZM22.625 34.75V37.75H25.625V34.75H22.625ZM21 34.75V31.75H18V34.75H21ZM21 36.375V39.375H24V36.375H21ZM15.875 36.375V34.75H9.875V36.375H15.875ZM12.875 31.75H11.25V37.75H12.875V31.75ZM14.25 34.75V33.125H8.25V34.75H14.25ZM11.25 36.125H14.5V30.125H11.25V36.125ZM11.5 33.125V34.75H17.5V33.125H11.5ZM14.5 37.75H19.375V31.75H14.5V37.75ZM22.375 34.75V25H16.375V34.75H22.375ZM19.375 28H22.625V22H19.375V28ZM19.625 25V34.75H25.625V25H19.625ZM22.625 31.75H21V37.75H22.625V31.75ZM18 34.75V36.375H24V34.75H18ZM21 33.375H12.875V39.375H21V33.375ZM25.875 36.375H22.875V39.375H25.875V36.375ZM25.875 34.75H28.875V31.75H25.875V34.75ZM24.25 34.75H21.25V37.75H24.25V34.75ZM24.25 33.125V30.125H21.25V33.125H24.25ZM27.5 33.125H30.5V30.125H27.5V33.125ZM27.5 34.75H24.5V37.75H27.5V34.75ZM32.375 34.75V37.75H35.375V34.75H32.375ZM32.375 31.5H35.375V28.5H32.375V31.5ZM25.875 31.5H22.875V34.5H25.875V31.5ZM25.875 29.875H28.875V26.875H25.875V29.875ZM24.25 29.875H21.25V32.875H24.25V29.875ZM24.25 26.625V23.625H21.25V26.625H24.25ZM25.875 26.625V29.625H28.875V26.625H25.875ZM25.875 25V22H22.875V25H25.875ZM34 25H37V22H34V25ZM34 26.625H31V29.625H34V26.625ZM35.625 26.625H38.625V23.625H35.625V26.625ZM35.625 28.25V31.25H38.625V28.25H35.625ZM32.375 28.25H29.375V31.25H32.375V28.25ZM32.375 26.625H35.375V23.625H32.375V26.625ZM27.5 26.625V23.625H24.5V26.625H27.5ZM27.5 29.875H24.5V32.875H27.5V29.875ZM34 29.875H37V26.875H34V29.875ZM34 31.5H31V34.5H34V31.5ZM35.625 31.5H38.625V28.5H35.625V31.5ZM35.625 34.75V37.75H38.625V34.75H35.625ZM34 34.75V31.75H31V34.75H34ZM34 36.375V39.375H37V36.375H34ZM28.875 36.375V34.75H22.875V36.375H28.875ZM25.875 31.75H24.25V37.75H25.875V31.75ZM27.25 34.75V33.125H21.25V34.75H27.25ZM24.25 36.125H27.5V30.125H24.25V36.125ZM24.5 33.125V34.75H30.5V33.125H24.5ZM27.5 37.75H32.375V31.75H27.5V37.75ZM35.375 34.75V31.5H29.375V34.75H35.375ZM32.375 28.5H25.875V34.5H32.375V28.5ZM28.875 31.5V29.875H22.875V31.5H28.875ZM25.875 26.875H24.25V32.875H25.875V26.875ZM27.25 29.875V26.625H21.25V29.875H27.25ZM24.25 29.625H25.875V23.625H24.25V29.625ZM28.875 26.625V25H22.875V26.625H28.875ZM25.875 28H34V22H25.875V28ZM31 25V26.625H37V25H31ZM34 29.625H35.625V23.625H34V29.625ZM32.625 26.625V28.25H38.625V26.625H32.625ZM35.625 25.25H32.375V31.25H35.625V25.25ZM35.375 28.25V26.625H29.375V28.25H35.375ZM32.375 23.625H27.5V29.625H32.375V23.625ZM24.5 26.625V29.875H30.5V26.625H24.5ZM27.5 32.875H34V26.875H27.5V32.875ZM31 29.875V31.5H37V29.875H31ZM34 34.5H35.625V28.5H34V34.5ZM32.625 31.5V34.75H38.625V31.5H32.625ZM35.625 31.75H34V37.75H35.625V31.75ZM31 34.75V36.375H37V34.75H31ZM34 33.375H25.875V39.375H34V33.375Z" fill="black"/>
</svg>
