<svg width="50" height="50" viewBox="0 0 50 50" fill="none" xmlns="http://www.w3.org/2000/svg">
<path d="M41 33.4432C40.9977 35.1808 40.6325 36.8461 39.9842 38.0748C39.336 39.3035 38.4574 39.9957 37.5406 40H8.4594C7.54261 39.9957 6.66403 39.3035 6.01576 38.0748C5.3675 36.8461 5.00229 35.1808 5 33.4432V12.5568C5.00229 10.8192 5.3675 9.15393 6.01576 7.92523C6.66403 6.69653 7.54261 6.00434 8.4594 6H37.5406C38.4574 6.00434 39.336 6.69653 39.9842 7.92523C40.6325 9.15393 40.9977 10.8192 41 12.5568V33.4432Z" fill="url(#paint0_linear_232_237)"/>
<path fill-rule="evenodd" clip-rule="evenodd" d="M7.625 7.625L7.625 4.8125H38.5625V7.625L41.375 7.625V35.75H38.5625V10.4375H35.75V7.625H7.625ZM7.625 7.625V35.75H4.8125V7.625H7.625Z" fill="#1036BC"/>
<path fill-rule="evenodd" clip-rule="evenodd" d="M38.5625 4.8125H41.375V7.625H38.5625V4.8125ZM41.375 41.375H44.1875V7.625H41.375V38.5625H38.5625V41.375H7.625V38.5625H4.8125V41.375H7.625V44.1875H41.375V41.375Z" fill="#001F8A"/>
<path fill-rule="evenodd" clip-rule="evenodd" d="M4.8125 35.75H7.625V38.5625H4.8125V35.75ZM35.75 38.5625H7.625V41.375H38.5625V38.5625H41.375V35.75H35.75V38.5625Z" fill="#1E42C0"/>
<path fill-rule="evenodd" clip-rule="evenodd" d="M41.375 2H7.625V4.8125H4.8125V7.625H2V41.375H4.8125V44.1875H7.625V47H41.375V44.1875H44.1875V41.375H47V7.625H44.1875V4.8125H41.375V2ZM41.375 4.8125V7.625H44.1875V41.375H41.375V44.1875H7.625V41.375H4.8125V7.625H7.625V4.8125H41.375Z" fill="black"/>
<path d="M31.349 23.0489C31.7876 23.1382 32.1827 23.3741 32.4695 23.7178C32.7563 24.0614 32.9176 24.4924 32.927 24.9399C32.9372 25.2084 32.8834 25.4754 32.7698 25.7189C32.6562 25.9624 32.4863 26.1753 32.274 26.3399C31.7349 26.7324 31.0781 26.9296 30.412 26.8989C29.6241 26.8901 28.852 26.6771 28.171 26.2809C28.185 26.0503 28.2391 25.8239 28.331 25.6119C28.411 25.3999 28.5296 25.2046 28.681 25.0359C29.1842 25.3276 29.7492 25.4965 30.33 25.5289C30.507 25.5392 30.6835 25.5004 30.84 25.4169C30.894 25.3877 30.9392 25.3444 30.9705 25.2916C31.0019 25.2387 31.0183 25.1784 31.018 25.1169C31.018 24.8816 30.836 24.7052 30.472 24.5879L29.819 24.3409C28.831 23.9809 28.337 23.3936 28.337 22.5789C28.3256 22.311 28.3758 22.044 28.4838 21.7985C28.5918 21.553 28.7547 21.3356 28.96 21.1629C29.4238 20.7532 30.0191 20.5232 30.638 20.5149C31.0256 20.52 31.4115 20.5693 31.788 20.6619C32.1503 20.7756 32.497 20.9342 32.82 21.1339C32.8308 21.3812 32.7863 21.6279 32.69 21.8559C32.6183 22.074 32.4866 22.2674 32.31 22.4139C31.7927 22.154 31.2279 22.0023 30.65 21.9679C30.5205 21.9589 30.3921 21.9965 30.288 22.0739C30.2481 22.1065 30.2162 22.1478 30.1947 22.1946C30.1732 22.2414 30.1627 22.2924 30.164 22.3439C30.164 22.5319 30.3143 22.6806 30.615 22.7899L31.351 23.0489H31.349ZM26.1 23.0489C26.5384 23.1384 26.9333 23.3744 27.2199 23.718C27.5064 24.0617 27.6676 24.4926 27.677 24.9399C27.6873 25.2083 27.6335 25.4752 27.5201 25.7187C27.4068 25.9622 27.237 26.1751 27.025 26.3399C26.4858 26.7322 25.8291 26.9294 25.163 26.8989C24.3751 26.89 23.603 26.6771 22.922 26.2809C22.9359 26.0503 22.99 25.8239 23.082 25.6119C23.1618 25.3998 23.2805 25.2045 23.432 25.0359C23.9352 25.3276 24.5002 25.4965 25.081 25.5289C25.258 25.5393 25.4345 25.5005 25.591 25.4169C25.645 25.3877 25.69 25.3443 25.7214 25.2915C25.7527 25.2387 25.7692 25.1783 25.769 25.1169C25.769 24.8816 25.587 24.7052 25.223 24.5879L24.57 24.3409C23.582 23.9809 23.088 23.3936 23.088 22.5789C23.0765 22.311 23.1267 22.0439 23.2347 21.7984C23.3427 21.5529 23.5057 21.3355 23.711 21.1629C24.1744 20.7532 24.7694 20.5233 25.388 20.5149C25.7757 20.5199 26.1615 20.5693 26.538 20.6619C26.9003 20.7756 27.247 20.9342 27.57 21.1339C27.5808 21.3812 27.5363 21.6279 27.44 21.8559C27.3683 22.074 27.2366 22.2674 27.06 22.4139C26.5424 22.1539 25.9772 22.0022 25.399 21.9679C25.2695 21.9589 25.1411 21.9965 25.037 22.0739C24.9972 22.1066 24.9653 22.1478 24.9438 22.1946C24.9223 22.2414 24.9118 22.2925 24.913 22.3439C24.913 22.5319 25.0633 22.6806 25.364 22.7899L26.1 23.0489ZM22.264 23.1319C22.2675 22.7909 22.2093 22.4521 22.092 22.1319C21.9847 21.8381 21.8171 21.57 21.6 21.3449C21.3794 21.1208 21.1148 20.9448 20.823 20.8279C20.505 20.6566 20.1563 20.5499 19.797 20.5139C19.3817 20.545 18.9786 20.6683 18.617 20.8749C18.2933 21.0218 18.0089 21.2432 17.787 21.5209C17.5623 21.8086 17.3967 22.1379 17.3 22.4899C17.1901 22.8858 17.1363 23.2951 17.14 23.7059C17.1364 24.1284 17.18 24.5501 17.27 24.9629C17.3465 25.3238 17.4981 25.6645 17.715 25.9629C17.9279 26.2474 18.2093 26.4734 18.533 26.6199C18.9245 26.8033 19.3517 26.8978 19.784 26.8969C20.6142 26.9096 21.4273 26.6605 22.108 26.1849C22.0684 25.7816 21.8985 25.4021 21.624 25.1039C21.345 25.2118 21.0586 25.2994 20.767 25.3659C20.5516 25.4148 20.3318 25.4412 20.111 25.4449C19.9622 25.4595 19.812 25.441 19.6711 25.3909C19.5302 25.3408 19.4021 25.2602 19.296 25.1549C19.1174 24.9384 19.0214 24.6655 19.025 24.3849H22.108C22.2193 23.9768 22.2718 23.5549 22.264 23.1319ZM19.016 23.2129C19.0169 22.8679 19.0912 22.527 19.234 22.2129C19.2967 22.1247 19.3811 22.0541 19.479 22.0079C19.5769 21.9617 19.685 21.9414 19.793 21.9489C19.906 21.942 20.0189 21.9644 20.1209 22.0137C20.2228 22.0631 20.3103 22.1379 20.375 22.2309C20.5113 22.4951 20.5781 22.7897 20.569 23.0869V23.2169H19.016V23.2129Z" fill="#F6F6F6"/>
<path d="M36.18 23.9989C36.0037 24.1575 35.8647 24.3532 35.7731 24.5719C35.6814 24.7907 35.6394 25.027 35.65 25.2639V27.3149C35.6724 27.6105 35.6218 27.9071 35.5027 28.1786C35.3836 28.4501 35.1996 28.6882 34.967 28.8719C34.4881 29.2262 33.9087 29.4185 33.313 29.4209H32.94V28.3929C33.1656 28.3394 33.3718 28.2236 33.535 28.0589C33.6752 27.9242 33.7851 27.7611 33.8573 27.5806C33.9296 27.4 33.9625 27.2062 33.954 27.0119V25.3549C33.9192 24.8988 34.008 24.4418 34.211 24.0319C34.5184 23.6391 34.9364 23.3473 35.411 23.1939C34.8418 22.9736 34.3715 22.5548 34.087 22.0149C33.9646 21.6395 33.9187 21.2434 33.952 20.8499V19.3319C33.9746 18.9459 33.8429 18.5668 33.586 18.2779C33.4091 18.1067 33.182 17.9966 32.938 17.9639V17.0039H33.866C34.2474 17.0302 34.6084 17.1862 34.889 17.4459C35.2124 17.7045 35.4475 18.057 35.562 18.4549C35.626 18.6825 35.655 18.9186 35.648 19.1549V20.9119C35.6321 21.1644 35.6683 21.4174 35.7543 21.6553C35.8403 21.8933 35.9743 22.1109 36.148 22.2949C36.3912 22.5192 36.6838 22.6833 37.002 22.7739V23.5679C36.6984 23.6419 36.4171 23.788 36.182 23.9939L36.18 23.9989ZM12.594 17.0049H12.26C11.8785 17.031 11.5175 17.187 11.237 17.4469C10.8969 17.6897 10.6575 18.0486 10.564 18.4559C10.5281 18.6874 10.5154 18.9219 10.526 19.1559V20.9129C10.5351 21.169 10.4914 21.4242 10.3977 21.6626C10.3039 21.901 10.1621 22.1176 9.981 22.2989C9.6878 22.5197 9.35469 22.6816 9 22.7759V23.5689C9.34153 23.6445 9.66386 23.7895 9.947 23.9949C10.1301 24.1505 10.2767 24.3445 10.3764 24.5631C10.4761 24.7818 10.5265 25.0196 10.524 25.2599V27.3109C10.4934 27.6029 10.5354 27.8979 10.6464 28.1698C10.7573 28.4416 10.9338 28.6818 11.16 28.8689C11.6388 29.2235 12.2182 29.4162 12.814 29.4189H13.235V28.3929C12.9962 28.337 12.7751 28.2221 12.592 28.0589C12.4597 27.9205 12.3582 27.7556 12.2943 27.5752C12.2303 27.3947 12.2054 27.2027 12.221 27.0119V25.3559C12.2425 24.8953 12.137 24.4376 11.916 24.0329C11.6086 23.6401 11.1906 23.3483 10.716 23.1949C11.285 22.9748 11.7552 22.5564 12.04 22.0169C12.1814 21.6455 12.2437 21.2487 12.223 20.8519V19.3329C12.1873 18.9537 12.3011 18.5755 12.54 18.2789C12.7066 18.1428 12.904 18.0498 13.115 18.0079H13.543V17.0049H12.594Z" fill="#F6F6F6"/>
<path d="M16.537 25.328H16.217C15.869 25.328 15.738 25.145 15.738 24.777V18.018C15.757 17.7094 15.6616 17.4046 15.47 17.162C15.32 16.998 15.059 17 14.687 17H13.879V25.106C13.8461 25.5479 13.9708 25.9873 14.231 26.346C14.3819 26.4906 14.5625 26.6007 14.7602 26.6686C14.9579 26.7364 15.168 26.7605 15.376 26.739C15.8015 26.7341 16.2258 26.6946 16.645 26.621C16.6764 26.4533 16.6885 26.2825 16.681 26.112C16.6798 25.845 16.6317 25.5803 16.539 25.33L16.537 25.328Z" fill="#F6F6F6"/>
<defs>
<linearGradient id="paint0_linear_232_237" x1="23.0007" y1="6" x2="23.0007" y2="40" gradientUnits="userSpaceOnUse">
<stop offset="0.15" stop-color="#2A4F84"/>
<stop offset="0.388" stop-color="#294E82"/>
<stop offset="1" stop-color="#172E4E"/>
</linearGradient>
</defs>
</svg>
