<svg width="50" height="50" viewBox="0 0 50 50" fill="none" xmlns="http://www.w3.org/2000/svg">
<rect x="6.6875" y="6.6875" width="34.6875" height="33.75" fill="white"/>
<path fill-rule="evenodd" clip-rule="evenodd" d="M7.625 7.625L7.625 4.8125H38.5625V7.625L41.375 7.625V35.75H38.5625V10.4375H35.75V7.625H7.625ZM7.625 7.625V35.75H4.8125V7.625H7.625Z" fill="#83CD29"/>
<path fill-rule="evenodd" clip-rule="evenodd" d="M38.5625 4.8125H41.375V7.625H38.5625V4.8125ZM41.375 41.375H44.1875V7.625H41.375V38.5625H38.5625V41.375H7.625V38.5625H4.8125V41.375H7.625V44.1875H41.375V41.375Z" fill="#41893F"/>
<path fill-rule="evenodd" clip-rule="evenodd" d="M4.8125 35.75H7.625V38.5625H4.8125V35.75ZM35.75 38.5625H7.625V41.375H38.5625V38.5625H41.375V35.75H35.75V38.5625Z" fill="#5DBB5A"/>
<path fill-rule="evenodd" clip-rule="evenodd" d="M41.375 2H7.625V4.8125H4.8125V7.625H2V41.375H4.8125V44.1875H7.625V47H41.375V44.1875H44.1875V41.375H47V7.625H44.1875V4.8125H41.375V2ZM41.375 4.8125V7.625H44.1875V41.375H41.375V44.1875H7.625V41.375H4.8125V7.625H7.625V4.8125H41.375Z" fill="black"/>
<path d="M15.1335 22.8495C15.1335 22.7333 15.0689 22.6235 14.9657 22.5654L12.2282 20.99C12.1829 20.9642 12.1313 20.9513 12.0797 20.9448H12.0538C12.0022 20.9448 11.9505 20.9642 11.9053 20.99L9.16787 22.5654C9.06452 22.6235 9 22.7332 9 22.8495L9.00648 27.0848C9.00648 27.1429 9.03877 27.201 9.09039 27.2268C9.14206 27.2591 9.20658 27.2591 9.25183 27.2268L10.8788 26.2971C10.9821 26.239 11.0467 26.1293 11.0467 26.0131V24.031C11.0467 23.9148 11.1112 23.805 11.2146 23.7469L11.9053 23.3466C11.957 23.3143 12.0151 23.3013 12.0732 23.3013C12.1313 23.3013 12.1894 23.3143 12.2347 23.3466L12.9254 23.7469C13.0288 23.805 13.0933 23.9147 13.0933 24.031V26.0131C13.0933 26.1293 13.1579 26.239 13.2612 26.2971L14.8882 27.2268C14.9133 27.2427 14.9424 27.2511 14.9721 27.2511C15.0018 27.2511 15.0309 27.2427 15.056 27.2268C15.1077 27.201 15.14 27.1429 15.14 27.0848L15.1335 22.8495ZM28.2915 17.0194C28.2399 16.9935 28.1753 16.9935 28.1301 17.0194C28.0784 17.0517 28.0462 17.1033 28.0462 17.1614V21.3581C28.0462 21.3968 28.0268 21.4355 27.9881 21.4613C27.9494 21.4807 27.9106 21.4807 27.8719 21.4613L27.1875 21.0675C27.1373 21.039 27.0806 21.0239 27.0228 21.0239C26.9651 21.0239 26.9084 21.039 26.8582 21.0675L24.1207 22.6493C24.0174 22.7074 23.9528 22.8172 23.9528 22.9334V26.0905C23.9528 26.2067 24.0174 26.3165 24.1207 26.3746L26.8582 27.9564C26.9084 27.985 26.9651 28 27.0228 28C27.0806 28 27.1373 27.985 27.1875 27.9564L29.925 26.3746C30.0283 26.3165 30.0928 26.2067 30.0928 26.0905V18.2203C30.0928 18.0976 30.0283 17.9879 29.925 17.9297L28.2915 17.0194ZM28.0397 25.0511C28.0397 25.0834 28.0268 25.1092 28.001 25.1221L27.0648 25.6644C27.0518 25.6708 27.0374 25.6741 27.0228 25.6741C27.0083 25.6741 26.9939 25.6708 26.9809 25.6644L26.0447 25.1221C26.0189 25.1092 26.006 25.0769 26.006 25.0511V23.9664C26.006 23.9341 26.0189 23.9083 26.0447 23.8954L26.9809 23.353C26.9939 23.3466 27.0083 23.3433 27.0228 23.3433C27.0374 23.3433 27.0518 23.3466 27.0648 23.353L28.001 23.8954C28.0268 23.9082 28.0397 23.9406 28.0397 23.9664V25.0511ZM37.4014 23.9406C37.5047 23.8825 37.5628 23.7727 37.5628 23.6565V22.8882C37.5628 22.772 37.4982 22.6622 37.4014 22.6041L34.6833 21.0288C34.6331 21.0002 34.5764 20.9852 34.5186 20.9852C34.4609 20.9852 34.4041 21.0002 34.354 21.0288L31.6165 22.6105C31.5131 22.6686 31.4486 22.7784 31.4486 22.8946V26.0518C31.4486 26.168 31.5132 26.2777 31.6165 26.3358L34.3346 27.8854C34.4379 27.9434 34.5606 27.9434 34.6575 27.8854L36.3038 26.9687C36.3555 26.9428 36.3877 26.8847 36.3877 26.8266C36.3877 26.7685 36.3555 26.7104 36.3038 26.6845L33.5534 25.1027C33.5017 25.0704 33.4694 25.0188 33.4694 24.9607V23.9729C33.4694 23.9148 33.5017 23.8567 33.5534 23.8309L34.4121 23.3402C34.4372 23.3243 34.4663 23.316 34.496 23.316C34.5257 23.316 34.5548 23.3243 34.5799 23.3402L35.4386 23.8309C35.4903 23.8632 35.5226 23.9148 35.5226 23.9729V24.7477C35.5226 24.8058 35.5548 24.8639 35.6065 24.8897C35.6316 24.9055 35.6607 24.9139 35.6904 24.9139C35.7201 24.9139 35.7492 24.9055 35.7744 24.8897L37.4014 23.9406Z" fill="black"/>
<path d="M34.4767 23.792C34.4863 23.7857 34.4975 23.7823 34.509 23.7823C34.5205 23.7823 34.5317 23.7857 34.5413 23.792L35.0643 24.0955C35.0836 24.1084 35.0965 24.1278 35.0965 24.1536V24.7605C35.0965 24.7863 35.0837 24.8057 35.0643 24.8186L34.5413 25.1221C34.5317 25.1284 34.5205 25.1317 34.509 25.1317C34.4975 25.1317 34.4863 25.1284 34.4767 25.1221L33.9538 24.8186C33.9344 24.8057 33.9215 24.7863 33.9215 24.7605V24.1536C33.9215 24.1278 33.9344 24.1084 33.9538 24.0955L34.4767 23.792Z" fill="black"/>
<path d="M19.7111 21.0416C19.6609 21.0131 19.6042 20.998 19.5465 20.998C19.4888 20.998 19.432 21.0131 19.3819 21.0416L16.6638 22.6104C16.5604 22.6685 16.5023 22.7783 16.5023 22.8945V26.0387C16.5023 26.1549 16.5669 26.2647 16.6638 26.3228L19.3819 27.8917C19.432 27.9202 19.4888 27.9353 19.5465 27.9353C19.6042 27.9353 19.6609 27.9202 19.7111 27.8917L22.4293 26.3228C22.5325 26.2647 22.5907 26.1549 22.5907 26.0387V22.8945C22.5907 22.7783 22.5261 22.6686 22.4293 22.6105L19.7111 21.0416Z" fill="url(#paint0_linear_231_557)"/>
<path d="M15.1335 21.8495C15.1335 21.7333 15.0689 21.6235 14.9657 21.5654L12.2282 19.99C12.1829 19.9642 12.1313 19.9513 12.0797 19.9448H12.0538C12.0022 19.9448 11.9505 19.9642 11.9053 19.99L9.16787 21.5654C9.06452 21.6235 9 21.7332 9 21.8495L9.00648 26.0848C9.00648 26.1429 9.03877 26.201 9.09039 26.2268C9.14206 26.2591 9.20658 26.2591 9.25183 26.2268L10.8788 25.2971C10.9821 25.239 11.0467 25.1293 11.0467 25.0131V23.031C11.0467 22.9148 11.1112 22.805 11.2146 22.7469L11.9053 22.3466C11.957 22.3143 12.0151 22.3013 12.0732 22.3013C12.1313 22.3013 12.1894 22.3143 12.2347 22.3466L12.9254 22.7469C13.0288 22.805 13.0933 22.9147 13.0933 23.031V25.0131C13.0933 25.1293 13.1579 25.239 13.2612 25.2971L14.8882 26.2268C14.9133 26.2427 14.9424 26.2511 14.9721 26.2511C15.0018 26.2511 15.0309 26.2427 15.056 26.2268C15.1077 26.201 15.14 26.1429 15.14 26.0848L15.1335 21.8495ZM28.2915 16.0194C28.2399 15.9935 28.1753 15.9935 28.1301 16.0194C28.0784 16.0517 28.0462 16.1033 28.0462 16.1614V20.3581C28.0462 20.3968 28.0268 20.4355 27.9881 20.4613C27.9494 20.4807 27.9106 20.4807 27.8719 20.4613L27.1875 20.0675C27.1373 20.039 27.0806 20.0239 27.0228 20.0239C26.9651 20.0239 26.9084 20.039 26.8582 20.0675L24.1207 21.6493C24.0174 21.7074 23.9528 21.8172 23.9528 21.9334V25.0905C23.9528 25.2067 24.0174 25.3165 24.1207 25.3746L26.8582 26.9564C26.9084 26.985 26.9651 27 27.0228 27C27.0806 27 27.1373 26.985 27.1875 26.9564L29.925 25.3746C30.0283 25.3165 30.0928 25.2067 30.0928 25.0905V17.2203C30.0928 17.0976 30.0283 16.9879 29.925 16.9297L28.2915 16.0194ZM28.0397 24.0511C28.0397 24.0834 28.0268 24.1092 28.001 24.1221L27.0648 24.6644C27.0518 24.6708 27.0374 24.6741 27.0228 24.6741C27.0083 24.6741 26.9939 24.6708 26.9809 24.6644L26.0447 24.1221C26.0189 24.1092 26.006 24.0769 26.006 24.0511V22.9664C26.006 22.9341 26.0189 22.9083 26.0447 22.8954L26.9809 22.353C26.9939 22.3466 27.0083 22.3433 27.0228 22.3433C27.0374 22.3433 27.0518 22.3466 27.0648 22.353L28.001 22.8954C28.0268 22.9082 28.0397 22.9406 28.0397 22.9664V24.0511ZM37.4014 22.9406C37.5047 22.8825 37.5628 22.7727 37.5628 22.6565V21.8882C37.5628 21.772 37.4982 21.6622 37.4014 21.6041L34.6833 20.0288C34.6331 20.0002 34.5764 19.9852 34.5186 19.9852C34.4609 19.9852 34.4041 20.0002 34.354 20.0288L31.6165 21.6105C31.5131 21.6686 31.4486 21.7784 31.4486 21.8946V25.0518C31.4486 25.168 31.5132 25.2777 31.6165 25.3358L34.3346 26.8854C34.4379 26.9434 34.5606 26.9434 34.6575 26.8854L36.3038 25.9687C36.3555 25.9428 36.3877 25.8847 36.3877 25.8266C36.3877 25.7685 36.3555 25.7104 36.3038 25.6845L33.5534 24.1027C33.5017 24.0704 33.4694 24.0188 33.4694 23.9607V22.9729C33.4694 22.9148 33.5017 22.8567 33.5534 22.8309L34.4121 22.3402C34.4372 22.3243 34.4663 22.316 34.496 22.316C34.5257 22.316 34.5548 22.3243 34.5799 22.3402L35.4386 22.8309C35.4903 22.8632 35.5226 22.9148 35.5226 22.9729V23.7477C35.5226 23.8058 35.5548 23.8639 35.6065 23.8897C35.6316 23.9055 35.6607 23.9139 35.6904 23.9139C35.7201 23.9139 35.7492 23.9055 35.7744 23.8897L37.4014 22.9406Z" fill="#333333"/>
<path d="M34.4767 22.792C34.4863 22.7857 34.4975 22.7823 34.509 22.7823C34.5205 22.7823 34.5317 22.7857 34.5413 22.792L35.0643 23.0955C35.0836 23.1084 35.0965 23.1278 35.0965 23.1536V23.7605C35.0965 23.7863 35.0837 23.8057 35.0643 23.8186L34.5413 24.1221C34.5317 24.1284 34.5205 24.1317 34.509 24.1317C34.4975 24.1317 34.4863 24.1284 34.4767 24.1221L33.9538 23.8186C33.9344 23.8057 33.9215 23.7863 33.9215 23.7605V23.1536C33.9215 23.1278 33.9344 23.1084 33.9538 23.0955L34.4767 22.792Z" fill="#539E43"/>
<path d="M19.7111 20.0416C19.6609 20.0131 19.6042 19.998 19.5465 19.998C19.4888 19.998 19.432 20.0131 19.3819 20.0416L16.6638 21.6104C16.5604 21.6685 16.5023 21.7783 16.5023 21.8945V25.0387C16.5023 25.1549 16.5669 25.2647 16.6638 25.3228L19.3819 26.8917C19.432 26.9202 19.4888 26.9353 19.5465 26.9353C19.6042 26.9353 19.6609 26.9202 19.7111 26.8917L22.4293 25.3228C22.5325 25.2647 22.5907 25.1549 22.5907 25.0387V21.8945C22.5907 21.7783 22.5261 21.6686 22.4293 21.6105L19.7111 20.0416Z" fill="url(#paint1_linear_231_557)"/>
<defs>
<linearGradient id="paint0_linear_231_557" x1="20.6539" y1="22.2112" x2="17.6746" y2="26.8925" gradientUnits="userSpaceOnUse">
<stop/>
<stop offset="0.3288"/>
<stop offset="0.6352"/>
<stop offset="0.9319"/>
<stop offset="1"/>
</linearGradient>
<linearGradient id="paint1_linear_231_557" x1="20.6539" y1="21.2112" x2="17.6746" y2="25.8925" gradientUnits="userSpaceOnUse">
<stop stop-color="#41873F"/>
<stop offset="0.3288" stop-color="#418B3D"/>
<stop offset="0.6352" stop-color="#419637"/>
<stop offset="0.9319" stop-color="#3FA92D"/>
<stop offset="1" stop-color="#3FAE2A"/>
</linearGradient>
</defs>
</svg>
