<svg width="50" height="50" viewBox="0 0 50 50" fill="none" xmlns="http://www.w3.org/2000/svg">
<rect x="6.6875" y="6.6875" width="34.6875" height="33.75" fill="#001E36"/>
<path fill-rule="evenodd" clip-rule="evenodd" d="M7.625 7.625L7.625 4.8125H38.5625V7.625L41.375 7.625V35.75H38.5625V10.4375H35.75V7.625H7.625ZM7.625 7.625V35.75H4.8125V7.625H7.625Z" fill="#31A8FF"/>
<path fill-rule="evenodd" clip-rule="evenodd" d="M38.5625 4.8125H41.375V7.625H38.5625V4.8125ZM41.375 41.375H44.1875V7.625H41.375V38.5625H38.5625V41.375H7.625V38.5625H4.8125V41.375H7.625V44.1875H41.375V41.375Z" fill="#006EBE"/>
<path fill-rule="evenodd" clip-rule="evenodd" d="M4.8125 35.75H7.625V38.5625H4.8125V35.75ZM35.75 38.5625H7.625V41.375H38.5625V38.5625H41.375V35.75H35.75V38.5625Z" fill="#0093FF"/>
<path fill-rule="evenodd" clip-rule="evenodd" d="M41.375 2H7.625V4.8125H4.8125V7.625H2V41.375H4.8125V44.1875H7.625V47H41.375V44.1875H44.1875V41.375H47V7.625H44.1875V4.8125H41.375V2ZM41.375 4.8125V7.625H44.1875V41.375H41.375V44.1875H7.625V41.375H4.8125V7.625H7.625V4.8125H41.375Z" fill="black"/>
<path d="M14 31.4962V16.2518C14 16.1481 14.0444 16.0889 14.1482 16.0889C14.4 16.0889 14.6371 16.0889 14.9778 16.074C15.3333 16.0592 15.7038 16.0592 16.1038 16.0444C16.5038 16.0296 16.9333 16.0296 17.3926 16.0147C17.8518 16 18.2963 16 18.7407 16C19.9556 16 20.9629 16.1481 21.7926 16.4592C22.5363 16.7117 23.2144 17.1267 23.7778 17.674C24.2551 18.153 24.624 18.729 24.8593 19.3629C25.0815 19.9851 25.2 20.6222 25.2 21.2889C25.2 22.5629 24.9037 23.6147 24.3111 24.4444C23.7185 25.274 22.8889 25.8962 21.926 26.2518C20.9185 26.6222 19.8074 26.7556 18.5926 26.7556C18.2371 26.7556 18 26.7556 17.8518 26.7407C17.7038 26.7258 17.4963 26.7258 17.2149 26.7258V31.4814C17.2296 31.5851 17.1556 31.674 17.0518 31.6889H14.1778C14.0593 31.6889 14 31.6296 14 31.4962ZM17.2296 18.9481V23.9258C17.4371 23.9407 17.6296 23.9556 17.8074 23.9556H18.5926C19.1704 23.9556 19.7482 23.8667 20.2962 23.6889C20.7704 23.5556 21.1851 23.274 21.5111 22.9036C21.8222 22.5333 21.9704 22.0296 21.9704 21.3778C21.9843 20.9148 21.8661 20.4574 21.6296 20.0592C21.3778 19.674 21.0222 19.3778 20.5926 19.2147C20.0444 18.9925 19.4518 18.9036 18.8444 18.9185C18.4593 18.9185 18.1185 18.9185 17.8371 18.9333C17.5407 18.9185 17.3333 18.9333 17.2296 18.9481ZM34.4444 23.0222C34 22.7851 33.526 22.6222 33.0222 22.5185C32.474 22.4 31.926 22.3258 31.3629 22.3258C31.0667 22.3111 30.7556 22.3556 30.474 22.4296C30.2815 22.474 30.1185 22.5778 30.0149 22.7258C29.9407 22.8444 29.8962 22.9925 29.8962 23.1258C29.8962 23.2592 29.9556 23.3925 30.0444 23.5111C30.1778 23.674 30.3556 23.8074 30.5482 23.9111C30.8917 24.089 31.2426 24.2521 31.6 24.4C32.4 24.6667 33.1704 25.0369 33.8815 25.4814C34.3704 25.7925 34.7704 26.2074 35.0518 26.7111C35.2889 27.1851 35.4074 27.7036 35.3926 28.2369C35.4074 28.9333 35.2 29.6296 34.8149 30.2074C34.4016 30.7987 33.825 31.2569 33.1556 31.5258C32.4296 31.8369 31.5407 32 30.474 32C29.7926 32 29.126 31.9407 28.4593 31.8074C27.9368 31.7171 27.4286 31.5577 26.9482 31.3333C26.8444 31.274 26.7704 31.1703 26.7851 31.0518V28.474C26.7851 28.4296 26.8 28.3703 26.8444 28.3407C26.8889 28.3111 26.9333 28.3258 26.9778 28.3556C27.5556 28.6962 28.1629 28.9333 28.8149 29.0814C29.3778 29.2296 29.9704 29.3036 30.5629 29.3036C31.126 29.3036 31.526 29.2296 31.7926 29.0962C32.0296 28.9925 32.1926 28.7407 32.1926 28.474C32.1926 28.2667 32.074 28.074 31.8371 27.8814C31.6 27.6889 31.1111 27.4667 30.3851 27.1851C29.6405 26.9227 28.9333 26.5641 28.2815 26.1185C27.8173 25.7876 27.4326 25.3574 27.1556 24.8592C26.9185 24.3851 26.8 23.8667 26.8149 23.3481C26.8149 22.7111 26.9926 22.1036 27.3185 21.5556C27.6889 20.9629 28.2371 20.4889 28.874 20.1925C29.5704 19.8369 30.4444 19.674 31.4962 19.674C32.1037 19.674 32.726 19.7185 33.3333 19.8074C33.7778 19.8667 34.2074 19.9851 34.6074 20.1481C34.6667 20.1629 34.726 20.2222 34.7556 20.2814C34.7704 20.3407 34.7851 20.4 34.7851 20.4592V22.874C34.7851 22.9333 34.7556 22.9925 34.7111 23.0222C34.5778 23.0518 34.5038 23.0518 34.4444 23.0222Z" fill="black"/>
<path d="M13 29.4962V14.2518C13 14.1481 13.0444 14.0889 13.1482 14.0889C13.4 14.0889 13.6371 14.0889 13.9778 14.074C14.3333 14.0592 14.7038 14.0592 15.1038 14.0444C15.5038 14.0296 15.9333 14.0296 16.3926 14.0147C16.8518 14 17.2963 14 17.7407 14C18.9556 14 19.9629 14.1481 20.7926 14.4592C21.5363 14.7117 22.2144 15.1267 22.7778 15.674C23.2551 16.153 23.624 16.729 23.8593 17.3629C24.0815 17.9851 24.2 18.6222 24.2 19.2889C24.2 20.5629 23.9037 21.6147 23.3111 22.4444C22.7185 23.274 21.8889 23.8962 20.926 24.2518C19.9185 24.6222 18.8074 24.7556 17.5926 24.7556C17.2371 24.7556 17 24.7556 16.8518 24.7407C16.7038 24.7258 16.4963 24.7258 16.2149 24.7258V29.4814C16.2296 29.5851 16.1556 29.674 16.0518 29.6889H13.1778C13.0593 29.6889 13 29.6296 13 29.4962ZM16.2296 16.9481V21.9258C16.4371 21.9407 16.6296 21.9556 16.8074 21.9556H17.5926C18.1704 21.9556 18.7482 21.8667 19.2962 21.6889C19.7704 21.5556 20.1851 21.274 20.5111 20.9036C20.8222 20.5333 20.9704 20.0296 20.9704 19.3778C20.9843 18.9148 20.8661 18.4574 20.6296 18.0592C20.3778 17.674 20.0222 17.3778 19.5926 17.2147C19.0444 16.9925 18.4518 16.9036 17.8444 16.9185C17.4593 16.9185 17.1185 16.9185 16.8371 16.9333C16.5407 16.9185 16.3333 16.9333 16.2296 16.9481ZM33.4444 21.0222C33 20.7851 32.526 20.6222 32.0222 20.5185C31.474 20.4 30.926 20.3258 30.3629 20.3258C30.0667 20.3111 29.7556 20.3556 29.474 20.4296C29.2815 20.474 29.1185 20.5778 29.0149 20.7258C28.9407 20.8444 28.8962 20.9925 28.8962 21.1258C28.8962 21.2592 28.9556 21.3925 29.0444 21.5111C29.1778 21.674 29.3556 21.8074 29.5482 21.9111C29.8917 22.089 30.2426 22.2521 30.6 22.4C31.4 22.6667 32.1704 23.0369 32.8815 23.4814C33.3704 23.7925 33.7704 24.2074 34.0518 24.7111C34.2889 25.1851 34.4074 25.7036 34.3926 26.2369C34.4074 26.9333 34.2 27.6296 33.8149 28.2074C33.4016 28.7987 32.825 29.2569 32.1556 29.5258C31.4296 29.8369 30.5407 30 29.474 30C28.7926 30 28.126 29.9407 27.4593 29.8074C26.9368 29.7171 26.4286 29.5577 25.9482 29.3333C25.8444 29.274 25.7704 29.1703 25.7851 29.0518V26.474C25.7851 26.4296 25.8 26.3703 25.8444 26.3407C25.8889 26.3111 25.9333 26.3258 25.9778 26.3556C26.5556 26.6962 27.1629 26.9333 27.8149 27.0814C28.3778 27.2296 28.9704 27.3036 29.5629 27.3036C30.126 27.3036 30.526 27.2296 30.7926 27.0962C31.0296 26.9925 31.1926 26.7407 31.1926 26.474C31.1926 26.2667 31.074 26.074 30.8371 25.8814C30.6 25.6889 30.1111 25.4667 29.3851 25.1851C28.6405 24.9227 27.9333 24.5641 27.2815 24.1185C26.8173 23.7876 26.4326 23.3574 26.1556 22.8592C25.9185 22.3851 25.8 21.8667 25.8149 21.3481C25.8149 20.7111 25.9926 20.1036 26.3185 19.5556C26.6889 18.9629 27.2371 18.4889 27.874 18.1925C28.5704 17.8369 29.4444 17.674 30.4962 17.674C31.1037 17.674 31.726 17.7185 32.3333 17.8074C32.7778 17.8667 33.2074 17.9851 33.6074 18.1481C33.6667 18.1629 33.726 18.2222 33.7556 18.2814C33.7704 18.3407 33.7851 18.4 33.7851 18.4592V20.874C33.7851 20.9333 33.7556 20.9925 33.7111 21.0222C33.5778 21.0518 33.5038 21.0518 33.4444 21.0222Z" fill="#31A8FF"/>
</svg>
