<svg width="50" height="50" viewBox="0 0 50 50" fill="none" xmlns="http://www.w3.org/2000/svg">
<rect x="6.6875" y="6.6875" width="34.6875" height="33.75" fill="#242938"/>
<path fill-rule="evenodd" clip-rule="evenodd" d="M7.625 7.625L7.625 4.8125H38.5625V7.625L41.375 7.625V35.75H38.5625V10.4375H35.75V7.625H7.625ZM7.625 7.625V35.75H4.8125V7.625H7.625Z" fill="#444C66"/>
<path fill-rule="evenodd" clip-rule="evenodd" d="M38.5625 4.8125H41.375V7.625H38.5625V4.8125ZM41.375 41.375H44.1875V7.625H41.375V38.5625H38.5625V41.375H7.625V38.5625H4.8125V41.375H7.625V44.1875H41.375V41.375Z" fill="#202432"/>
<path fill-rule="evenodd" clip-rule="evenodd" d="M4.8125 35.75H7.625V38.5625H4.8125V35.75ZM35.75 38.5625H7.625V41.375H38.5625V38.5625H41.375V35.75H35.75V38.5625Z" fill="#31374D"/>
<path fill-rule="evenodd" clip-rule="evenodd" d="M41.375 2H7.625V4.8125H4.8125V7.625H2L2 41.375H4.8125V44.1875H7.625V47H41.375V44.1875H44.1875V41.375H47V7.625H44.1875V4.8125H41.375V2ZM41.375 4.8125V7.625H44.1875V41.375H41.375V44.1875H7.625V41.375H4.8125V7.625H7.625V4.8125H41.375Z" fill="black"/>
<path d="M33.9402 26.3073C33.8044 25.8958 33.4485 25.6093 32.9883 25.5405C32.7713 25.5081 32.5229 25.5219 32.2288 25.5826C31.7162 25.6883 31.3359 25.7286 31.0584 25.7364C32.1059 23.9678 32.9577 21.9509 33.4481 20.0524C34.241 16.9825 33.8173 15.584 33.3222 14.9514C32.0118 13.277 30.1 12.3776 27.7936 12.35C26.5632 12.335 25.4831 12.5779 24.9196 12.7526C24.395 12.66 23.8309 12.6084 23.2391 12.5988C22.1296 12.5811 21.1493 12.823 20.3117 13.32C19.8479 13.1632 19.1037 12.9422 18.2442 12.8011C16.2227 12.4692 14.5935 12.7278 13.4018 13.5697C11.9588 14.589 11.2898 16.36 11.4135 18.8335C11.4528 19.6188 11.8921 22.0083 12.5838 24.2743C12.9814 25.5768 13.4053 26.6584 13.8438 27.4894C14.4656 28.6678 15.131 29.3617 15.878 29.6109C16.2967 29.7503 17.0574 29.848 17.8575 29.1817C17.959 29.3045 18.0943 29.4265 18.2738 29.5399C18.5019 29.6837 18.7807 29.8012 19.0592 29.8709C20.0629 30.1218 21.003 30.059 21.8051 29.7073C21.81 29.85 21.8138 29.9863 21.817 30.104C21.8223 30.2949 21.8276 30.482 21.8346 30.6571C21.8821 31.8406 21.9627 32.7609 22.2013 33.4048C22.2143 33.4402 22.232 33.4942 22.2505 33.5515C22.3696 33.9159 22.5686 34.526 23.075 35.0038C23.5993 35.4988 24.2336 35.6505 24.8145 35.6505C25.1058 35.6505 25.3838 35.6123 25.6276 35.5601C26.4966 35.3738 27.4836 35.0901 28.1976 34.0734C28.8727 33.1123 29.2008 31.6648 29.2602 29.384C29.2679 29.3194 29.275 29.2579 29.2818 29.1992L29.296 29.0786L29.455 29.0926L29.496 29.0954C30.3811 29.1357 31.4634 28.948 32.1282 28.6393C32.6534 28.3955 34.3365 27.5069 33.9402 26.3073Z" fill="black"/>
<path d="M32.4267 26.5406C29.7948 27.0835 29.6139 26.1924 29.6139 26.1924C32.3927 22.0691 33.5544 16.8351 32.552 15.5541C29.817 12.0598 25.0829 13.7124 25.0039 13.7552L24.9785 13.7598C24.4585 13.6518 23.8766 13.5876 23.2225 13.5769C22.0317 13.5574 21.1283 13.8891 20.4428 14.4089C20.4428 14.4089 11.9975 10.9298 12.3904 18.7846C12.4739 20.4556 14.7855 31.4284 17.5425 28.1141C18.5502 26.9022 19.5239 25.8774 19.5239 25.8774C20.0075 26.1987 20.5864 26.3626 21.1934 26.3037L21.2405 26.2637C21.2258 26.4142 21.2326 26.5614 21.2594 26.7356C20.5491 27.5292 20.7579 27.6685 19.338 27.9608C17.9013 28.2569 18.7453 28.784 19.2963 28.9218C19.9644 29.0888 21.5099 29.3255 22.5542 27.8636L22.5126 28.0304C22.7908 28.2533 22.9862 29.4803 22.9535 30.5926C22.9207 31.7048 22.8989 32.4685 23.1181 33.0649C23.3375 33.6614 23.556 35.0035 25.4225 34.6035C26.9821 34.2693 27.7904 33.4032 27.9029 31.9584C27.9826 30.9313 28.1632 31.0831 28.1745 30.1648L28.3194 29.7301C28.4864 28.3378 28.346 27.8885 29.3068 28.0975L29.5404 28.118C30.2475 28.1501 31.1732 28.0042 31.7165 27.7517C32.8862 27.2089 33.58 26.3024 32.4266 26.5406H32.4267Z" fill="#336791"/>
<path d="M20.9371 19.5318C20.6999 19.4988 20.4851 19.5293 20.3764 19.6116C20.3154 19.6579 20.2964 19.7115 20.2913 19.7484C20.2777 19.8462 20.3462 19.9543 20.3883 20.0101C20.5074 20.168 20.6814 20.2765 20.8536 20.3004C20.8786 20.3039 20.9034 20.3055 20.9281 20.3055C21.2153 20.3055 21.4765 20.0819 21.4995 19.9168C21.5282 19.7101 21.2281 19.5722 20.9371 19.5318ZM28.7942 19.5383C28.7716 19.3763 28.4832 19.3301 28.2096 19.3681C27.9363 19.4062 27.6714 19.5296 27.6935 19.692C27.7112 19.8182 27.9392 20.0338 28.2092 20.0338C28.232 20.0338 28.255 20.0323 28.2782 20.029C28.4584 20.0041 28.5906 19.8897 28.6534 19.8237C28.749 19.7232 28.8044 19.6112 28.7942 19.5383Z" fill="white"/>
<path d="M33.3025 26.4788C33.2022 26.1753 32.8792 26.0777 32.3425 26.1885C30.7491 26.5174 30.1785 26.2896 29.9911 26.1516C31.2297 24.2648 32.2485 21.9841 32.7982 19.8562C33.0585 18.8482 33.2024 17.9121 33.2141 17.1491C33.2271 16.3116 33.0845 15.6962 32.7903 15.3203C31.6043 13.8048 29.8635 12.9918 27.7564 12.9695C26.3078 12.9532 25.0839 13.3239 24.8466 13.4282C24.347 13.3039 23.8023 13.2277 23.2093 13.2179C22.1218 13.2003 21.1818 13.4607 20.4035 13.9914C20.0655 13.8655 19.1918 13.5656 18.1234 13.3935C16.2763 13.0962 14.8085 13.3215 13.761 14.0635C12.5112 14.949 11.9342 16.5319 12.046 18.768C12.0836 19.5203 12.5123 21.8347 13.1887 24.0511C14.0792 26.9683 15.0472 28.6198 16.0656 28.9595C16.1848 28.9993 16.3222 29.0271 16.4738 29.0271C16.8453 29.0271 17.3008 28.8596 17.7747 28.2899C18.3528 27.5965 18.9507 26.9199 19.5678 26.261C19.9681 26.4759 20.408 26.5959 20.8578 26.6079C20.8587 26.6197 20.8598 26.6314 20.8609 26.6431C20.7835 26.7355 20.7076 26.8291 20.6335 26.9241C20.3218 27.3198 20.2569 27.4022 19.2536 27.6087C18.9682 27.6677 18.2102 27.8238 18.1991 28.3552C18.187 28.9357 19.0951 29.1795 19.1986 29.2054C19.5591 29.2956 19.9065 29.3402 20.2377 29.3402C21.0433 29.3402 21.7522 29.0754 22.3188 28.5631C22.3014 30.6327 22.3876 32.672 22.6361 33.2933C22.8397 33.802 23.3369 35.0451 24.9073 35.045C25.1378 35.045 25.3914 35.0182 25.6705 34.9584C27.3095 34.6071 28.0213 33.8826 28.2966 32.2855C28.4439 31.432 28.6968 29.3938 28.8157 28.3005C29.0667 28.3788 29.3898 28.4147 29.7391 28.4146C30.4676 28.4146 31.3082 28.2598 31.8354 28.0151C32.4276 27.74 33.4963 27.0652 33.3025 26.4788ZM29.3993 19.091C29.3939 19.4138 29.3495 19.7068 29.3024 20.0126C29.2517 20.3416 29.1993 20.6817 29.1861 21.0945C29.1731 21.4963 29.2233 21.914 29.2718 22.318C29.3698 23.1339 29.4704 23.974 29.081 24.8028C29.0163 24.6882 28.9586 24.5697 28.9084 24.448C28.86 24.3307 28.7548 24.1422 28.6093 23.8813C28.043 22.8657 26.7168 20.4874 27.3957 19.517C27.5979 19.2281 28.1111 18.9311 29.3993 19.091ZM27.8378 13.6231C29.7258 13.6647 31.2193 14.371 32.2767 15.7222C33.0877 16.7586 32.1946 21.4744 29.6094 25.5427C29.5834 25.5096 29.5572 25.4766 29.531 25.4438L29.4982 25.4029C30.1663 24.2996 30.0357 23.208 29.9194 22.2402C29.8716 21.843 29.8265 21.4679 29.838 21.1155C29.8498 20.742 29.8992 20.4217 29.947 20.1119C30.0057 19.7303 30.0654 19.3353 30.0489 18.8697C30.0612 18.8209 30.0662 18.7632 30.0597 18.6947C30.0177 18.2482 29.508 16.912 28.469 15.7026C27.9007 15.0411 27.0719 14.3008 25.9403 13.8015C26.427 13.7006 27.0926 13.6065 27.8378 13.6231ZM17.2732 27.8729C16.7511 28.5007 16.3906 28.3803 16.272 28.3408C15.4994 28.0831 14.6029 26.4502 13.8125 23.8608C13.1286 21.6202 12.729 19.3671 12.6973 18.7354C12.5975 16.7373 13.0818 15.3448 14.137 14.5964C15.8542 13.3787 18.6774 14.1076 19.8119 14.4772C19.7956 14.4933 19.7786 14.5084 19.7625 14.5248C17.9008 16.4048 17.945 19.6169 17.9496 19.8133C17.9494 19.889 17.9558 19.9963 17.9645 20.1438C17.9965 20.6841 18.0562 21.6896 17.8969 22.8283C17.7489 23.8864 18.0751 24.9221 18.7917 25.6698C18.8652 25.7464 18.9425 25.8193 19.0233 25.8882C18.7043 26.2298 18.0111 26.9852 17.2732 27.8729ZM19.2625 25.2186C18.685 24.6159 18.4227 23.7777 18.5428 22.9185C18.7109 21.7157 18.6489 20.6681 18.6155 20.1052C18.6109 20.0265 18.6067 19.9574 18.6043 19.903C18.8763 19.6618 20.1365 18.9866 21.0353 19.1925C21.4454 19.2864 21.6953 19.5657 21.7992 20.0461C22.3369 22.5331 21.8704 23.5697 21.4955 24.4027C21.4183 24.5743 21.3452 24.7365 21.2829 24.9043L21.2346 25.0341C21.1123 25.362 20.9985 25.667 20.928 25.9566C20.314 25.9548 19.7167 25.6925 19.2625 25.2185V25.2186ZM19.3568 28.5726C19.1775 28.5278 19.0163 28.4501 18.9217 28.3855C19.0007 28.3484 19.1413 28.2977 19.3852 28.2475C20.5655 28.0046 20.7478 27.8331 21.1459 27.3276C21.2371 27.2117 21.3405 27.0804 21.4838 26.9204L21.484 26.9202C21.6974 26.6813 21.795 26.7218 21.972 26.7952C22.1154 26.8545 22.2552 27.0344 22.3118 27.2322C22.3386 27.3257 22.3687 27.503 22.2702 27.6411C21.4387 28.8054 20.227 28.7904 19.3568 28.5726ZM25.5338 34.3207C24.0899 34.6301 23.5786 33.8933 23.2417 33.0511C23.0243 32.5074 22.9174 30.0555 22.9932 27.3477C22.9942 27.3117 22.9891 27.2769 22.9792 27.2442C22.9703 27.1795 22.9568 27.1156 22.9388 27.0529C22.8261 26.6589 22.5513 26.3293 22.2216 26.1927C22.0907 26.1384 21.8503 26.0389 21.5614 26.1128C21.623 25.8589 21.7298 25.5723 21.8457 25.2619L21.8943 25.1314C21.949 24.9842 22.0176 24.8318 22.0902 24.6703C22.4825 23.7988 23.0198 22.6051 22.4367 19.9083C22.2183 18.8982 21.4889 18.4049 20.3832 18.5195C19.7203 18.5881 19.1139 18.8555 18.8114 19.0089C18.7463 19.0418 18.6869 19.0737 18.6313 19.1047C18.7157 18.0869 19.0347 16.185 20.2278 14.9816C20.979 14.224 21.9795 13.8499 23.1985 13.8701C25.6003 13.9094 27.1405 15.1419 28.0097 16.1691C28.7587 17.0542 29.1643 17.9458 29.3262 18.4267C28.1089 18.3029 27.281 18.5432 26.8614 19.1432C25.9483 20.4483 27.3608 22.9815 28.0397 24.1989C28.1642 24.422 28.2716 24.6149 28.3055 24.6968C28.5265 25.2326 28.8127 25.5903 29.0217 25.8513C29.0857 25.9313 29.1479 26.0089 29.1951 26.0767C28.8264 26.183 28.1642 26.4286 28.2246 27.6561C28.1759 28.2721 27.8298 31.1559 27.6539 32.1747C27.4218 33.5208 26.9265 34.0221 25.5338 34.3208V34.3207ZM31.5608 27.4236C31.1838 27.5985 30.5529 27.7298 29.9536 27.758C29.2917 27.789 28.9547 27.6838 28.8754 27.6192C28.8382 26.8542 29.1229 26.7743 29.4242 26.6897C29.4716 26.6764 29.5178 26.6634 29.5624 26.6478C29.5901 26.6704 29.6204 26.6928 29.6537 26.7147C30.1858 27.0659 31.1347 27.1037 32.4745 26.8272L32.4892 26.8243C32.3084 26.9932 31.9992 27.2199 31.5608 27.4236Z" fill="white"/>
</svg>
