<svg width="50" height="50" viewBox="0 0 50 50" fill="none" xmlns="http://www.w3.org/2000/svg">
<rect x="6.6875" y="6.6875" width="34.6875" height="33.75" fill="white"/>
<path fill-rule="evenodd" clip-rule="evenodd" d="M7.625 7.625L7.625 4.8125H38.5625V7.625L41.375 7.625V35.75H38.5625V10.4375H35.75V7.625H7.625ZM7.625 7.625V35.75H4.8125V7.625H7.625Z" fill="#00C8EC"/>
<path fill-rule="evenodd" clip-rule="evenodd" d="M38.5625 4.8125H41.375V7.625H38.5625V4.8125ZM41.375 41.375H44.1875V7.625H41.375V38.5625H38.5625V41.375H7.625V38.5625H4.8125V41.375H7.625V44.1875H41.375V41.375Z" fill="#025665"/>
<path fill-rule="evenodd" clip-rule="evenodd" d="M4.8125 35.75H7.625V38.5625H4.8125V35.75ZM35.75 38.5625H7.625V41.375H38.5625V38.5625H41.375V35.75H35.75V38.5625Z" fill="#00AAC9"/>
<path fill-rule="evenodd" clip-rule="evenodd" d="M41.375 2H7.625V4.8125H4.8125V7.625H2V41.375H4.8125V44.1875H7.625V47H41.375V44.1875H44.1875V41.375H47V7.625H44.1875V4.8125H41.375V2ZM41.375 4.8125V7.625H44.1875V41.375H41.375V44.1875H7.625V41.375H4.8125V7.625H7.625V4.8125H41.375Z" fill="black"/>
<mask id="path-6-outside-1_231_87" maskUnits="userSpaceOnUse" x="9.87488" y="12.1749" width="28" height="24" fill="black">
<rect fill="white" x="9.87488" y="12.1749" width="28" height="24"/>
<path d="M32.1287 20.4109C31.8536 20.3193 31.5762 20.2344 31.2967 20.1564C31.3436 19.9701 31.3869 19.7861 31.4252 19.6054C32.0551 16.6374 31.6433 14.2462 30.2368 13.459C28.8883 12.7042 26.6829 13.4912 24.4555 15.3728C24.236 15.5586 24.0214 15.7497 23.8118 15.946C23.6715 15.8155 23.5287 15.6875 23.3836 15.5621C21.0492 13.5502 18.7093 12.7023 17.3044 13.4918C15.957 14.2489 15.5581 16.4967 16.1252 19.3096C16.1816 19.5882 16.2453 19.8653 16.3162 20.1408C15.985 20.2321 15.6654 20.3294 15.3595 20.4329C12.6227 21.3591 10.8749 22.8107 10.8749 24.3163C10.8749 25.8713 12.7512 27.4311 15.6018 28.3768C15.8329 28.4532 16.0659 28.524 16.3007 28.589C16.2244 28.8857 16.1567 29.1844 16.0977 29.4847C15.5571 32.2488 15.9792 34.4435 17.3229 35.1958C18.7108 35.9727 21.0401 35.1742 23.3081 33.2497C23.492 33.0932 23.6719 32.9323 23.8475 32.7671C24.0745 32.9797 24.3075 33.186 24.5463 33.386C26.7433 35.2211 28.9131 35.9621 30.2555 35.2077C31.642 34.4286 32.0927 32.0709 31.5076 29.2024C31.4615 28.9777 31.4098 28.7541 31.3526 28.5318C31.5162 28.4848 31.6768 28.4363 31.8333 28.386C34.7967 27.4329 36.7249 25.8921 36.7249 24.3163C36.7249 22.8052 34.9206 21.3438 32.1287 20.4109ZM31.486 27.3685C31.3446 27.4139 31.1996 27.4577 31.0518 27.5004C30.7246 26.495 30.2832 25.426 29.7429 24.3215C30.2584 23.2433 30.6829 22.188 31.0009 21.1892C31.2654 21.2635 31.522 21.3418 31.7694 21.4244C34.1615 22.2238 35.6206 23.4056 35.6206 24.3163C35.6206 25.2863 34.0448 26.5455 31.486 27.3685ZM30.4243 29.4106C30.683 30.679 30.7199 31.8258 30.5485 32.7223C30.3947 33.5279 30.0851 34.065 29.7022 34.2801C28.8876 34.7378 27.1454 34.1429 25.2666 32.5734C25.0444 32.3875 24.8277 32.1957 24.6166 31.9981C25.345 31.2248 26.073 30.3259 26.7834 29.3275C28.0331 29.2199 29.2137 29.0438 30.2844 28.8036C30.336 29.0048 30.3826 29.2072 30.4243 29.4106ZM19.6877 34.201C18.8918 34.4738 18.2579 34.4816 17.8747 34.2672C17.0593 33.8107 16.7203 32.0485 17.1827 29.6847C17.2376 29.4054 17.3006 29.1276 17.3714 28.8516C18.4302 29.079 19.6023 29.2425 20.8549 29.3411C21.5702 30.3181 22.3192 31.216 23.074 32.0023C22.9136 32.153 22.7493 32.2998 22.5815 32.4426C21.5785 33.2936 20.5735 33.8974 19.6877 34.201ZM15.959 27.3626C14.6986 26.9443 13.6576 26.4008 12.9441 25.8077C12.3029 25.2748 11.9793 24.7456 11.9793 24.3163C11.9793 23.4026 13.3825 22.2372 15.7231 21.4451C16.0071 21.349 16.3044 21.2584 16.6129 21.1733C16.9364 22.1946 17.3607 23.2625 17.8728 24.3424C17.354 25.4382 16.9237 26.5231 16.597 27.5565C16.3828 27.497 16.17 27.4323 15.959 27.3626ZM17.2089 19.1037C16.7231 16.6937 17.0458 14.8758 17.8577 14.4195C18.7225 13.9336 20.6348 14.6264 22.6504 16.3637C22.7818 16.4772 22.9111 16.5931 23.0382 16.7112C22.2871 17.494 21.5451 18.3853 20.8361 19.3564C19.6204 19.4658 18.4566 19.6415 17.3867 19.8768C17.3207 19.6206 17.2615 19.3628 17.2089 19.1037ZM28.3595 21.7764C28.1068 21.3526 27.8447 20.9342 27.5734 20.5215C28.3981 20.6227 29.1884 20.7571 29.9305 20.9214C29.7077 21.6146 29.43 22.3392 29.1032 23.0822C28.8643 22.6421 28.6163 22.2068 28.3595 21.7764ZM23.8123 17.4773C24.3216 18.0129 24.8318 18.6109 25.3335 19.2598C24.3157 19.2131 23.2961 19.2129 22.2783 19.2592C22.7805 18.6163 23.295 18.0191 23.8123 17.4773ZM19.2359 21.7837C18.9823 22.2107 18.739 22.6433 18.5062 23.0813C18.1847 22.341 17.9095 21.613 17.6848 20.91C18.4224 20.7499 19.2089 20.6189 20.0284 20.5195C19.7541 20.9348 19.4899 21.3564 19.2359 21.7837ZM20.0519 28.1893C19.2052 28.0976 18.4069 27.9734 17.6696 27.8176C17.8978 27.102 18.179 26.3586 18.5075 25.6024C18.7412 26.0407 18.9856 26.4736 19.2403 26.9007C19.5022 27.3398 19.7734 27.7699 20.0519 28.1893ZM23.8428 31.2308C23.3193 30.6827 22.7973 30.0763 22.2875 29.4241C22.7824 29.4429 23.287 29.4525 23.7999 29.4525C24.3268 29.4525 24.8476 29.441 25.3603 29.4189C24.8569 30.0828 24.3487 30.6901 23.8428 31.2308ZM29.1136 25.5638C29.4591 26.3283 29.7503 27.0678 29.9816 27.7711C29.2321 27.9371 28.4229 28.0708 27.5702 28.1701C27.8435 27.7497 28.108 27.324 28.3638 26.8934C28.6239 26.4556 28.8738 26.0123 29.1136 25.5638ZM27.4073 26.3578C27.0157 27.0181 26.6021 27.6658 26.1672 28.3C25.3793 28.3542 24.5897 28.3811 23.7999 28.3807C22.9954 28.3807 22.2129 28.3564 21.4594 28.3089C21.0132 27.6762 20.5917 27.0273 20.1959 26.3637C19.802 25.7035 19.4342 25.0291 19.0931 24.3419C19.4333 23.6545 19.8001 22.9797 20.1927 22.3191L20.1926 22.3192C20.585 21.6584 21.0031 21.0123 21.446 20.3823C22.2147 20.3258 23.0031 20.2964 23.7998 20.2964C24.6001 20.2964 25.3896 20.3261 26.1581 20.383C26.5965 21.012 27.012 21.6559 27.4036 22.3134C27.7975 22.9726 28.1691 23.644 28.518 24.3267C28.1727 25.0163 27.8022 25.6938 27.4073 26.3578ZM29.6853 14.3876C30.5509 14.8722 30.8875 16.8263 30.3437 19.389C30.3089 19.5525 30.27 19.719 30.2275 19.8879C29.155 19.6476 27.9904 19.4689 26.7711 19.3578C26.0608 18.376 25.3248 17.4833 24.586 16.7106C24.7796 16.5294 24.9779 16.3529 25.1805 16.1813C27.089 14.5692 28.8726 13.9327 29.6853 14.3876ZM23.7999 22.0756C25.0747 22.0756 26.1082 23.0788 26.1082 24.3163C26.1082 25.5538 25.0747 26.557 23.7999 26.557C22.525 26.557 21.4916 25.5538 21.4916 24.3163C21.4916 23.0788 22.525 22.0756 23.7999 22.0756Z"/>
</mask>
<path d="M32.1287 20.4109C31.8536 20.3193 31.5762 20.2344 31.2967 20.1564C31.3436 19.9701 31.3869 19.7861 31.4252 19.6054C32.0551 16.6374 31.6433 14.2462 30.2368 13.459C28.8883 12.7042 26.6829 13.4912 24.4555 15.3728C24.236 15.5586 24.0214 15.7497 23.8118 15.946C23.6715 15.8155 23.5287 15.6875 23.3836 15.5621C21.0492 13.5502 18.7093 12.7023 17.3044 13.4918C15.957 14.2489 15.5581 16.4967 16.1252 19.3096C16.1816 19.5882 16.2453 19.8653 16.3162 20.1408C15.985 20.2321 15.6654 20.3294 15.3595 20.4329C12.6227 21.3591 10.8749 22.8107 10.8749 24.3163C10.8749 25.8713 12.7512 27.4311 15.6018 28.3768C15.8329 28.4532 16.0659 28.524 16.3007 28.589C16.2244 28.8857 16.1567 29.1844 16.0977 29.4847C15.5571 32.2488 15.9792 34.4435 17.3229 35.1958C18.7108 35.9727 21.0401 35.1742 23.3081 33.2497C23.492 33.0932 23.6719 32.9323 23.8475 32.7671C24.0745 32.9797 24.3075 33.186 24.5463 33.386C26.7433 35.2211 28.9131 35.9621 30.2555 35.2077C31.642 34.4286 32.0927 32.0709 31.5076 29.2024C31.4615 28.9777 31.4098 28.7541 31.3526 28.5318C31.5162 28.4848 31.6768 28.4363 31.8333 28.386C34.7967 27.4329 36.7249 25.8921 36.7249 24.3163C36.7249 22.8052 34.9206 21.3438 32.1287 20.4109ZM31.486 27.3685C31.3446 27.4139 31.1996 27.4577 31.0518 27.5004C30.7246 26.495 30.2832 25.426 29.7429 24.3215C30.2584 23.2433 30.6829 22.188 31.0009 21.1892C31.2654 21.2635 31.522 21.3418 31.7694 21.4244C34.1615 22.2238 35.6206 23.4056 35.6206 24.3163C35.6206 25.2863 34.0448 26.5455 31.486 27.3685ZM30.4243 29.4106C30.683 30.679 30.7199 31.8258 30.5485 32.7223C30.3947 33.5279 30.0851 34.065 29.7022 34.2801C28.8876 34.7378 27.1454 34.1429 25.2666 32.5734C25.0444 32.3875 24.8277 32.1957 24.6166 31.9981C25.345 31.2248 26.073 30.3259 26.7834 29.3275C28.0331 29.2199 29.2137 29.0438 30.2844 28.8036C30.336 29.0048 30.3826 29.2072 30.4243 29.4106ZM19.6877 34.201C18.8918 34.4738 18.2579 34.4816 17.8747 34.2672C17.0593 33.8107 16.7203 32.0485 17.1827 29.6847C17.2376 29.4054 17.3006 29.1276 17.3714 28.8516C18.4302 29.079 19.6023 29.2425 20.8549 29.3411C21.5702 30.3181 22.3192 31.216 23.074 32.0023C22.9136 32.153 22.7493 32.2998 22.5815 32.4426C21.5785 33.2936 20.5735 33.8974 19.6877 34.201ZM15.959 27.3626C14.6986 26.9443 13.6576 26.4008 12.9441 25.8077C12.3029 25.2748 11.9793 24.7456 11.9793 24.3163C11.9793 23.4026 13.3825 22.2372 15.7231 21.4451C16.0071 21.349 16.3044 21.2584 16.6129 21.1733C16.9364 22.1946 17.3607 23.2625 17.8728 24.3424C17.354 25.4382 16.9237 26.5231 16.597 27.5565C16.3828 27.497 16.17 27.4323 15.959 27.3626ZM17.2089 19.1037C16.7231 16.6937 17.0458 14.8758 17.8577 14.4195C18.7225 13.9336 20.6348 14.6264 22.6504 16.3637C22.7818 16.4772 22.9111 16.5931 23.0382 16.7112C22.2871 17.494 21.5451 18.3853 20.8361 19.3564C19.6204 19.4658 18.4566 19.6415 17.3867 19.8768C17.3207 19.6206 17.2615 19.3628 17.2089 19.1037ZM28.3595 21.7764C28.1068 21.3526 27.8447 20.9342 27.5734 20.5215C28.3981 20.6227 29.1884 20.7571 29.9305 20.9214C29.7077 21.6146 29.43 22.3392 29.1032 23.0822C28.8643 22.6421 28.6163 22.2068 28.3595 21.7764ZM23.8123 17.4773C24.3216 18.0129 24.8318 18.6109 25.3335 19.2598C24.3157 19.2131 23.2961 19.2129 22.2783 19.2592C22.7805 18.6163 23.295 18.0191 23.8123 17.4773ZM19.2359 21.7837C18.9823 22.2107 18.739 22.6433 18.5062 23.0813C18.1847 22.341 17.9095 21.613 17.6848 20.91C18.4224 20.7499 19.2089 20.6189 20.0284 20.5195C19.7541 20.9348 19.4899 21.3564 19.2359 21.7837ZM20.0519 28.1893C19.2052 28.0976 18.4069 27.9734 17.6696 27.8176C17.8978 27.102 18.179 26.3586 18.5075 25.6024C18.7412 26.0407 18.9856 26.4736 19.2403 26.9007C19.5022 27.3398 19.7734 27.7699 20.0519 28.1893ZM23.8428 31.2308C23.3193 30.6827 22.7973 30.0763 22.2875 29.4241C22.7824 29.4429 23.287 29.4525 23.7999 29.4525C24.3268 29.4525 24.8476 29.441 25.3603 29.4189C24.8569 30.0828 24.3487 30.6901 23.8428 31.2308ZM29.1136 25.5638C29.4591 26.3283 29.7503 27.0678 29.9816 27.7711C29.2321 27.9371 28.4229 28.0708 27.5702 28.1701C27.8435 27.7497 28.108 27.324 28.3638 26.8934C28.6239 26.4556 28.8738 26.0123 29.1136 25.5638ZM27.4073 26.3578C27.0157 27.0181 26.6021 27.6658 26.1672 28.3C25.3793 28.3542 24.5897 28.3811 23.7999 28.3807C22.9954 28.3807 22.2129 28.3564 21.4594 28.3089C21.0132 27.6762 20.5917 27.0273 20.1959 26.3637C19.802 25.7035 19.4342 25.0291 19.0931 24.3419C19.4333 23.6545 19.8001 22.9797 20.1927 22.3191L20.1926 22.3192C20.585 21.6584 21.0031 21.0123 21.446 20.3823C22.2147 20.3258 23.0031 20.2964 23.7998 20.2964C24.6001 20.2964 25.3896 20.3261 26.1581 20.383C26.5965 21.012 27.012 21.6559 27.4036 22.3134C27.7975 22.9726 28.1691 23.644 28.518 24.3267C28.1727 25.0163 27.8022 25.6938 27.4073 26.3578ZM29.6853 14.3876C30.5509 14.8722 30.8875 16.8263 30.3437 19.389C30.3089 19.5525 30.27 19.719 30.2275 19.8879C29.155 19.6476 27.9904 19.4689 26.7711 19.3578C26.0608 18.376 25.3248 17.4833 24.586 16.7106C24.7796 16.5294 24.9779 16.3529 25.1805 16.1813C27.089 14.5692 28.8726 13.9327 29.6853 14.3876ZM23.7999 22.0756C25.0747 22.0756 26.1082 23.0788 26.1082 24.3163C26.1082 25.5538 25.0747 26.557 23.7999 26.557C22.525 26.557 21.4916 25.5538 21.4916 24.3163C21.4916 23.0788 22.525 22.0756 23.7999 22.0756Z" fill="black"/>
<path d="M32.1287 20.4109C31.8536 20.3193 31.5762 20.2344 31.2967 20.1564C31.3436 19.9701 31.3869 19.7861 31.4252 19.6054C32.0551 16.6374 31.6433 14.2462 30.2368 13.459C28.8883 12.7042 26.6829 13.4912 24.4555 15.3728C24.236 15.5586 24.0214 15.7497 23.8118 15.946C23.6715 15.8155 23.5287 15.6875 23.3836 15.5621C21.0492 13.5502 18.7093 12.7023 17.3044 13.4918C15.957 14.2489 15.5581 16.4967 16.1252 19.3096C16.1816 19.5882 16.2453 19.8653 16.3162 20.1408C15.985 20.2321 15.6654 20.3294 15.3595 20.4329C12.6227 21.3591 10.8749 22.8107 10.8749 24.3163C10.8749 25.8713 12.7512 27.4311 15.6018 28.3768C15.8329 28.4532 16.0659 28.524 16.3007 28.589C16.2244 28.8857 16.1567 29.1844 16.0977 29.4847C15.5571 32.2488 15.9792 34.4435 17.3229 35.1958C18.7108 35.9727 21.0401 35.1742 23.3081 33.2497C23.492 33.0932 23.6719 32.9323 23.8475 32.7671C24.0745 32.9797 24.3075 33.186 24.5463 33.386C26.7433 35.2211 28.9131 35.9621 30.2555 35.2077C31.642 34.4286 32.0927 32.0709 31.5076 29.2024C31.4615 28.9777 31.4098 28.7541 31.3526 28.5318C31.5162 28.4848 31.6768 28.4363 31.8333 28.386C34.7967 27.4329 36.7249 25.8921 36.7249 24.3163C36.7249 22.8052 34.9206 21.3438 32.1287 20.4109ZM31.486 27.3685C31.3446 27.4139 31.1996 27.4577 31.0518 27.5004C30.7246 26.495 30.2832 25.426 29.7429 24.3215C30.2584 23.2433 30.6829 22.188 31.0009 21.1892C31.2654 21.2635 31.522 21.3418 31.7694 21.4244C34.1615 22.2238 35.6206 23.4056 35.6206 24.3163C35.6206 25.2863 34.0448 26.5455 31.486 27.3685ZM30.4243 29.4106C30.683 30.679 30.7199 31.8258 30.5485 32.7223C30.3947 33.5279 30.0851 34.065 29.7022 34.2801C28.8876 34.7378 27.1454 34.1429 25.2666 32.5734C25.0444 32.3875 24.8277 32.1957 24.6166 31.9981C25.345 31.2248 26.073 30.3259 26.7834 29.3275C28.0331 29.2199 29.2137 29.0438 30.2844 28.8036C30.336 29.0048 30.3826 29.2072 30.4243 29.4106ZM19.6877 34.201C18.8918 34.4738 18.2579 34.4816 17.8747 34.2672C17.0593 33.8107 16.7203 32.0485 17.1827 29.6847C17.2376 29.4054 17.3006 29.1276 17.3714 28.8516C18.4302 29.079 19.6023 29.2425 20.8549 29.3411C21.5702 30.3181 22.3192 31.216 23.074 32.0023C22.9136 32.153 22.7493 32.2998 22.5815 32.4426C21.5785 33.2936 20.5735 33.8974 19.6877 34.201ZM15.959 27.3626C14.6986 26.9443 13.6576 26.4008 12.9441 25.8077C12.3029 25.2748 11.9793 24.7456 11.9793 24.3163C11.9793 23.4026 13.3825 22.2372 15.7231 21.4451C16.0071 21.349 16.3044 21.2584 16.6129 21.1733C16.9364 22.1946 17.3607 23.2625 17.8728 24.3424C17.354 25.4382 16.9237 26.5231 16.597 27.5565C16.3828 27.497 16.17 27.4323 15.959 27.3626ZM17.2089 19.1037C16.7231 16.6937 17.0458 14.8758 17.8577 14.4195C18.7225 13.9336 20.6348 14.6264 22.6504 16.3637C22.7818 16.4772 22.9111 16.5931 23.0382 16.7112C22.2871 17.494 21.5451 18.3853 20.8361 19.3564C19.6204 19.4658 18.4566 19.6415 17.3867 19.8768C17.3207 19.6206 17.2615 19.3628 17.2089 19.1037ZM28.3595 21.7764C28.1068 21.3526 27.8447 20.9342 27.5734 20.5215C28.3981 20.6227 29.1884 20.7571 29.9305 20.9214C29.7077 21.6146 29.43 22.3392 29.1032 23.0822C28.8643 22.6421 28.6163 22.2068 28.3595 21.7764ZM23.8123 17.4773C24.3216 18.0129 24.8318 18.6109 25.3335 19.2598C24.3157 19.2131 23.2961 19.2129 22.2783 19.2592C22.7805 18.6163 23.295 18.0191 23.8123 17.4773ZM19.2359 21.7837C18.9823 22.2107 18.739 22.6433 18.5062 23.0813C18.1847 22.341 17.9095 21.613 17.6848 20.91C18.4224 20.7499 19.2089 20.6189 20.0284 20.5195C19.7541 20.9348 19.4899 21.3564 19.2359 21.7837ZM20.0519 28.1893C19.2052 28.0976 18.4069 27.9734 17.6696 27.8176C17.8978 27.102 18.179 26.3586 18.5075 25.6024C18.7412 26.0407 18.9856 26.4736 19.2403 26.9007C19.5022 27.3398 19.7734 27.7699 20.0519 28.1893ZM23.8428 31.2308C23.3193 30.6827 22.7973 30.0763 22.2875 29.4241C22.7824 29.4429 23.287 29.4525 23.7999 29.4525C24.3268 29.4525 24.8476 29.441 25.3603 29.4189C24.8569 30.0828 24.3487 30.6901 23.8428 31.2308ZM29.1136 25.5638C29.4591 26.3283 29.7503 27.0678 29.9816 27.7711C29.2321 27.9371 28.4229 28.0708 27.5702 28.1701C27.8435 27.7497 28.108 27.324 28.3638 26.8934C28.6239 26.4556 28.8738 26.0123 29.1136 25.5638ZM27.4073 26.3578C27.0157 27.0181 26.6021 27.6658 26.1672 28.3C25.3793 28.3542 24.5897 28.3811 23.7999 28.3807C22.9954 28.3807 22.2129 28.3564 21.4594 28.3089C21.0132 27.6762 20.5917 27.0273 20.1959 26.3637C19.802 25.7035 19.4342 25.0291 19.0931 24.3419C19.4333 23.6545 19.8001 22.9797 20.1927 22.3191L20.1926 22.3192C20.585 21.6584 21.0031 21.0123 21.446 20.3823C22.2147 20.3258 23.0031 20.2964 23.7998 20.2964C24.6001 20.2964 25.3896 20.3261 26.1581 20.383C26.5965 21.012 27.012 21.6559 27.4036 22.3134C27.7975 22.9726 28.1691 23.644 28.518 24.3267C28.1727 25.0163 27.8022 25.6938 27.4073 26.3578ZM29.6853 14.3876C30.5509 14.8722 30.8875 16.8263 30.3437 19.389C30.3089 19.5525 30.27 19.719 30.2275 19.8879C29.155 19.6476 27.9904 19.4689 26.7711 19.3578C26.0608 18.376 25.3248 17.4833 24.586 16.7106C24.7796 16.5294 24.9779 16.3529 25.1805 16.1813C27.089 14.5692 28.8726 13.9327 29.6853 14.3876ZM23.7999 22.0756C25.0747 22.0756 26.1082 23.0788 26.1082 24.3163C26.1082 25.5538 25.0747 26.557 23.7999 26.557C22.525 26.557 21.4916 25.5538 21.4916 24.3163C21.4916 23.0788 22.525 22.0756 23.7999 22.0756Z" stroke="black" stroke-width="0.5" mask="url(#path-6-outside-1_231_87)"/>
<mask id="path-7-outside-2_231_87" maskUnits="userSpaceOnUse" x="8.69995" y="11" width="28" height="24" fill="black">
<rect fill="white" x="8.69995" y="11" width="28" height="24"/>
<path d="M30.9538 19.236C30.6787 19.1444 30.4013 19.0595 30.1218 18.9814C30.1687 18.7952 30.2119 18.6112 30.2503 18.4305C30.8802 15.4624 30.4684 13.0713 29.0619 12.284C27.7134 11.5293 25.5079 12.3163 23.2806 14.1979C23.0611 14.3837 22.8464 14.5748 22.6369 14.7711C22.4966 14.6406 22.3538 14.5126 22.2086 14.3872C19.8742 12.3753 17.5344 11.5273 16.1294 12.3169C14.7821 13.074 14.3831 15.3218 14.9502 18.1347C15.0066 18.4133 15.0703 18.6904 15.1413 18.9658C14.8101 19.0572 14.4905 19.1544 14.1846 19.2579C11.4478 20.1842 9.69995 21.6357 9.69995 23.1414C9.69995 24.6964 11.5763 26.2562 14.4269 27.2019C14.658 27.2783 14.891 27.349 15.1257 27.4141C15.0495 27.7108 14.9818 28.0095 14.9228 28.3098C14.3821 31.0739 14.8043 33.2686 16.148 34.0209C17.5358 34.7977 19.8652 33.9993 22.1332 32.0747C22.3171 31.9183 22.497 31.7574 22.6726 31.5922C22.8996 31.8047 23.1326 32.0111 23.3714 32.2111C25.5684 34.0461 27.7382 34.7871 29.0806 34.0328C30.4671 33.2537 30.9178 30.896 30.3327 28.0275C30.2866 27.8028 30.2349 27.5792 30.1777 27.3569C30.3413 27.3098 30.5018 27.2614 30.6583 27.211C33.6218 26.258 35.55 24.7172 35.55 23.1414C35.55 21.6302 33.7457 20.1689 30.9538 19.236ZM30.3111 26.1936C30.1697 26.239 30.0247 26.2828 29.8769 26.3254C29.5497 25.3201 29.1083 24.2511 28.5679 23.1466C29.0835 22.0684 29.508 21.013 29.826 20.0142C30.0905 20.0885 30.347 20.1668 30.5944 20.2495C32.9866 21.0489 34.4457 22.2307 34.4457 23.1414C34.4457 24.1113 32.8698 25.3706 30.3111 26.1936ZM29.2494 28.2357C29.5081 29.504 29.545 30.6508 29.3736 31.5474C29.2197 32.353 28.9101 32.89 28.5272 33.1052C27.7127 33.5629 25.9705 32.968 24.0916 31.3985C23.8695 31.2126 23.6528 31.0207 23.4416 30.8231C24.1701 30.0499 24.898 29.151 25.6085 28.1526C26.8582 28.045 28.0388 27.8689 29.1095 27.6287C29.161 27.8299 29.2077 28.0323 29.2494 28.2357ZM18.5128 33.0261C17.7169 33.2989 17.083 33.3067 16.6997 33.0922C15.8844 32.6358 15.5454 30.8735 16.0078 28.5098C16.0627 28.2304 16.1257 27.9526 16.1965 27.6767C17.2553 27.9041 18.4274 28.0676 19.68 28.1662C20.3953 29.1431 21.1442 30.0411 21.899 30.8274C21.7386 30.978 21.5744 31.1248 21.4066 31.2677C20.4036 32.1186 19.3985 32.7224 18.5128 33.0261ZM14.7841 26.1876C13.5236 25.7694 12.4827 25.2259 11.7692 24.6328C11.128 24.0999 10.8043 23.5707 10.8043 23.1414C10.8043 22.2277 12.2076 21.0622 14.5481 20.2702C14.8322 20.1741 15.1295 20.0834 15.4379 19.9984C15.7615 21.0197 16.1858 22.0876 16.6978 23.1674C16.1791 24.2633 15.7488 25.3482 15.4221 26.3816C15.2078 26.322 14.9951 26.2574 14.7841 26.1876ZM16.034 17.9287C15.5482 15.5188 15.8708 13.7009 16.6828 13.2446C17.5475 12.7586 19.4598 13.4515 21.4754 15.1888C21.6069 15.3023 21.7362 15.4181 21.8633 15.5362C21.1122 16.3191 20.3701 17.2104 19.6612 18.1815C18.4454 18.2909 17.2817 18.4665 16.2117 18.7019C16.1458 18.4457 16.0865 18.1878 16.034 17.9287ZM27.1845 20.6015C26.9318 20.1777 26.6697 19.7593 26.3984 19.3465C27.2232 19.4478 28.0135 19.5822 28.7555 19.7465C28.5328 20.4396 28.2551 21.1643 27.9282 21.9072C27.6893 21.4672 27.4414 21.0319 27.1845 20.6015ZM22.6374 16.3023C23.1467 16.838 23.6568 17.436 24.1586 18.0849C23.1407 18.0382 22.1212 18.038 21.1033 18.0843C21.6056 17.4414 22.1201 16.8442 22.6374 16.3023ZM18.061 20.6088C17.8074 21.0358 17.5641 21.4684 17.3313 21.9064C17.0097 21.166 16.7346 20.4381 16.5099 19.7351C17.2474 19.5749 18.034 19.444 18.8535 19.3446C18.5792 19.7599 18.3149 20.1815 18.061 20.6088ZM18.877 27.0144C18.0303 26.9227 17.232 26.7985 16.4947 26.6426C16.7229 25.9271 17.0041 25.1836 17.3326 24.4274C17.5663 24.8657 17.8106 25.2986 18.0654 25.7258C18.3273 26.1649 18.5985 26.595 18.877 27.0144ZM22.6679 30.0559C22.1444 29.5078 21.6224 28.9013 21.1125 28.2491C21.6075 28.2679 22.1121 28.2776 22.625 28.2776C23.1518 28.2776 23.6727 28.2661 24.1853 28.2439C23.682 28.9079 23.1738 29.5152 22.6679 30.0559ZM27.9386 24.3888C28.2842 25.1534 28.5754 25.8929 28.8066 26.5962C28.0572 26.7622 27.248 26.8959 26.3953 26.9952C26.6685 26.5748 26.9331 26.1491 27.1889 25.7184C27.4489 25.2807 27.6989 24.8374 27.9386 24.3888ZM26.2323 25.1829C25.8408 25.8431 25.4272 26.4909 24.9922 27.1251C24.2044 27.1792 23.4148 27.2061 22.625 27.2057C21.8205 27.2057 21.038 27.1814 20.2845 27.134C19.8382 26.5013 19.4167 25.8524 19.021 25.1887C18.6271 24.5286 18.2593 23.8542 17.9181 23.167C18.2584 22.4795 18.6252 21.8048 19.0178 21.1442L19.0177 21.1443C19.4101 20.4835 19.8282 19.8374 20.2711 19.2074C21.0398 19.1509 21.8281 19.1215 22.6249 19.1215C23.4252 19.1215 24.2146 19.1512 24.9832 19.208C25.4216 19.8371 25.837 20.481 26.2287 21.1385C26.6226 21.7977 26.9942 22.4691 27.3431 23.1518C26.9978 23.8414 26.6273 24.5188 26.2323 25.1829ZM28.5104 13.2126C29.3759 13.6972 29.7126 15.6514 29.1687 18.2141C29.134 18.3776 29.095 18.5441 29.0526 18.713C27.98 18.4726 26.8155 18.2939 25.5962 18.1829C24.8859 17.2011 24.1499 16.3084 23.4111 15.5356C23.6047 15.3545 23.8029 15.178 24.0056 15.0064C25.9141 13.3943 27.6977 12.7578 28.5104 13.2126ZM22.625 20.9007C23.8998 20.9007 24.9333 21.9039 24.9333 23.1414C24.9333 24.3788 23.8998 25.382 22.625 25.382C21.3501 25.382 20.3166 24.3788 20.3166 23.1414C20.3166 21.9039 21.3501 20.9007 22.625 20.9007Z"/>
</mask>
<path d="M30.9538 19.236C30.6787 19.1444 30.4013 19.0595 30.1218 18.9814C30.1687 18.7952 30.2119 18.6112 30.2503 18.4305C30.8802 15.4624 30.4684 13.0713 29.0619 12.284C27.7134 11.5293 25.5079 12.3163 23.2806 14.1979C23.0611 14.3837 22.8464 14.5748 22.6369 14.7711C22.4966 14.6406 22.3538 14.5126 22.2086 14.3872C19.8742 12.3753 17.5344 11.5273 16.1294 12.3169C14.7821 13.074 14.3831 15.3218 14.9502 18.1347C15.0066 18.4133 15.0703 18.6904 15.1413 18.9658C14.8101 19.0572 14.4905 19.1544 14.1846 19.2579C11.4478 20.1842 9.69995 21.6357 9.69995 23.1414C9.69995 24.6964 11.5763 26.2562 14.4269 27.2019C14.658 27.2783 14.891 27.349 15.1257 27.4141C15.0495 27.7108 14.9818 28.0095 14.9228 28.3098C14.3821 31.0739 14.8043 33.2686 16.148 34.0209C17.5358 34.7977 19.8652 33.9993 22.1332 32.0747C22.3171 31.9183 22.497 31.7574 22.6726 31.5922C22.8996 31.8047 23.1326 32.0111 23.3714 32.2111C25.5684 34.0461 27.7382 34.7871 29.0806 34.0328C30.4671 33.2537 30.9178 30.896 30.3327 28.0275C30.2866 27.8028 30.2349 27.5792 30.1777 27.3569C30.3413 27.3098 30.5018 27.2614 30.6583 27.211C33.6218 26.258 35.55 24.7172 35.55 23.1414C35.55 21.6302 33.7457 20.1689 30.9538 19.236ZM30.3111 26.1936C30.1697 26.239 30.0247 26.2828 29.8769 26.3254C29.5497 25.3201 29.1083 24.2511 28.5679 23.1466C29.0835 22.0684 29.508 21.013 29.826 20.0142C30.0905 20.0885 30.347 20.1668 30.5944 20.2495C32.9866 21.0489 34.4457 22.2307 34.4457 23.1414C34.4457 24.1113 32.8698 25.3706 30.3111 26.1936ZM29.2494 28.2357C29.5081 29.504 29.545 30.6508 29.3736 31.5474C29.2197 32.353 28.9101 32.89 28.5272 33.1052C27.7127 33.5629 25.9705 32.968 24.0916 31.3985C23.8695 31.2126 23.6528 31.0207 23.4416 30.8231C24.1701 30.0499 24.898 29.151 25.6085 28.1526C26.8582 28.045 28.0388 27.8689 29.1095 27.6287C29.161 27.8299 29.2077 28.0323 29.2494 28.2357ZM18.5128 33.0261C17.7169 33.2989 17.083 33.3067 16.6997 33.0922C15.8844 32.6358 15.5454 30.8735 16.0078 28.5098C16.0627 28.2304 16.1257 27.9526 16.1965 27.6767C17.2553 27.9041 18.4274 28.0676 19.68 28.1662C20.3953 29.1431 21.1442 30.0411 21.899 30.8274C21.7386 30.978 21.5744 31.1248 21.4066 31.2677C20.4036 32.1186 19.3985 32.7224 18.5128 33.0261ZM14.7841 26.1876C13.5236 25.7694 12.4827 25.2259 11.7692 24.6328C11.128 24.0999 10.8043 23.5707 10.8043 23.1414C10.8043 22.2277 12.2076 21.0622 14.5481 20.2702C14.8322 20.1741 15.1295 20.0834 15.4379 19.9984C15.7615 21.0197 16.1858 22.0876 16.6978 23.1674C16.1791 24.2633 15.7488 25.3482 15.4221 26.3816C15.2078 26.322 14.9951 26.2574 14.7841 26.1876ZM16.034 17.9287C15.5482 15.5188 15.8708 13.7009 16.6828 13.2446C17.5475 12.7586 19.4598 13.4515 21.4754 15.1888C21.6069 15.3023 21.7362 15.4181 21.8633 15.5362C21.1122 16.3191 20.3701 17.2104 19.6612 18.1815C18.4454 18.2909 17.2817 18.4665 16.2117 18.7019C16.1458 18.4457 16.0865 18.1878 16.034 17.9287ZM27.1845 20.6015C26.9318 20.1777 26.6697 19.7593 26.3984 19.3465C27.2232 19.4478 28.0135 19.5822 28.7555 19.7465C28.5328 20.4396 28.2551 21.1643 27.9282 21.9072C27.6893 21.4672 27.4414 21.0319 27.1845 20.6015ZM22.6374 16.3023C23.1467 16.838 23.6568 17.436 24.1586 18.0849C23.1407 18.0382 22.1212 18.038 21.1033 18.0843C21.6056 17.4414 22.1201 16.8442 22.6374 16.3023ZM18.061 20.6088C17.8074 21.0358 17.5641 21.4684 17.3313 21.9064C17.0097 21.166 16.7346 20.4381 16.5099 19.7351C17.2474 19.5749 18.034 19.444 18.8535 19.3446C18.5792 19.7599 18.3149 20.1815 18.061 20.6088ZM18.877 27.0144C18.0303 26.9227 17.232 26.7985 16.4947 26.6426C16.7229 25.9271 17.0041 25.1836 17.3326 24.4274C17.5663 24.8657 17.8106 25.2986 18.0654 25.7258C18.3273 26.1649 18.5985 26.595 18.877 27.0144ZM22.6679 30.0559C22.1444 29.5078 21.6224 28.9013 21.1125 28.2491C21.6075 28.2679 22.1121 28.2776 22.625 28.2776C23.1518 28.2776 23.6727 28.2661 24.1853 28.2439C23.682 28.9079 23.1738 29.5152 22.6679 30.0559ZM27.9386 24.3888C28.2842 25.1534 28.5754 25.8929 28.8066 26.5962C28.0572 26.7622 27.248 26.8959 26.3953 26.9952C26.6685 26.5748 26.9331 26.1491 27.1889 25.7184C27.4489 25.2807 27.6989 24.8374 27.9386 24.3888ZM26.2323 25.1829C25.8408 25.8431 25.4272 26.4909 24.9922 27.1251C24.2044 27.1792 23.4148 27.2061 22.625 27.2057C21.8205 27.2057 21.038 27.1814 20.2845 27.134C19.8382 26.5013 19.4167 25.8524 19.021 25.1887C18.6271 24.5286 18.2593 23.8542 17.9181 23.167C18.2584 22.4795 18.6252 21.8048 19.0178 21.1442L19.0177 21.1443C19.4101 20.4835 19.8282 19.8374 20.2711 19.2074C21.0398 19.1509 21.8281 19.1215 22.6249 19.1215C23.4252 19.1215 24.2146 19.1512 24.9832 19.208C25.4216 19.8371 25.837 20.481 26.2287 21.1385C26.6226 21.7977 26.9942 22.4691 27.3431 23.1518C26.9978 23.8414 26.6273 24.5188 26.2323 25.1829ZM28.5104 13.2126C29.3759 13.6972 29.7126 15.6514 29.1687 18.2141C29.134 18.3776 29.095 18.5441 29.0526 18.713C27.98 18.4726 26.8155 18.2939 25.5962 18.1829C24.8859 17.2011 24.1499 16.3084 23.4111 15.5356C23.6047 15.3545 23.8029 15.178 24.0056 15.0064C25.9141 13.3943 27.6977 12.7578 28.5104 13.2126ZM22.625 20.9007C23.8998 20.9007 24.9333 21.9039 24.9333 23.1414C24.9333 24.3788 23.8998 25.382 22.625 25.382C21.3501 25.382 20.3166 24.3788 20.3166 23.1414C20.3166 21.9039 21.3501 20.9007 22.625 20.9007Z" fill="#00D8FF"/>
<path d="M30.9538 19.236C30.6787 19.1444 30.4013 19.0595 30.1218 18.9814C30.1687 18.7952 30.2119 18.6112 30.2503 18.4305C30.8802 15.4624 30.4684 13.0713 29.0619 12.284C27.7134 11.5293 25.5079 12.3163 23.2806 14.1979C23.0611 14.3837 22.8464 14.5748 22.6369 14.7711C22.4966 14.6406 22.3538 14.5126 22.2086 14.3872C19.8742 12.3753 17.5344 11.5273 16.1294 12.3169C14.7821 13.074 14.3831 15.3218 14.9502 18.1347C15.0066 18.4133 15.0703 18.6904 15.1413 18.9658C14.8101 19.0572 14.4905 19.1544 14.1846 19.2579C11.4478 20.1842 9.69995 21.6357 9.69995 23.1414C9.69995 24.6964 11.5763 26.2562 14.4269 27.2019C14.658 27.2783 14.891 27.349 15.1257 27.4141C15.0495 27.7108 14.9818 28.0095 14.9228 28.3098C14.3821 31.0739 14.8043 33.2686 16.148 34.0209C17.5358 34.7977 19.8652 33.9993 22.1332 32.0747C22.3171 31.9183 22.497 31.7574 22.6726 31.5922C22.8996 31.8047 23.1326 32.0111 23.3714 32.2111C25.5684 34.0461 27.7382 34.7871 29.0806 34.0328C30.4671 33.2537 30.9178 30.896 30.3327 28.0275C30.2866 27.8028 30.2349 27.5792 30.1777 27.3569C30.3413 27.3098 30.5018 27.2614 30.6583 27.211C33.6218 26.258 35.55 24.7172 35.55 23.1414C35.55 21.6302 33.7457 20.1689 30.9538 19.236ZM30.3111 26.1936C30.1697 26.239 30.0247 26.2828 29.8769 26.3254C29.5497 25.3201 29.1083 24.2511 28.5679 23.1466C29.0835 22.0684 29.508 21.013 29.826 20.0142C30.0905 20.0885 30.347 20.1668 30.5944 20.2495C32.9866 21.0489 34.4457 22.2307 34.4457 23.1414C34.4457 24.1113 32.8698 25.3706 30.3111 26.1936ZM29.2494 28.2357C29.5081 29.504 29.545 30.6508 29.3736 31.5474C29.2197 32.353 28.9101 32.89 28.5272 33.1052C27.7127 33.5629 25.9705 32.968 24.0916 31.3985C23.8695 31.2126 23.6528 31.0207 23.4416 30.8231C24.1701 30.0499 24.898 29.151 25.6085 28.1526C26.8582 28.045 28.0388 27.8689 29.1095 27.6287C29.161 27.8299 29.2077 28.0323 29.2494 28.2357ZM18.5128 33.0261C17.7169 33.2989 17.083 33.3067 16.6997 33.0922C15.8844 32.6358 15.5454 30.8735 16.0078 28.5098C16.0627 28.2304 16.1257 27.9526 16.1965 27.6767C17.2553 27.9041 18.4274 28.0676 19.68 28.1662C20.3953 29.1431 21.1442 30.0411 21.899 30.8274C21.7386 30.978 21.5744 31.1248 21.4066 31.2677C20.4036 32.1186 19.3985 32.7224 18.5128 33.0261ZM14.7841 26.1876C13.5236 25.7694 12.4827 25.2259 11.7692 24.6328C11.128 24.0999 10.8043 23.5707 10.8043 23.1414C10.8043 22.2277 12.2076 21.0622 14.5481 20.2702C14.8322 20.1741 15.1295 20.0834 15.4379 19.9984C15.7615 21.0197 16.1858 22.0876 16.6978 23.1674C16.1791 24.2633 15.7488 25.3482 15.4221 26.3816C15.2078 26.322 14.9951 26.2574 14.7841 26.1876ZM16.034 17.9287C15.5482 15.5188 15.8708 13.7009 16.6828 13.2446C17.5475 12.7586 19.4598 13.4515 21.4754 15.1888C21.6069 15.3023 21.7362 15.4181 21.8633 15.5362C21.1122 16.3191 20.3701 17.2104 19.6612 18.1815C18.4454 18.2909 17.2817 18.4665 16.2117 18.7019C16.1458 18.4457 16.0865 18.1878 16.034 17.9287ZM27.1845 20.6015C26.9318 20.1777 26.6697 19.7593 26.3984 19.3465C27.2232 19.4478 28.0135 19.5822 28.7555 19.7465C28.5328 20.4396 28.2551 21.1643 27.9282 21.9072C27.6893 21.4672 27.4414 21.0319 27.1845 20.6015ZM22.6374 16.3023C23.1467 16.838 23.6568 17.436 24.1586 18.0849C23.1407 18.0382 22.1212 18.038 21.1033 18.0843C21.6056 17.4414 22.1201 16.8442 22.6374 16.3023ZM18.061 20.6088C17.8074 21.0358 17.5641 21.4684 17.3313 21.9064C17.0097 21.166 16.7346 20.4381 16.5099 19.7351C17.2474 19.5749 18.034 19.444 18.8535 19.3446C18.5792 19.7599 18.3149 20.1815 18.061 20.6088ZM18.877 27.0144C18.0303 26.9227 17.232 26.7985 16.4947 26.6426C16.7229 25.9271 17.0041 25.1836 17.3326 24.4274C17.5663 24.8657 17.8106 25.2986 18.0654 25.7258C18.3273 26.1649 18.5985 26.595 18.877 27.0144ZM22.6679 30.0559C22.1444 29.5078 21.6224 28.9013 21.1125 28.2491C21.6075 28.2679 22.1121 28.2776 22.625 28.2776C23.1518 28.2776 23.6727 28.2661 24.1853 28.2439C23.682 28.9079 23.1738 29.5152 22.6679 30.0559ZM27.9386 24.3888C28.2842 25.1534 28.5754 25.8929 28.8066 26.5962C28.0572 26.7622 27.248 26.8959 26.3953 26.9952C26.6685 26.5748 26.9331 26.1491 27.1889 25.7184C27.4489 25.2807 27.6989 24.8374 27.9386 24.3888ZM26.2323 25.1829C25.8408 25.8431 25.4272 26.4909 24.9922 27.1251C24.2044 27.1792 23.4148 27.2061 22.625 27.2057C21.8205 27.2057 21.038 27.1814 20.2845 27.134C19.8382 26.5013 19.4167 25.8524 19.021 25.1887C18.6271 24.5286 18.2593 23.8542 17.9181 23.167C18.2584 22.4795 18.6252 21.8048 19.0178 21.1442L19.0177 21.1443C19.4101 20.4835 19.8282 19.8374 20.2711 19.2074C21.0398 19.1509 21.8281 19.1215 22.6249 19.1215C23.4252 19.1215 24.2146 19.1512 24.9832 19.208C25.4216 19.8371 25.837 20.481 26.2287 21.1385C26.6226 21.7977 26.9942 22.4691 27.3431 23.1518C26.9978 23.8414 26.6273 24.5188 26.2323 25.1829ZM28.5104 13.2126C29.3759 13.6972 29.7126 15.6514 29.1687 18.2141C29.134 18.3776 29.095 18.5441 29.0526 18.713C27.98 18.4726 26.8155 18.2939 25.5962 18.1829C24.8859 17.2011 24.1499 16.3084 23.4111 15.5356C23.6047 15.3545 23.8029 15.178 24.0056 15.0064C25.9141 13.3943 27.6977 12.7578 28.5104 13.2126ZM22.625 20.9007C23.8998 20.9007 24.9333 21.9039 24.9333 23.1414C24.9333 24.3788 23.8998 25.382 22.625 25.382C21.3501 25.382 20.3166 24.3788 20.3166 23.1414C20.3166 21.9039 21.3501 20.9007 22.625 20.9007Z" stroke="#00D8FF" stroke-width="0.5" mask="url(#path-7-outside-2_231_87)"/>
</svg>
