<svg width="50" height="50" viewBox="0 0 50 50" fill="none" xmlns="http://www.w3.org/2000/svg">
<rect x="6.6875" y="6.6875" width="34.6875" height="33.75" fill="#764ABC"/>
<path fill-rule="evenodd" clip-rule="evenodd" d="M7.625 7.625L7.625 4.8125H38.5625V7.625L41.375 7.625V35.75H38.5625V10.4375H35.75V7.625H7.625ZM7.625 7.625V35.75H4.8125V7.625H7.625Z" fill="#8F00FF"/>
<path fill-rule="evenodd" clip-rule="evenodd" d="M38.5625 4.8125H41.375V7.625H38.5625V4.8125ZM41.375 41.375H44.1875V7.625H41.375V38.5625H38.5625V41.375H7.625V38.5625H4.8125V41.375H7.625V44.1875H41.375V41.375Z" fill="#3C006B"/>
<path fill-rule="evenodd" clip-rule="evenodd" d="M4.8125 35.75H7.625V38.5625H4.8125V35.75ZM35.75 38.5625H7.625V41.375H38.5625V38.5625H41.375V35.75H35.75V38.5625Z" fill="#57009C"/>
<path fill-rule="evenodd" clip-rule="evenodd" d="M41.375 2H7.625V4.8125H4.8125V7.625H2V41.375H4.8125V44.1875H7.625V47H41.375V44.1875H44.1875V41.375H47V7.625H44.1875V4.8125H41.375V2ZM41.375 4.8125V7.625H44.1875V41.375H41.375V44.1875H7.625V41.375H4.8125V7.625H7.625V4.8125H41.375Z" fill="black"/>
<path d="M28.3258 23.6717V23.6716L28.3178 23.6719C27.3496 23.7031 26.6029 24.515 26.634 25.4786L26.6338 25.4786L26.6344 25.4871C26.6602 25.8739 26.7956 26.2238 27.0101 26.4956C26.1295 28.1532 24.8029 29.385 22.8156 30.4297L22.8151 30.4299C21.4437 31.1545 20.027 31.4109 18.6119 31.231C17.4693 31.0785 16.6051 30.5762 16.0643 29.7656C15.2596 28.5327 15.1846 27.2131 15.8649 25.8777L15.8657 25.8761C16.3502 24.9072 17.1196 24.1878 17.6062 23.8292L17.749 23.724L17.6968 23.5544C17.5914 23.2118 17.4341 22.6343 17.3565 22.2201L17.2837 21.8322L16.9641 22.0637C12.974 24.9531 13.364 28.898 14.6054 30.7882L14.6057 30.7887C15.5447 32.2116 17.424 33.064 19.4606 33.064C20.0093 33.064 20.5619 33.0093 21.117 32.8713C24.5639 32.1961 27.1936 30.1614 28.7055 27.1409C29.5409 26.9853 30.1538 26.2378 30.1244 25.3554C30.0932 24.4185 29.314 23.6717 28.3792 23.6717H28.3258ZM23.012 18.8651V18.865L23.0039 18.8652C22.0359 18.8965 21.2892 19.7084 21.3202 20.672L21.3202 20.6723C21.3515 21.6091 22.1305 22.3559 23.0654 22.3559H23.1188V22.3562L23.1301 22.3556C23.7559 22.3272 24.3027 21.9626 24.5838 21.448H24.9079C26.8868 21.448 28.7616 22.0202 30.4576 23.1422L30.4579 23.1423C31.7542 23.998 32.6793 25.1066 33.1926 26.4415L33.1926 26.4415L33.1942 26.4455C33.6244 27.5083 33.5933 28.5258 33.1509 29.3872C32.4464 30.7199 31.2766 31.4425 29.7143 31.4425C28.6901 31.4425 27.7107 31.1334 27.2 30.9037L27.0506 30.8364L26.9293 30.9467C26.6439 31.2062 26.1176 31.6273 25.7505 31.8896L25.4016 32.1389L25.7904 32.3197C26.9651 32.866 28.1759 33.1708 29.3405 33.1708C31.9943 33.1708 33.9783 31.706 34.7436 30.2037L34.7444 30.202C35.5668 28.5571 35.4926 25.7787 33.4279 23.4375C31.3464 21.0007 28.2839 19.6662 24.8011 19.6662H24.5199C24.2146 19.1789 23.6658 18.8651 23.0654 18.8651H23.012ZM21.2229 29.0584V29.0585L21.231 29.0582C22.1991 29.0271 22.9458 28.215 22.9147 27.2515L22.9147 27.2513C22.8835 26.3143 22.1044 25.5676 21.1695 25.5676H21.1161H21.1134C21.0991 25.5676 21.0792 25.5676 21.0565 25.5684C20.0522 23.839 19.6379 21.9636 19.79 19.9348L19.7902 19.9328C19.8937 18.3786 20.4104 17.0402 21.31 15.9349L21.3101 15.9349L21.3129 15.9313C21.6655 15.4814 22.192 15.1362 22.7637 14.8999C23.3343 14.664 23.9313 14.5443 24.4062 14.5317C25.6991 14.5076 26.6373 15.2958 27.2766 16.3078C27.9178 17.3228 28.2254 18.5166 28.2631 19.1826L28.2737 19.3699L28.4565 19.412C28.7904 19.4891 29.367 19.6723 29.7688 19.8062L30.1249 19.9249L30.0972 19.5505C29.7695 15.1277 27.0193 12.75 24.2938 12.75C21.7669 12.75 19.4674 14.5703 18.5571 17.2163C17.3183 20.6654 18.098 23.975 19.5717 26.5893C19.4571 26.8151 19.4004 27.101 19.4246 27.3818C19.4595 28.3154 20.237 29.0584 21.1695 29.0584H21.2229Z" fill="black" stroke="black" stroke-width="0.5"/>
<path d="M27.3258 22.6717V22.6716L27.3178 22.6719C26.3496 22.7031 25.6029 23.515 25.634 24.4786L25.6338 24.4786L25.6344 24.4871C25.6602 24.8739 25.7956 25.2238 26.0101 25.4956C25.1295 27.1532 23.8029 28.385 21.8156 29.4297L21.8151 29.4299C20.4437 30.1545 19.027 30.4109 17.6119 30.231C16.4693 30.0785 15.6051 29.5762 15.0643 28.7656C14.2596 27.5327 14.1846 26.2131 14.8649 24.8777L14.8657 24.8761C15.3502 23.9072 16.1196 23.1878 16.6062 22.8292L16.749 22.724L16.6968 22.5544C16.5914 22.2118 16.4341 21.6343 16.3565 21.2201L16.2837 20.8322L15.9641 21.0637C11.974 23.9531 12.364 27.898 13.6054 29.7882L13.6057 29.7887C14.5447 31.2116 16.424 32.064 18.4606 32.064C19.0093 32.064 19.5619 32.0093 20.117 31.8713C23.5639 31.1961 26.1936 29.1614 27.7055 26.1409C28.5409 25.9853 29.1538 25.2378 29.1244 24.3554C29.0932 23.4185 28.314 22.6717 27.3792 22.6717H27.3258ZM22.012 17.8651V17.865L22.0039 17.8652C21.0359 17.8965 20.2892 18.7084 20.3202 19.672L20.3202 19.6723C20.3515 20.6091 21.1305 21.3559 22.0654 21.3559H22.1188V21.3562L22.1301 21.3556C22.7559 21.3272 23.3027 20.9626 23.5838 20.448H23.9079C25.8868 20.448 27.7616 21.0202 29.4576 22.1422L29.4579 22.1423C30.7542 22.998 31.6793 24.1066 32.1926 25.4415L32.1926 25.4415L32.1942 25.4455C32.6244 26.5083 32.5933 27.5258 32.1509 28.3872C31.4464 29.7199 30.2766 30.4425 28.7143 30.4425C27.6901 30.4425 26.7107 30.1334 26.2 29.9037L26.0506 29.8364L25.9293 29.9467C25.6439 30.2062 25.1176 30.6273 24.7505 30.8896L24.4016 31.1389L24.7904 31.3197C25.9651 31.866 27.1759 32.1708 28.3405 32.1708C30.9943 32.1708 32.9783 30.706 33.7436 29.2037L33.7444 29.202C34.5668 27.5571 34.4926 24.7787 32.4279 22.4375C30.3464 20.0007 27.2839 18.6662 23.8011 18.6662H23.5199C23.2146 18.1789 22.6658 17.8651 22.0654 17.8651H22.012ZM20.2229 28.0584V28.0585L20.231 28.0582C21.1991 28.0271 21.9458 27.215 21.9147 26.2515L21.9147 26.2513C21.8835 25.3143 21.1044 24.5676 20.1695 24.5676H20.1161H20.1134C20.0991 24.5676 20.0792 24.5676 20.0565 24.5684C19.0522 22.839 18.6379 20.9636 18.79 18.9348L18.7902 18.9328C18.8937 17.3786 19.4104 16.0402 20.31 14.9349L20.3101 14.9349L20.3129 14.9313C20.6655 14.4814 21.192 14.1362 21.7637 13.8999C22.3343 13.664 22.9313 13.5443 23.4062 13.5317C24.6991 13.5076 25.6373 14.2958 26.2766 15.3078C26.9178 16.3228 27.2254 17.5166 27.2631 18.1826L27.2737 18.3699L27.4565 18.412C27.7904 18.4891 28.367 18.6723 28.7688 18.8062L29.1249 18.9249L29.0972 18.5505C28.7695 14.1277 26.0193 11.75 23.2938 11.75C20.7669 11.75 18.4674 13.5703 17.5571 16.2163C16.3183 19.6654 17.098 22.975 18.5717 25.5893C18.4571 25.8151 18.4004 26.101 18.4246 26.3818C18.4595 27.3154 19.237 28.0584 20.1695 28.0584H20.2229Z" fill="white" stroke="white" stroke-width="0.5"/>
</svg>
