<svg width="50" height="50" viewBox="0 0 50 50" fill="none" xmlns="http://www.w3.org/2000/svg">
<rect x="6.6875" y="6.6875" width="34.6875" height="33.75" fill="#D06397"/>
<path fill-rule="evenodd" clip-rule="evenodd" d="M7.625 7.625L7.625 4.8125H38.5625V7.625L41.375 7.625V35.75H38.5625V10.4375H35.75V7.625H7.625ZM7.625 7.625V35.75H4.8125V7.625H7.625Z" fill="#E4006D"/>
<path fill-rule="evenodd" clip-rule="evenodd" d="M38.5625 4.8125H41.375V7.625H38.5625V4.8125ZM41.375 41.375H44.1875V7.625H41.375V38.5625H38.5625V41.375H7.625V38.5625H4.8125V41.375H7.625V44.1875H41.375V41.375Z" fill="#9C004B"/>
<path fill-rule="evenodd" clip-rule="evenodd" d="M4.8125 35.75H7.625V38.5625H4.8125V35.75ZM35.75 38.5625H7.625V41.375H38.5625V38.5625H41.375V35.75H35.75V38.5625Z" fill="#B80058"/>
<path fill-rule="evenodd" clip-rule="evenodd" d="M41.375 2H7.625V4.8125H4.8125V7.625H2V41.375H4.8125V44.1875H7.625V47H41.375V44.1875H44.1875V41.375H47V7.625H44.1875V4.8125H41.375V2ZM41.375 4.8125V7.625H44.1875V41.375H41.375V44.1875H7.625V41.375H4.8125V7.625H7.625V4.8125H41.375Z" fill="black"/>
<mask id="path-6-outside-1_231_451" maskUnits="userSpaceOnUse" x="8.94373" y="12.4867" width="29" height="23" fill="black">
<rect fill="white" x="8.94373" y="12.4867" width="29" height="23"/>
<path d="M33.8281 25.6356C32.8603 25.6406 32.0194 25.8775 31.3151 26.2274C31.0568 25.7076 30.7984 25.2443 30.7527 24.9046C30.7021 24.5083 30.6413 24.2663 30.7021 23.7928C30.7628 23.3192 31.0365 22.645 31.0314 22.5936C31.0264 22.542 30.9706 22.3002 30.4133 22.295C29.856 22.2899 29.3747 22.4031 29.319 22.5524C29.2632 22.7016 29.1569 23.0413 29.086 23.3914C28.9897 23.9061 27.9712 25.7437 27.3887 26.7062C27.2012 26.3305 27.0391 26.001 27.0036 25.7385C26.9529 25.3422 26.8922 25.1003 26.9529 24.6267C27.0137 24.1531 27.2874 23.4788 27.2822 23.4274C27.2772 23.3759 27.2215 23.134 26.6642 23.1289C26.1069 23.1237 25.6255 23.2369 25.5698 23.3862C25.514 23.5355 25.4533 23.8856 25.3367 24.2252C25.2203 24.5649 23.8676 27.6327 23.5129 28.4253C23.3696 28.7461 23.2192 29.0636 23.062 29.3775C23.062 29.3775 23.0569 29.393 23.0417 29.4187C22.9923 29.5172 22.9416 29.615 22.8896 29.7121V29.7173C22.8137 29.8563 22.7326 29.9849 22.692 29.9849C22.6617 29.9849 22.606 29.6144 22.7022 29.1099C22.9049 28.0444 23.3862 26.387 23.3812 26.3305C23.3812 26.2996 23.4723 26.0113 23.067 25.862C22.6718 25.7127 22.53 25.9598 22.4944 25.9598C22.459 25.9598 22.4337 26.0474 22.4337 26.0474C22.4337 26.0474 22.8745 24.184 21.5927 24.184C20.7922 24.184 19.6877 25.0745 19.1407 25.8775C18.5186 26.2214 17.8971 26.5662 17.276 26.912C16.9773 27.0819 16.6682 27.2518 16.3793 27.4114C16.359 27.3908 16.3388 27.365 16.3185 27.3444C14.7682 25.6612 11.9007 24.4723 12.0222 22.2127C12.0679 21.389 12.3465 19.2272 17.5294 16.6021C21.7953 14.4661 25.1899 15.0579 25.7776 16.3705C26.6185 18.2441 23.9587 21.7236 19.551 22.228C17.8689 22.4185 16.9874 21.7597 16.7645 21.5127C16.5314 21.2552 16.4959 21.2399 16.4097 21.2913C16.2679 21.3684 16.359 21.6001 16.4097 21.7339C16.5415 22.0839 17.0836 22.7016 18.0005 23.0053C18.8112 23.273 20.782 23.4223 23.1683 22.4855C25.8383 21.4354 27.9257 18.5168 27.3126 16.072C26.6997 13.591 22.6465 12.7726 18.8112 14.1572C16.5313 14.9808 14.0589 16.2778 12.2806 17.9661C10.1679 19.9737 9.83357 21.7185 9.9704 22.4494C10.4618 25.0436 13.9829 26.7319 15.3914 27.9826C15.3205 28.0238 15.2546 28.0599 15.1989 28.0908C14.4947 28.4459 11.8095 29.8717 11.1406 31.3799C10.3807 33.0888 11.2623 34.3138 11.8449 34.4784C13.6536 34.9881 15.513 34.0718 16.5111 32.5585C17.5092 31.0452 17.3876 29.0791 16.9265 28.1783C16.9215 28.1669 16.9147 28.1565 16.9062 28.1475C17.0887 28.0393 17.276 27.9261 17.4585 27.818C17.7938 27.6167 18.1333 27.4227 18.4768 27.2363C18.3046 27.7151 18.1779 28.2863 18.1171 29.1099C18.0412 30.0777 18.4313 31.3335 18.9429 31.8277C19.1709 32.0438 19.4394 32.049 19.6118 32.049C20.2096 32.049 20.4781 31.5446 20.777 30.9475C21.1417 30.2165 21.4712 29.3672 21.4712 29.3672C21.4712 29.3672 21.0607 31.663 22.1753 31.663C22.5806 31.663 22.991 31.1277 23.1734 30.8549V30.86C23.1734 30.86 23.1836 30.8446 23.2038 30.8085C23.2443 30.7415 23.2696 30.7004 23.2696 30.7004V30.6901C23.4318 30.4019 23.7965 29.7482 24.3387 28.662C25.0378 27.2621 25.7117 25.5121 25.7117 25.5121C25.7117 25.5121 25.7724 25.9392 25.9802 26.6495C26.1017 27.0665 26.3551 27.5246 26.5577 27.9673C26.3956 28.1989 26.2943 28.3275 26.2943 28.3275L26.2993 28.3327C26.1676 28.5077 26.0258 28.6981 25.8687 28.8834C25.3164 29.5526 24.6578 30.3196 24.5667 30.5409C24.4602 30.8034 24.4856 30.9938 24.6882 31.1483C24.8352 31.2615 25.0986 31.2768 25.3671 31.2615C25.8636 31.2254 26.2133 31.1019 26.3855 31.0246C26.654 30.9269 26.9682 30.7776 27.262 30.5563C27.8041 30.1497 28.1334 29.568 28.1031 28.8011C28.0878 28.379 27.951 27.957 27.7839 27.5605C27.8345 27.4885 27.8801 27.4165 27.9307 27.3444C28.7871 26.073 29.4506 24.6782 29.4506 24.6782C29.4506 24.6782 29.5114 25.1053 29.7192 25.8157C29.8205 26.176 30.0282 26.5672 30.2107 26.9481C29.4051 27.6121 28.9086 28.3842 28.7313 28.8886C28.4121 29.8254 28.6604 30.2474 29.1315 30.3452C29.3443 30.3916 29.6483 30.2887 29.8713 30.1909C30.1549 30.0982 30.4893 29.9386 30.8085 29.7018C31.3505 29.2952 31.8724 28.729 31.842 27.9621C31.8268 27.6121 31.7356 27.2672 31.6089 26.9326C32.2929 26.6444 33.1745 26.4848 34.2992 26.6186C36.7109 26.907 37.1872 28.4356 37.0958 29.0791C37.0047 29.7224 36.498 30.0724 36.3308 30.1806C36.1637 30.2887 36.1079 30.3247 36.1232 30.4019C36.1435 30.5151 36.2245 30.5099 36.3663 30.4893C36.5639 30.4534 37.6329 29.9695 37.6785 28.7857C37.7546 27.2724 36.3359 25.6201 33.8281 25.6356ZM15.2242 32.0078C14.4238 32.8931 13.3092 33.2278 12.8278 32.9447C12.311 32.6409 12.5136 31.3335 13.4967 30.3967C14.0943 29.8254 14.8645 29.2952 15.3761 28.9709C15.4927 28.8989 15.6649 28.796 15.8727 28.6673C15.9082 28.6467 15.9284 28.6364 15.9284 28.6364L16.05 28.5591C16.4097 29.8975 16.0651 31.0762 15.2242 32.0078ZM21.0505 27.9826C20.7719 28.6725 20.1893 30.4379 19.8347 30.3402C19.5307 30.2577 19.3433 28.9195 19.7739 27.5966C19.9917 26.9326 20.4527 26.14 20.7212 25.8311C21.157 25.337 21.6382 25.1723 21.7548 25.3731C21.9018 25.6356 21.2229 27.5503 21.0505 27.9826ZM25.8586 30.3196C25.742 30.3813 25.6306 30.4225 25.58 30.3916C25.5444 30.371 25.6306 30.2887 25.6306 30.2887C25.6306 30.2887 26.2336 29.6297 26.4717 29.3313C26.6084 29.1562 26.7706 28.9504 26.9428 28.7187V28.7857C26.9428 29.5732 26.193 30.1033 25.8586 30.3196ZM29.5672 29.4599C29.481 29.3981 29.4963 29.1923 29.7851 28.5488C29.8965 28.2966 30.16 27.8747 30.6109 27.4679C30.6615 27.6327 30.6971 27.7922 30.6919 27.9415C30.6869 28.935 29.9877 29.3055 29.5672 29.4599Z"/>
</mask>
<path d="M33.8281 25.6356C32.8603 25.6406 32.0194 25.8775 31.3151 26.2274C31.0568 25.7076 30.7984 25.2443 30.7527 24.9046C30.7021 24.5083 30.6413 24.2663 30.7021 23.7928C30.7628 23.3192 31.0365 22.645 31.0314 22.5936C31.0264 22.542 30.9706 22.3002 30.4133 22.295C29.856 22.2899 29.3747 22.4031 29.319 22.5524C29.2632 22.7016 29.1569 23.0413 29.086 23.3914C28.9897 23.9061 27.9712 25.7437 27.3887 26.7062C27.2012 26.3305 27.0391 26.001 27.0036 25.7385C26.9529 25.3422 26.8922 25.1003 26.9529 24.6267C27.0137 24.1531 27.2874 23.4788 27.2822 23.4274C27.2772 23.3759 27.2215 23.134 26.6642 23.1289C26.1069 23.1237 25.6255 23.2369 25.5698 23.3862C25.514 23.5355 25.4533 23.8856 25.3367 24.2252C25.2203 24.5649 23.8676 27.6327 23.5129 28.4253C23.3696 28.7461 23.2192 29.0636 23.062 29.3775C23.062 29.3775 23.0569 29.393 23.0417 29.4187C22.9923 29.5172 22.9416 29.615 22.8896 29.7121V29.7173C22.8137 29.8563 22.7326 29.9849 22.692 29.9849C22.6617 29.9849 22.606 29.6144 22.7022 29.1099C22.9049 28.0444 23.3862 26.387 23.3812 26.3305C23.3812 26.2996 23.4723 26.0113 23.067 25.862C22.6718 25.7127 22.53 25.9598 22.4944 25.9598C22.459 25.9598 22.4337 26.0474 22.4337 26.0474C22.4337 26.0474 22.8745 24.184 21.5927 24.184C20.7922 24.184 19.6877 25.0745 19.1407 25.8775C18.5186 26.2214 17.8971 26.5662 17.276 26.912C16.9773 27.0819 16.6682 27.2518 16.3793 27.4114C16.359 27.3908 16.3388 27.365 16.3185 27.3444C14.7682 25.6612 11.9007 24.4723 12.0222 22.2127C12.0679 21.389 12.3465 19.2272 17.5294 16.6021C21.7953 14.4661 25.1899 15.0579 25.7776 16.3705C26.6185 18.2441 23.9587 21.7236 19.551 22.228C17.8689 22.4185 16.9874 21.7597 16.7645 21.5127C16.5314 21.2552 16.4959 21.2399 16.4097 21.2913C16.2679 21.3684 16.359 21.6001 16.4097 21.7339C16.5415 22.0839 17.0836 22.7016 18.0005 23.0053C18.8112 23.273 20.782 23.4223 23.1683 22.4855C25.8383 21.4354 27.9257 18.5168 27.3126 16.072C26.6997 13.591 22.6465 12.7726 18.8112 14.1572C16.5313 14.9808 14.0589 16.2778 12.2806 17.9661C10.1679 19.9737 9.83357 21.7185 9.9704 22.4494C10.4618 25.0436 13.9829 26.7319 15.3914 27.9826C15.3205 28.0238 15.2546 28.0599 15.1989 28.0908C14.4947 28.4459 11.8095 29.8717 11.1406 31.3799C10.3807 33.0888 11.2623 34.3138 11.8449 34.4784C13.6536 34.9881 15.513 34.0718 16.5111 32.5585C17.5092 31.0452 17.3876 29.0791 16.9265 28.1783C16.9215 28.1669 16.9147 28.1565 16.9062 28.1475C17.0887 28.0393 17.276 27.9261 17.4585 27.818C17.7938 27.6167 18.1333 27.4227 18.4768 27.2363C18.3046 27.7151 18.1779 28.2863 18.1171 29.1099C18.0412 30.0777 18.4313 31.3335 18.9429 31.8277C19.1709 32.0438 19.4394 32.049 19.6118 32.049C20.2096 32.049 20.4781 31.5446 20.777 30.9475C21.1417 30.2165 21.4712 29.3672 21.4712 29.3672C21.4712 29.3672 21.0607 31.663 22.1753 31.663C22.5806 31.663 22.991 31.1277 23.1734 30.8549V30.86C23.1734 30.86 23.1836 30.8446 23.2038 30.8085C23.2443 30.7415 23.2696 30.7004 23.2696 30.7004V30.6901C23.4318 30.4019 23.7965 29.7482 24.3387 28.662C25.0378 27.2621 25.7117 25.5121 25.7117 25.5121C25.7117 25.5121 25.7724 25.9392 25.9802 26.6495C26.1017 27.0665 26.3551 27.5246 26.5577 27.9673C26.3956 28.1989 26.2943 28.3275 26.2943 28.3275L26.2993 28.3327C26.1676 28.5077 26.0258 28.6981 25.8687 28.8834C25.3164 29.5526 24.6578 30.3196 24.5667 30.5409C24.4602 30.8034 24.4856 30.9938 24.6882 31.1483C24.8352 31.2615 25.0986 31.2768 25.3671 31.2615C25.8636 31.2254 26.2133 31.1019 26.3855 31.0246C26.654 30.9269 26.9682 30.7776 27.262 30.5563C27.8041 30.1497 28.1334 29.568 28.1031 28.8011C28.0878 28.379 27.951 27.957 27.7839 27.5605C27.8345 27.4885 27.8801 27.4165 27.9307 27.3444C28.7871 26.073 29.4506 24.6782 29.4506 24.6782C29.4506 24.6782 29.5114 25.1053 29.7192 25.8157C29.8205 26.176 30.0282 26.5672 30.2107 26.9481C29.4051 27.6121 28.9086 28.3842 28.7313 28.8886C28.4121 29.8254 28.6604 30.2474 29.1315 30.3452C29.3443 30.3916 29.6483 30.2887 29.8713 30.1909C30.1549 30.0982 30.4893 29.9386 30.8085 29.7018C31.3505 29.2952 31.8724 28.729 31.842 27.9621C31.8268 27.6121 31.7356 27.2672 31.6089 26.9326C32.2929 26.6444 33.1745 26.4848 34.2992 26.6186C36.7109 26.907 37.1872 28.4356 37.0958 29.0791C37.0047 29.7224 36.498 30.0724 36.3308 30.1806C36.1637 30.2887 36.1079 30.3247 36.1232 30.4019C36.1435 30.5151 36.2245 30.5099 36.3663 30.4893C36.5639 30.4534 37.6329 29.9695 37.6785 28.7857C37.7546 27.2724 36.3359 25.6201 33.8281 25.6356ZM15.2242 32.0078C14.4238 32.8931 13.3092 33.2278 12.8278 32.9447C12.311 32.6409 12.5136 31.3335 13.4967 30.3967C14.0943 29.8254 14.8645 29.2952 15.3761 28.9709C15.4927 28.8989 15.6649 28.796 15.8727 28.6673C15.9082 28.6467 15.9284 28.6364 15.9284 28.6364L16.05 28.5591C16.4097 29.8975 16.0651 31.0762 15.2242 32.0078ZM21.0505 27.9826C20.7719 28.6725 20.1893 30.4379 19.8347 30.3402C19.5307 30.2577 19.3433 28.9195 19.7739 27.5966C19.9917 26.9326 20.4527 26.14 20.7212 25.8311C21.157 25.337 21.6382 25.1723 21.7548 25.3731C21.9018 25.6356 21.2229 27.5503 21.0505 27.9826ZM25.8586 30.3196C25.742 30.3813 25.6306 30.4225 25.58 30.3916C25.5444 30.371 25.6306 30.2887 25.6306 30.2887C25.6306 30.2887 26.2336 29.6297 26.4717 29.3313C26.6084 29.1562 26.7706 28.9504 26.9428 28.7187V28.7857C26.9428 29.5732 26.193 30.1033 25.8586 30.3196ZM29.5672 29.4599C29.481 29.3981 29.4963 29.1923 29.7851 28.5488C29.8965 28.2966 30.16 27.8747 30.6109 27.4679C30.6615 27.6327 30.6971 27.7922 30.6919 27.9415C30.6869 28.935 29.9877 29.3055 29.5672 29.4599Z" fill="black"/>
<path d="M33.8281 25.6356C32.8603 25.6406 32.0194 25.8775 31.3151 26.2274C31.0568 25.7076 30.7984 25.2443 30.7527 24.9046C30.7021 24.5083 30.6413 24.2663 30.7021 23.7928C30.7628 23.3192 31.0365 22.645 31.0314 22.5936C31.0264 22.542 30.9706 22.3002 30.4133 22.295C29.856 22.2899 29.3747 22.4031 29.319 22.5524C29.2632 22.7016 29.1569 23.0413 29.086 23.3914C28.9897 23.9061 27.9712 25.7437 27.3887 26.7062C27.2012 26.3305 27.0391 26.001 27.0036 25.7385C26.9529 25.3422 26.8922 25.1003 26.9529 24.6267C27.0137 24.1531 27.2874 23.4788 27.2822 23.4274C27.2772 23.3759 27.2215 23.134 26.6642 23.1289C26.1069 23.1237 25.6255 23.2369 25.5698 23.3862C25.514 23.5355 25.4533 23.8856 25.3367 24.2252C25.2203 24.5649 23.8676 27.6327 23.5129 28.4253C23.3696 28.7461 23.2192 29.0636 23.062 29.3775C23.062 29.3775 23.0569 29.393 23.0417 29.4187C22.9923 29.5172 22.9416 29.615 22.8896 29.7121V29.7173C22.8137 29.8563 22.7326 29.9849 22.692 29.9849C22.6617 29.9849 22.606 29.6144 22.7022 29.1099C22.9049 28.0444 23.3862 26.387 23.3812 26.3305C23.3812 26.2996 23.4723 26.0113 23.067 25.862C22.6718 25.7127 22.53 25.9598 22.4944 25.9598C22.459 25.9598 22.4337 26.0474 22.4337 26.0474C22.4337 26.0474 22.8745 24.184 21.5927 24.184C20.7922 24.184 19.6877 25.0745 19.1407 25.8775C18.5186 26.2214 17.8971 26.5662 17.276 26.912C16.9773 27.0819 16.6682 27.2518 16.3793 27.4114C16.359 27.3908 16.3388 27.365 16.3185 27.3444C14.7682 25.6612 11.9007 24.4723 12.0222 22.2127C12.0679 21.389 12.3465 19.2272 17.5294 16.6021C21.7953 14.4661 25.1899 15.0579 25.7776 16.3705C26.6185 18.2441 23.9587 21.7236 19.551 22.228C17.8689 22.4185 16.9874 21.7597 16.7645 21.5127C16.5314 21.2552 16.4959 21.2399 16.4097 21.2913C16.2679 21.3684 16.359 21.6001 16.4097 21.7339C16.5415 22.0839 17.0836 22.7016 18.0005 23.0053C18.8112 23.273 20.782 23.4223 23.1683 22.4855C25.8383 21.4354 27.9257 18.5168 27.3126 16.072C26.6997 13.591 22.6465 12.7726 18.8112 14.1572C16.5313 14.9808 14.0589 16.2778 12.2806 17.9661C10.1679 19.9737 9.83357 21.7185 9.9704 22.4494C10.4618 25.0436 13.9829 26.7319 15.3914 27.9826C15.3205 28.0238 15.2546 28.0599 15.1989 28.0908C14.4947 28.4459 11.8095 29.8717 11.1406 31.3799C10.3807 33.0888 11.2623 34.3138 11.8449 34.4784C13.6536 34.9881 15.513 34.0718 16.5111 32.5585C17.5092 31.0452 17.3876 29.0791 16.9265 28.1783C16.9215 28.1669 16.9147 28.1565 16.9062 28.1475C17.0887 28.0393 17.276 27.9261 17.4585 27.818C17.7938 27.6167 18.1333 27.4227 18.4768 27.2363C18.3046 27.7151 18.1779 28.2863 18.1171 29.1099C18.0412 30.0777 18.4313 31.3335 18.9429 31.8277C19.1709 32.0438 19.4394 32.049 19.6118 32.049C20.2096 32.049 20.4781 31.5446 20.777 30.9475C21.1417 30.2165 21.4712 29.3672 21.4712 29.3672C21.4712 29.3672 21.0607 31.663 22.1753 31.663C22.5806 31.663 22.991 31.1277 23.1734 30.8549V30.86C23.1734 30.86 23.1836 30.8446 23.2038 30.8085C23.2443 30.7415 23.2696 30.7004 23.2696 30.7004V30.6901C23.4318 30.4019 23.7965 29.7482 24.3387 28.662C25.0378 27.2621 25.7117 25.5121 25.7117 25.5121C25.7117 25.5121 25.7724 25.9392 25.9802 26.6495C26.1017 27.0665 26.3551 27.5246 26.5577 27.9673C26.3956 28.1989 26.2943 28.3275 26.2943 28.3275L26.2993 28.3327C26.1676 28.5077 26.0258 28.6981 25.8687 28.8834C25.3164 29.5526 24.6578 30.3196 24.5667 30.5409C24.4602 30.8034 24.4856 30.9938 24.6882 31.1483C24.8352 31.2615 25.0986 31.2768 25.3671 31.2615C25.8636 31.2254 26.2133 31.1019 26.3855 31.0246C26.654 30.9269 26.9682 30.7776 27.262 30.5563C27.8041 30.1497 28.1334 29.568 28.1031 28.8011C28.0878 28.379 27.951 27.957 27.7839 27.5605C27.8345 27.4885 27.8801 27.4165 27.9307 27.3444C28.7871 26.073 29.4506 24.6782 29.4506 24.6782C29.4506 24.6782 29.5114 25.1053 29.7192 25.8157C29.8205 26.176 30.0282 26.5672 30.2107 26.9481C29.4051 27.6121 28.9086 28.3842 28.7313 28.8886C28.4121 29.8254 28.6604 30.2474 29.1315 30.3452C29.3443 30.3916 29.6483 30.2887 29.8713 30.1909C30.1549 30.0982 30.4893 29.9386 30.8085 29.7018C31.3505 29.2952 31.8724 28.729 31.842 27.9621C31.8268 27.6121 31.7356 27.2672 31.6089 26.9326C32.2929 26.6444 33.1745 26.4848 34.2992 26.6186C36.7109 26.907 37.1872 28.4356 37.0958 29.0791C37.0047 29.7224 36.498 30.0724 36.3308 30.1806C36.1637 30.2887 36.1079 30.3247 36.1232 30.4019C36.1435 30.5151 36.2245 30.5099 36.3663 30.4893C36.5639 30.4534 37.6329 29.9695 37.6785 28.7857C37.7546 27.2724 36.3359 25.6201 33.8281 25.6356ZM15.2242 32.0078C14.4238 32.8931 13.3092 33.2278 12.8278 32.9447C12.311 32.6409 12.5136 31.3335 13.4967 30.3967C14.0943 29.8254 14.8645 29.2952 15.3761 28.9709C15.4927 28.8989 15.6649 28.796 15.8727 28.6673C15.9082 28.6467 15.9284 28.6364 15.9284 28.6364L16.05 28.5591C16.4097 29.8975 16.0651 31.0762 15.2242 32.0078ZM21.0505 27.9826C20.7719 28.6725 20.1893 30.4379 19.8347 30.3402C19.5307 30.2577 19.3433 28.9195 19.7739 27.5966C19.9917 26.9326 20.4527 26.14 20.7212 25.8311C21.157 25.337 21.6382 25.1723 21.7548 25.3731C21.9018 25.6356 21.2229 27.5503 21.0505 27.9826ZM25.8586 30.3196C25.742 30.3813 25.6306 30.4225 25.58 30.3916C25.5444 30.371 25.6306 30.2887 25.6306 30.2887C25.6306 30.2887 26.2336 29.6297 26.4717 29.3313C26.6084 29.1562 26.7706 28.9504 26.9428 28.7187V28.7857C26.9428 29.5732 26.193 30.1033 25.8586 30.3196ZM29.5672 29.4599C29.481 29.3981 29.4963 29.1923 29.7851 28.5488C29.8965 28.2966 30.16 27.8747 30.6109 27.4679C30.6615 27.6327 30.6971 27.7922 30.6919 27.9415C30.6869 28.935 29.9877 29.3055 29.5672 29.4599Z" stroke="black" stroke-width="0.3" mask="url(#path-6-outside-1_231_451)"/>
<path d="M34.1102 24.0721C33.1333 24.0772 32.2844 24.3125 31.5735 24.6602C31.3127 24.1437 31.0518 23.6834 31.0058 23.3458C30.9546 22.952 30.8933 22.7116 30.9546 22.241C31.016 21.7704 31.2922 21.1005 31.287 21.0494C31.282 20.9981 31.2257 20.7578 30.6631 20.7527C30.1006 20.7476 29.6148 20.8601 29.5584 21.0085C29.5021 21.1567 29.3948 21.4943 29.3232 21.8421C29.226 22.3536 28.198 24.1796 27.6099 25.136C27.4207 24.7626 27.257 24.4353 27.2212 24.1744C27.1701 23.7806 27.1087 23.5402 27.1701 23.0696C27.2314 22.5991 27.5077 21.929 27.5025 21.8779C27.4974 21.8267 27.4411 21.5863 26.8785 21.5813C26.316 21.5761 25.83 21.6886 25.7739 21.837C25.7176 21.9853 25.6562 22.3332 25.5385 22.6706C25.421 23.0083 24.0555 26.0567 23.6974 26.8443C23.5528 27.163 23.401 27.4785 23.2423 27.7905C23.2423 27.7905 23.2371 27.8059 23.2219 27.8314C23.1719 27.9292 23.1208 28.0264 23.0683 28.1229V28.1281C22.9917 28.2662 22.9098 28.394 22.8689 28.394C22.8382 28.394 22.782 28.0258 22.8791 27.5246C23.0837 26.4657 23.5695 24.8188 23.5645 24.7626C23.5645 24.732 23.6565 24.4455 23.2474 24.2971C22.8484 24.1488 22.7052 24.3943 22.6694 24.3943C22.6337 24.3943 22.608 24.4813 22.608 24.4813C22.608 24.4813 23.0531 22.6297 21.7591 22.6297C20.951 22.6297 19.8361 23.5146 19.2839 24.3125C18.656 24.6542 18.0285 24.9969 17.4016 25.3405C17.1 25.5093 16.7881 25.6781 16.4964 25.8367C16.476 25.8163 16.4555 25.7906 16.4351 25.7702C14.8701 24.0976 11.9755 22.9162 12.0982 20.6708C12.1443 19.8524 12.4255 17.7042 17.6574 15.0957C21.9637 12.9732 25.3903 13.5613 25.9836 14.8656C26.8325 16.7274 24.1475 20.1849 19.6981 20.6861C18.0001 20.8754 17.1103 20.2207 16.8853 19.9753C16.65 19.7195 16.6141 19.7042 16.5271 19.7553C16.3839 19.832 16.476 20.0621 16.5271 20.1951C16.6602 20.5429 17.2073 21.1567 18.133 21.4584C18.9514 21.7245 20.9408 21.8728 23.3496 20.9419C26.0449 19.8985 28.152 16.9983 27.5331 14.569C26.9144 12.1036 22.8229 11.2904 18.9514 12.6663C16.6498 13.4847 14.1541 14.7735 12.359 16.4511C10.2263 18.446 9.88881 20.1798 10.0269 20.9061C10.523 23.4839 14.0774 25.1615 15.4992 26.4044C15.4276 26.4453 15.3611 26.4812 15.3049 26.5118C14.594 26.8647 11.8834 28.2815 11.2082 29.7802C10.4411 31.4782 11.3311 32.6955 11.9191 32.8591C13.745 33.3656 15.6219 32.4551 16.6295 30.9514C17.637 29.4476 17.5143 27.4939 17.0488 26.5988C17.0438 26.5875 17.0369 26.5771 17.0283 26.5682C17.2125 26.4607 17.4016 26.3482 17.5858 26.2408C17.9243 26.0407 18.267 25.848 18.6138 25.6627C18.4399 26.1385 18.312 26.7061 18.2507 27.5246C18.174 28.4862 18.5678 29.7341 19.0843 30.2251C19.3144 30.4399 19.5855 30.4451 19.7595 30.4451C20.363 30.4451 20.634 29.9438 20.9357 29.3505C21.3039 28.6241 21.6364 27.7802 21.6364 27.7802C21.6364 27.7802 21.2221 30.0615 22.3472 30.0615C22.7564 30.0615 23.1706 29.5296 23.3548 29.2585V29.2635C23.3548 29.2635 23.365 29.2483 23.3855 29.2124C23.4264 29.1458 23.4519 29.1049 23.4519 29.1049V29.0947C23.6156 28.8084 23.9838 28.1588 24.5311 27.0795C25.2368 25.6884 25.917 23.9494 25.917 23.9494C25.917 23.9494 25.9784 24.3739 26.1881 25.0797C26.3108 25.4941 26.5666 25.9492 26.7711 26.3891C26.6075 26.6193 26.5052 26.7471 26.5052 26.7471L26.5103 26.7522C26.3773 26.9261 26.2342 27.1154 26.0756 27.2994C25.5181 27.9645 24.8533 28.7266 24.7612 28.9465C24.6538 29.2073 24.6794 29.3965 24.8839 29.55C25.0323 29.6625 25.2982 29.6778 25.5692 29.6625C26.0704 29.6266 26.4234 29.5039 26.5973 29.4272C26.8683 29.3301 27.1855 29.1817 27.482 28.9618C28.0293 28.5577 28.3617 27.9797 28.331 27.2176C28.3156 26.7982 28.1775 26.3789 28.0089 25.985C28.06 25.9134 28.1059 25.8418 28.1571 25.7702C29.0215 24.5068 29.6914 23.1208 29.6914 23.1208C29.6914 23.1208 29.7527 23.5452 29.9624 24.2512C30.0647 24.6091 30.2744 24.9979 30.4586 25.3764C29.6454 26.0362 29.1442 26.8034 28.9652 27.3046C28.643 28.2355 28.8936 28.6548 29.3692 28.752C29.5841 28.7981 29.8909 28.6959 30.116 28.5986C30.4023 28.5066 30.7399 28.348 31.0621 28.1127C31.6092 27.7086 32.1361 27.146 32.1054 26.3839C32.09 26.0362 31.998 25.6934 31.8701 25.361C32.5605 25.0746 33.4505 24.916 34.5858 25.049C37.0203 25.3355 37.501 26.8545 37.4089 27.4939C37.3168 28.1331 36.8054 28.481 36.6366 28.5884C36.4679 28.6959 36.4116 28.7316 36.427 28.8084C36.4475 28.9209 36.5293 28.9157 36.6725 28.8952C36.8719 28.8595 37.951 28.3787 37.9971 27.2024C38.0738 25.6986 36.6418 24.0567 34.1102 24.0721ZM15.3304 30.4042C14.5224 31.2838 13.3973 31.6164 12.9113 31.3351C12.3897 31.0332 12.5942 29.7341 13.5865 28.8032C14.1899 28.2355 14.9673 27.7086 15.4838 27.3864C15.6015 27.3148 15.7753 27.2126 15.985 27.0847C16.0209 27.0642 16.0413 27.054 16.0413 27.054L16.164 26.9772C16.5271 28.3071 16.1793 29.4784 15.3304 30.4042ZM21.2118 26.4044C20.9306 27.0899 20.3425 28.8441 19.9845 28.747C19.6777 28.6651 19.4884 27.3353 19.9231 26.0208C20.143 25.361 20.6084 24.5734 20.8794 24.2664C21.3193 23.7754 21.8051 23.6118 21.9228 23.8113C22.0711 24.0721 21.3858 25.9747 21.2118 26.4044ZM26.0654 28.7266C25.9477 28.7879 25.8352 28.8288 25.7841 28.7981C25.7482 28.7777 25.8352 28.6959 25.8352 28.6959C25.8352 28.6959 26.4439 28.0411 26.6843 27.7445C26.8222 27.5705 26.986 27.366 27.1598 27.1358V27.2024C27.1598 27.9849 26.403 28.5117 26.0654 28.7266ZM29.809 27.8723C29.7221 27.8109 29.7375 27.6064 30.029 26.967C30.1415 26.7164 30.4075 26.2971 30.8626 25.8929C30.9137 26.0567 30.9496 26.2151 30.9444 26.3635C30.9394 27.3507 30.2335 27.7189 29.809 27.8723Z" fill="white"/>
</svg>
